<svg width="1279" height="1189" fill="none" xmlns="http://www.w3.org/2000/svg"><path d="m750.56 595.513 200.692 72.715L1279 549.651 951.252 430.772 750.56 503.487l193.449-90.516L1091.89 97.369 775.911 245.213l-90.538 193.404 72.732-200.947L639.5-90 520.895 237.67l72.732 200.947-90.538-193.404L187.112 97.369l147.879 315.602 193.449 90.516-200.692-72.715L0 549.651l327.748 118.577 200.692-72.715-193.449 90.516-147.879 315.601 315.977-147.843 90.538-193.404-72.732 200.947L639.5 1189l118.605-327.67-72.732-200.947 90.538 193.404 315.979 147.843-147.881-315.601-193.449-90.516Z" fill="#fff" fill-opacity=".5"/></svg>