<svg width="520" height="634" fill="none" xmlns="http://www.w3.org/2000/svg"><path d="m256.229 183.534-100.696 66.838 66.822-100.535C284.92 55.596 245.493-80.673 146.093-114 46.507-80.488 7.08 55.781 69.645 149.837l66.822 100.535-100.51-66.838C-58.262 120.953-194.497 160.39-228 260c33.504 99.61 169.74 139.047 263.771 76.466l100.511-66.838L69.46 370.163C7.08 464.404 46.507 600.673 146.093 634c99.585-33.512 139.012-169.781 76.447-263.837l-66.822-100.535 100.511 66.838C350.446 399.047 486.496 359.61 520 260c-33.504-99.61-169.554-139.047-263.771-76.466Z" fill="#fff" fill-opacity=".5"/></svg>