<svg width="507" height="607" fill="none" xmlns="http://www.w3.org/2000/svg"><path d="m180.481 542.869 103.613 54.382c56.788 29.771 122.941-18.26 112.181-81.176l-19.726-114.917c-4.384-25.008 3.985-50.413 22.316-68.276l83.887-81.374c45.829-44.657 20.523-122.261-42.84-131.391l-115.967-16.87c-25.106-3.572-47.024-19.45-58.182-42.077L213.956-43.426c-28.294-57.16-110.387-57.16-138.682 0L23.468 61.17C12.11 83.995-9.608 99.675-34.715 103.248l-115.966 16.87c-63.364 9.13-88.669 86.734-42.84 131.391l83.886 81.374c18.133 17.665 26.501 43.268 22.317 68.276l-19.726 114.917c-10.76 62.916 55.393 110.947 112.18 81.176l103.613-54.382c22.317-11.71 49.216-11.71 71.732 0Z" fill="#fff" fill-opacity=".5"/></svg>