<svg width="200" height="200" fill="none" xmlns="http://www.w3.org/2000/svg"><circle cx="100" cy="100" r="100" fill="#fff"/><circle opacity=".5" cx="100" cy="100" r="100" fill="url(#a)"/><path d="m27.255 128.166-.522-1.568 2.46-.819c.292-.097.511-.226.656-.388a.922.922 0 0 0 .226-.601c.005-.241-.048-.531-.16-.869a9.93 9.93 0 0 0-.152-.417c-.064-.158-.133-.32-.207-.486a8.821 8.821 0 0 0-.227-.47 2.859 2.859 0 0 0-.213-.355l1.274-.424c.069.092.143.212.223.36.076.145.152.301.23.465.074.166.143.328.206.486.064.158.115.296.154.412.204.614.295 1.177.273 1.689-.025.513-.18.955-.465 1.326-.286.368-.718.648-1.297.841l-2.459.818Zm-1.511-4.541-.524-1.576 7.629-2.539.524 1.576-7.629 2.539Z" fill="url(#b)"/><path d="m31.864 115.699.347 1.788-8.422-1.192-.418-2.151 7.365-4.253.347 1.788-5.705 3.16.012.061 6.474.799Zm-3.08.714-.821-4.224 1.303-.253.82 4.224-1.303.253Z" fill="url(#c)"/><path d="m24.859 101.707.114 1.716c-.22.046-.413.123-.58.231a1.5 1.5 0 0 0-.42.402 1.64 1.64 0 0 0-.248.543 2.06 2.06 0 0 0-.056.645c.028.416.155.771.382 1.065.224.295.538.514.94.658.401.143.88.197 1.436.16.572-.038 1.047-.155 1.425-.351.377-.198.655-.458.833-.779.178-.321.254-.684.227-1.089a2.122 2.122 0 0 0-.132-.625 1.664 1.664 0 0 0-.297-.504 1.522 1.522 0 0 0-.452-.347 1.663 1.663 0 0 0-.586-.174l-.107-1.716a3.217 3.217 0 0 1 2.048.91c.286.278.521.616.705 1.016.181.397.289.853.323 1.367.047.716-.072 1.367-.358 1.952a3.466 3.466 0 0 1-1.318 1.426c-.592.364-1.325.576-2.197.634-.875.058-1.63-.057-2.265-.346-.636-.288-1.133-.703-1.492-1.246a3.76 3.76 0 0 1-.612-1.872 4.09 4.09 0 0 1 .11-1.305 3.28 3.28 0 0 1 .501-1.1c.228-.325.515-.596.863-.813.347-.22.751-.373 1.213-.458Z" fill="url(#d)"/><path d="m23.377 99.169-1.399-.085.403-6.592 1.399.086-.15 2.457 6.626.404-.102 1.677-6.627-.404-.15 2.457Z" fill="url(#e)"/><path d="m30.61 91.029-7.91-1.45.307-1.671 3.263.597.622-3.394-3.263-.598.306-1.668 7.909 1.449-.306 1.668-3.267-.598-.622 3.394 3.267.599-.306 1.672Z" fill="url(#f)"/><path d="m32.776 80.758-.566 1.732-6.78-5.136.68-2.082 8.503-.138-.565 1.731-6.522-.011-.02.06 5.27 3.844Zm-3.04-.873 1.337-4.09 1.261.412-1.336 4.09-1.262-.412Z" fill="url(#g)"/><path d="m37.89 67.826-.721 1.535-6.02-2.827-.488 1.037c-.139.296-.21.563-.215.801a1.01 1.01 0 0 0 .171.614c.12.175.302.32.543.433.24.112.462.158.67.136a.982.982 0 0 0 .567-.267c.172-.156.327-.381.465-.675l.784-1.67 1.237.58-.902 1.92c-.261.556-.577.99-.948 1.298a2.24 2.24 0 0 1-1.221.532c-.447.045-.911-.046-1.395-.273-.48-.225-.85-.524-1.11-.894a2.287 2.287 0 0 1-.41-1.281c-.013-.483.11-1 .368-1.55l1.347-2.867 7.278 3.418Zm-5.156 2.371.779-1.66 2.481 3.325-.798 1.7-2.462-3.365Z" fill="url(#h)"/><path d="m44.634 57.212-6.078-5.263 1.113-1.285 2.507 2.171 2.26-2.608-2.508-2.172 1.11-1.282 6.078 5.263-1.11 1.282-2.51-2.174-2.26 2.609 2.51 2.174-1.112 1.285Z" fill="url(#i)"/><path d="m51.71 49.457-1.362 1.21-3.265-7.855 1.638-1.455 7.412 4.17-1.362 1.21-5.625-3.3-.047.042 2.61 5.978Zm-2.184-2.288 3.217-2.857.881.992-3.217 2.857-.881-.992Z" fill="url(#j)"/><path d="m57.564 44.368-4.587-6.604 2.605-1.81c.5-.348.994-.548 1.48-.602.483-.056.935.021 1.354.23.42.206.783.527 1.087.966.305.438.479.891.523 1.358.044.467-.05.918-.278 1.355-.227.434-.594.828-1.101 1.18l-1.661 1.154-.777-1.119 1.434-.996c.27-.187.459-.387.568-.6a1.12 1.12 0 0 0 .123-.664 1.487 1.487 0 0 0-.269-.669 1.45 1.45 0 0 0-.53-.482 1.07 1.07 0 0 0-.66-.11c-.241.03-.497.139-.768.327l-.941.654 3.794 5.462-1.396.97Z" fill="url(#k)"/><path d="m68.509 37.58-3.886-1.822-.514.271 1.603 3.03-1.503.795-3.76-7.108 1.503-.794 1.502 2.838.302-.16.858-4.086 1.87-.99-1.028 4.764 4.917 2.276-1.864.986Z" fill="url(#l)"/><path d="M77.029 29.7c.31.82.419 1.577.325 2.27a3.458 3.458 0 0 1-.764 1.796c-.417.502-.958.878-1.621 1.13-.669.252-1.326.327-1.972.225a3.465 3.465 0 0 1-1.758-.842c-.526-.459-.944-1.097-1.253-1.915-.31-.82-.42-1.576-.33-2.268.092-.692.346-1.289.763-1.79.416-.506.959-.884 1.627-1.137.663-.25 1.318-.325 1.964-.223.648.1 1.235.379 1.76.837.53.458.949 1.097 1.259 1.917Zm-1.612.61c-.201-.531-.45-.95-.747-1.254-.295-.305-.621-.498-.979-.578a1.912 1.912 0 0 0-1.113.098 1.912 1.912 0 0 0-.9.663c-.214.297-.332.658-.353 1.083-.02.424.072.901.273 1.433.2.53.449.95.743 1.255.297.304.625.497.983.577.357.08.728.047 1.113-.098.384-.146.684-.367.899-.663.215-.297.332-.658.35-1.082.022-.425-.068-.903-.27-1.434Z" fill="url(#m)"/><path d="m80.05 32.893-.307-1.331.217-.07c.28-.09.486-.252.617-.486.13-.237.19-.58.177-1.028-.01-.452-.087-1.044-.23-1.777l-.677-3.514 5.317-1.232 1.814 7.834-1.61.373-1.507-6.506-2.169.502.51 2.755c.162.887.223 1.628.183 2.223-.037.594-.207 1.066-.51 1.415-.3.35-.766.597-1.396.743l-.428.099Z" fill="url(#n)"/><path d="M96.188 26.164c.083.873-.012 1.631-.285 2.275a3.458 3.458 0 0 1-1.21 1.53c-.535.375-1.156.596-1.862.663-.711.068-1.365-.033-1.961-.302a3.467 3.467 0 0 1-1.474-1.276c-.387-.58-.622-1.306-.705-2.177-.083-.872.01-1.63.28-2.274a3.44 3.44 0 0 1 1.208-1.527c.535-.377 1.158-.6 1.87-.667a3.799 3.799 0 0 1 1.953.303c.598.266 1.09.69 1.477 1.271.39.581.626 1.308.709 2.18Zm-1.716.163c-.054-.565-.184-1.034-.39-1.406-.204-.373-.468-.645-.792-.816a1.912 1.912 0 0 0-1.1-.2c-.408.04-.756.174-1.041.404-.286.23-.495.546-.628.95-.13.405-.168.89-.114 1.455.054.565.183 1.034.386 1.407.207.372.472.644.796.815.324.172.69.238 1.1.2.409-.04.756-.174 1.042-.404.285-.23.493-.546.623-.95.133-.405.172-.89.118-1.455Z" fill="url(#o)"/><path d="m104.218 22.131-.033 1.402-3.635-.085-.154 6.638-1.7-.04.188-8.038 5.334.123Z" fill="url(#p)"/><path d="m107.089 22.33 1.68.23-.69 5.01.067.01 4.131-4.537 1.474.203-1.096 7.966-1.684-.232.69-5.013-.058-.008-4.152 4.537-1.459-.201 1.097-7.966Z" fill="url(#q)"/><path d="m117.372 23.958 1.592.445-.697 2.495c-.083.298-.098.552-.045.762a.921.921 0 0 0 .371.524c.198.14.468.257.811.352a9.2 9.2 0 0 0 .949.208c.181.032.354.057.517.075.163.018.301.026.414.022l-.361 1.293a2.97 2.97 0 0 1-.424-.016 11.58 11.58 0 0 1-.514-.07 13.11 13.11 0 0 1-.518-.1 7.096 7.096 0 0 1-.428-.103c-.623-.174-1.14-.413-1.552-.719-.412-.307-.692-.683-.84-1.127-.145-.442-.136-.957.028-1.545l.697-2.496Zm4.609 1.287 1.6.446-2.161 7.745-1.6-.447 2.161-7.744Z" fill="url(#r)"/><path d="m123.857 34.202 3.065-7.434 5.009 2.065-.534 1.296-3.438-1.417-.73 1.771 3.18 1.311-.534 1.296-3.18-1.31-.732 1.774 3.452 1.423-.534 1.296-5.024-2.07Z" fill="url(#s)"/><path d="m139.64 36.145-1.496-.847c.082-.21.124-.413.125-.61a1.52 1.52 0 0 0-.104-.574 1.667 1.667 0 0 0-.318-.505 2.03 2.03 0 0 0-.509-.401 1.907 1.907 0 0 0-1.099-.266c-.369.025-.725.167-1.066.425-.341.255-.648.625-.923 1.11-.282.5-.446.96-.49 1.383-.042.425.022.8.193 1.125.171.325.433.588.786.788.198.112.396.19.594.233a1.518 1.518 0 0 0 1.123-.158c.171-.096.327-.227.467-.395l1.492.855a3.217 3.217 0 0 1-1.885 1.21 3.346 3.346 0 0 1-1.236.031 3.886 3.886 0 0 1-1.32-.481c-.624-.354-1.102-.811-1.434-1.372a3.45 3.45 0 0 1-.467-1.884c.021-.696.246-1.423.677-2.184.433-.763.944-1.33 1.534-1.704.59-.372 1.21-.56 1.861-.56.652-.004 1.285.168 1.9.516.405.23.749.5 1.031.81.284.31.498.652.643 1.023.146.368.214.757.205 1.167a3.402 3.402 0 0 1-.284 1.265Z" fill="url(#t)"/><path d="m142.739 44.71-.02-4.292-.465-.348-2.051 2.746-1.362-1.017 4.811-6.443 1.362 1.018-1.922 2.573.274.204 4.061-.976 1.695 1.266-4.745 1.112.051 5.418-1.689-1.261Z" fill="url(#u)"/><path d="m146.758 48.036-1.312-1.264 7.577-3.865 1.578 1.52-3.582 7.714-1.312-1.264 2.853-5.865-.045-.044-5.757 3.068Zm2.11-2.355 3.099 2.985-.92.956-3.099-2.986.92-.956Z" fill="url(#v)"/><path d="m156.138 58.3-1.06-1.324 5.193-4.156-.717-.895c-.204-.256-.412-.438-.624-.547a1.008 1.008 0 0 0-.626-.117c-.21.03-.42.13-.628.296a1.264 1.264 0 0 0-.417.54.98.98 0 0 0-.011.628c.064.223.198.461.401.715l1.153 1.44-1.067.854-1.324-1.655c-.385-.48-.634-.955-.748-1.424a2.25 2.25 0 0 1 .061-1.33c.157-.421.443-.798.86-1.132.415-.332.846-.532 1.293-.602a2.28 2.28 0 0 1 1.33.198c.44.201.849.539 1.229 1.013l1.98 2.473-6.278 5.025Zm.146-5.674 1.146 1.432-4.079.76-1.173-1.465 4.106-.727Z" fill="url(#w)"/><path d="m164.669 73.469 2.12-3.732-.231-.534-3.146 1.361-.675-1.56 7.38-3.193.675 1.56-2.947 1.276.135.313 4.008 1.175.84 1.943-4.669-1.398-2.653 4.723-.837-1.934Z" fill="url(#x)"/><path d="m165.989 76.605 1.313-.376.082.213c.103.276.276.473.517.591.243.118.588.16 1.036.124.45-.034 1.038-.14 1.762-.321l3.475-.858 1.504 5.247-7.73 2.215-.455-1.589 6.419-1.84-.613-2.14-2.725.65c-.878.209-1.614.308-2.21.3-.596-.007-1.076-.153-1.441-.438-.364-.282-.635-.734-.813-1.355l-.121-.423Z" fill="url(#y)"/><path d="m176.438 84.442.255 1.677-5 .76.01.066 5.522 2.675.223 1.471-7.949 1.208-.255-1.68 5.003-.76-.009-.059-5.528-2.694-.221-1.456 7.949-1.208Z" fill="url(#z)"/><path d="m169.753 94.562 8.038-.183.039 1.7-3.317.075.079 3.45 3.317-.075.039 1.695-8.039.184-.039-1.696 3.321-.076-.079-3.45-3.32.076-.039-1.7Z" fill="url(#A)"/><path d="m177.865 104.539-.18 1.687-5.028-.539-.007.066 4.657 3.994-.158 1.479-7.995-.857.181-1.69 5.032.539.006-.058-4.659-4.014.157-1.464 7.994.857Z" fill="url(#B)"/><path d="m167.709 117.358 3.929-1.728.133-.566-3.336-.786.39-1.655 7.826 1.845-.39 1.655-3.126-.737-.078.332 2.513 3.336-.485 2.059-2.911-3.909-4.949 2.206.484-2.052Z" fill="url(#C)"/><path d="m166.261 122.371.635-1.708 6.569 5.404-.763 2.053-8.503-.204.635-1.707 6.516.274.022-.059-5.111-4.053Zm3.002.994-1.499 4.033-1.244-.462 1.5-4.033 1.243.462Z" fill="url(#D)"/><path d="m54.496 162.569 4.479-6.677 2.634 1.767c.507.34.873.726 1.1 1.158.228.431.321.879.28 1.346-.039.466-.207.921-.504 1.364-.298.444-.656.771-1.075.981a2.384 2.384 0 0 1-1.362.235c-.488-.053-.988-.251-1.501-.595l-1.68-1.127.76-1.131 1.45.973c.272.182.527.286.766.31.242.024.463-.018.662-.127.203-.11.378-.275.526-.494a1.45 1.45 0 0 0 .255-.67 1.075 1.075 0 0 0-.137-.655c-.116-.213-.31-.412-.584-.595l-.953-.639-3.705 5.523-1.411-.947Z" fill="url(#E)"/><path d="m61.663 167.118-1.61-.853 6.22-5.804 1.935 1.026-1.317 8.403-1.61-.854 1.126-6.424-.055-.029-4.689 4.535Zm1.38-2.845 3.802 2.015-.622 1.173-3.801-2.016.621-1.172Z" fill="url(#F)"/><path d="m68.554 170.684 2.96-7.475 4.961 1.965-.516 1.303-3.38-1.339-.578 1.46 1.215.482c.592.234 1.063.532 1.415.894.356.36.582.761.677 1.201.096.441.05.897-.136 1.369-.186.47-.468.838-.844 1.106-.375.265-.818.413-1.329.445-.508.032-1.058-.069-1.65-.303l-2.795-1.108Zm2.083-.644 1.216.482c.282.111.54.155.776.13a1.167 1.167 0 0 0 .982-.743 1.047 1.047 0 0 0-.041-.886c-.142-.296-.425-.527-.848-.695l-1.216-.482-.869 2.194Z" fill="url(#G)"/><path d="M84.274 171.629c-.229.846-.584 1.523-1.065 2.031a3.457 3.457 0 0 1-1.67 1.008c-.633.163-1.292.152-1.977-.032-.69-.187-1.266-.51-1.73-.972a3.466 3.466 0 0 1-.933-1.711c-.158-.68-.123-1.442.104-2.286.229-.847.582-1.524 1.061-2.032a3.44 3.44 0 0 1 1.666-1.006c.633-.165 1.295-.155 1.985.031.684.185 1.259.508 1.722.969.468.46.78 1.03.938 1.709.161.681.127 1.444-.101 2.291Zm-1.664-.449c.148-.549.19-1.033.128-1.454-.06-.42-.212-.767-.455-1.042a1.914 1.914 0 0 0-.96-.572 1.91 1.91 0 0 0-1.117.012c-.349.114-.656.338-.922.67-.263.333-.469.774-.617 1.322-.148.548-.191 1.033-.131 1.453.062.421.215.768.458 1.043.244.274.564.465.96.572.397.107.77.103 1.118-.012.348-.115.653-.338.917-.671.266-.333.473-.773.62-1.321Z" fill="url(#H)"/><path d="m85.672 169.29.216-1.385 6.525 1.017-.216 1.385-2.432-.379-1.022 6.56-1.66-.259 1.021-6.56-2.432-.379Z" fill="url(#I)"/><path d="m93.541 177.017-1.819-.093 3.181-7.889 2.188.112 2.36 8.171-1.82-.093-1.696-6.297-.063-.004-2.33 6.093Zm.047-3.162 4.298.219-.068 1.325-4.297-.219.067-1.325Z" fill="url(#J)"/><path d="m101.294 177.337-.447-8.028 5.409-.301.078 1.399-3.712.207.107 1.913 3.434-.191.077 1.399-3.433.191.106 1.917 3.728-.207.078 1.399-5.425.302Z" fill="url(#K)"/><path d="m107.511 168.912 2.064-.368 3.129 4.93.092-.017 1.232-5.707 2.064-.368 1.412 7.915-1.624.29-.919-5.152-.065.012-1.137 5.479-1.105.197-2.964-4.768-.066.012.922 5.171-1.623.29-1.412-7.916Z" fill="url(#L)"/><path d="m122.986 173.875-.411-1.154 1.805-3.457c.15-.304.271-.572.363-.805.095-.234.153-.45.173-.649a1.371 1.371 0 0 0-.077-.602 1.116 1.116 0 0 0-.356-.519 1.057 1.057 0 0 0-.547-.226c-.207-.027-.421 0-.643.079a1.341 1.341 0 0 0-.557.357 1.026 1.026 0 0 0-.255.545 1.39 1.39 0 0 0 .082.675l-1.52.542c-.176-.495-.218-.965-.123-1.41.094-.445.307-.839.641-1.183.333-.344.763-.61 1.29-.798.543-.194 1.049-.266 1.52-.217.472.046.88.197 1.225.455.345.258.595.605.751 1.041.102.286.146.589.131.908-.011.318-.099.698-.264 1.14-.165.44-.424.989-.775 1.648l-.719 1.478.018.052 3.18-1.135.467 1.309-5.399 1.926Z" fill="url(#M)"/><path d="m129.466 170.013-.578-1.207.743-6.22 1.041-.499.801 1.672-.616.295-.463 3.934.028.057 4.302-2.06.588 1.228-5.846 2.8Zm4.091-.392-.786-1.643-.228-.548-2.43-5.075 1.438-.688 3.472 7.252-1.466.702Z" fill="url(#N)"/><path d="m136.416 158.536 2.709 9.594-1.237.738-2.709-9.594 1.237-.738Z" fill="url(#O)"/><path d="m142.402 164.684-1.047-7.315-.031-.045-3.183 2.224-.796-1.139 4.624-3.232.807 1.155 1.065 7.347-1.439 1.005Z" fill="url(#P)"/><path d="M39.069 145.208a1.675 1.675 0 0 1-.334-.834 1.798 1.798 0 0 1 .127-.879 1.68 1.68 0 0 1 .556-.705 1.66 1.66 0 0 1 .834-.334c.303-.031.596.012.876.129.282.116.519.301.708.554.191.256.302.535.33.836a1.74 1.74 0 0 1-.125.874 1.64 1.64 0 0 1-.554.708c-.254.19-.533.3-.836.331a1.768 1.768 0 0 1-.877-.124 1.66 1.66 0 0 1-.705-.556Z" fill="url(#Q)"/><path d="M160.931 145.208c.19-.254.301-.532.334-.834a1.798 1.798 0 0 0-.127-.879 1.684 1.684 0 0 0-.556-.705 1.662 1.662 0 0 0-.834-.334 1.771 1.771 0 0 0-.876.129 1.656 1.656 0 0 0-.708.554 1.643 1.643 0 0 0-.331.836c-.033.302.009.594.126.874.114.281.298.517.554.708.254.19.533.3.836.331.302.033.595-.008.877-.124.279-.115.514-.3.705-.556Z" fill="url(#R)"/><path d="M103.145 74.32h-2.629v-2.626a.517.517 0 0 0-.88-.365.514.514 0 0 0-.152.365v2.625h-2.63a.516.516 0 1 0 0 1.03h2.63v2.62a.515.515 0 0 0 .881.364.517.517 0 0 0 .151-.364v-2.62h2.629a.517.517 0 0 0 .516-.515.513.513 0 0 0-.516-.515Z" fill="url(#S)"/><path d="M132.484 81.64h-16.273c-1.5 0-2.971.42-4.246 1.209a8.052 8.052 0 0 0-2.972 3.26 7.086 7.086 0 0 1-5.384 3.835c.088-1.904.073-.88.073-4.633a3.643 3.643 0 0 0-1.491-2.935 7.852 7.852 0 0 0 4.418-3.269 7.832 7.832 0 0 0-1.438-10.185 7.858 7.858 0 0 0-12.927 4.825 7.831 7.831 0 0 0 1.188 5.36 7.852 7.852 0 0 0 4.418 3.27 3.642 3.642 0 0 0-1.49 2.934c0 3.794 0 2.775.072 4.633a7.09 7.09 0 0 1-5.404-3.835 8.073 8.073 0 0 0-7.219-4.469H67.516a.516.516 0 0 0-.516.515 4.706 4.706 0 0 0 1.213 3.144 4.72 4.72 0 0 0 3.005 1.53 4.698 4.698 0 0 0 1.353 2.835 4.71 4.71 0 0 0 2.839 1.351 4.698 4.698 0 0 0 1.531 3.003 4.712 4.712 0 0 0 3.15 1.209h16.573l.242 5.364c-5.26.788-10.008 2.193-10.008 6.693 0 5.349 6.26 6.435 10.668 7.089l.196 4.119c-4.011.927-8.765 2.167-8.765 6.59 0 4.119 5.192 5.076 9.338 5.411l.04.896A1.61 1.61 0 0 0 99.99 133a1.616 1.616 0 0 0 1.614-1.611l.036-.716c2.816.149 3.176.149 3.434.149a.518.518 0 0 0 .512-.423.515.515 0 0 0-.332-.576s-1.547-.586-3.506-1.364l.263-5.663c3.981-1.03 7.925-2.744 7.925-7.151 0-3.774-3.609-5.061-7.301-5.766l.232-4.788c3.687-.417 7.435-.886 9.745-2.157a2.545 2.545 0 0 0 1.219-2.782 2.543 2.543 0 0 0-2.317-1.965c-1.892-.19-.217.67-8.394 1.617l.216-4.598h16.572a4.71 4.71 0 0 0 3.151-1.208 4.695 4.695 0 0 0 1.531-3.003 4.71 4.71 0 0 0 2.839-1.352 4.696 4.696 0 0 0 1.353-2.834A4.718 4.718 0 0 0 133 82.155a.513.513 0 0 0-.516-.515Zm-39.306-6.806a6.804 6.804 0 0 1 4.208-6.296 6.832 6.832 0 0 1 7.436 1.473 6.806 6.806 0 0 1-1.032 10.48 6.827 6.827 0 0 1-3.79 1.15 6.838 6.838 0 0 1-4.819-1.997 6.817 6.817 0 0 1-2.003-4.81Zm4.192 10.461a2.622 2.622 0 0 1 1.624-2.425 2.632 2.632 0 0 1 3.636 2.425c0 4.82-.114 5.453-1.032 24.398-1.216-.195-2.717-.422-3.263-.514-1.12-24.043-.965-19.698-.965-23.884Zm-.051 23.734c-4.64-.777-5.187-1.482-5.193-1.724.036-.078.475-.721 5.038-1.457l.155 3.181ZM80.092 94.197a3.68 3.68 0 0 1-3.61-3.156h10.942a.516.516 0 0 0 .364-.879.516.516 0 0 0-.364-.15H75.9a3.68 3.68 0 0 1-3.61-3.157h10.942a.516.516 0 0 0 .365-.879.516.516 0 0 0-.365-.15H71.708a3.685 3.685 0 0 1-3.64-3.156h15.72a7.037 7.037 0 0 1 6.317 3.887 8.123 8.123 0 0 0 6.358 4.417l.15 3.207-16.521.016Zm22.29 20.938a8.254 8.254 0 0 1 2.305.69c-.129.345-.665.865-2.403 1.462l.098-2.152Zm-1.639 12.871-1.511-.628-.614-12.871c.903.129 1.841.268 2.743.433l-.618 13.066Zm-2.579-1.081a23.002 23.002 0 0 1-3.815-1.931c.31-.216 1.19-.628 3.66-1.251l.155 3.182Zm1.238 4.366-.041-.778 1.247.067-.041.706a.584.584 0 0 1-1.15.02l-.015-.015Zm-9.364-6.24c0-3.331 3.331-4.489 7.786-5.54l.15 3.197c-1.455.366-5.301 1.267-4.734 2.575.567 1.307 7.497 3.866 8.735 4.36-4.192-.17-11.937-.406-11.937-4.592Zm18.877-9.416c0 3.603-3.207 5.091-6.842 6.075l.16-3.321c1.706-.515 3.521-1.339 3.521-2.754 0-1.272-5.388-1.916-6.8-2.116-4.76-.68-11.014-1.478-11.014-6.25 0-3.687 4.269-4.922 9.028-5.664l.15 3.187c-5.265.839-6.018 1.673-6.018 2.456 0 1.544 2.671 2.26 6.703 2.883 4.693.695 11.112 1.215 11.112 5.504Zm1.47-16.207a1.698 1.698 0 0 1 2.449 1.029 1.427 1.427 0 0 1-.717 1.596c-2.104 1.159-5.672 1.612-9.199 2.018l.176-3.207c2.923-.34 6.002-.783 7.291-1.436Zm17.907-13.576h-11.524a.513.513 0 0 0-.516.514.514.514 0 0 0 .516.515h10.967a3.671 3.671 0 0 1-3.635 3.156h-11.524a.517.517 0 0 0-.516.515.517.517 0 0 0 .516.515h10.967a3.68 3.68 0 0 1-3.609 3.156h-16.5l.15-3.208a8.123 8.123 0 0 0 6.306-4.458 7.046 7.046 0 0 1 6.321-3.903h15.722a3.684 3.684 0 0 1-3.641 3.171v.026Z" fill="url(#T)"/><path d="M109.936 115.645c0-3.774-3.609-5.061-7.301-5.766l.232-4.788c3.571-.404 7.201-.856 9.525-2.04l.22-.117a2.545 2.545 0 0 0 1.219-2.782 2.538 2.538 0 0 0-.682-1.227l-.15-.138a2.554 2.554 0 0 0-1.485-.6c-1.892-.19-.217.67-8.394 1.617l.216-4.598h16.572l.218-.005a4.713 4.713 0 0 0 2.768-1.061l.165-.142a4.695 4.695 0 0 0 1.531-3.003 4.712 4.712 0 0 0 2.693-1.212l.146-.14a4.696 4.696 0 0 0 1.353-2.834A4.718 4.718 0 0 0 133 82.155a.516.516 0 0 0-.087-.286l-.064-.078a.519.519 0 0 0-.264-.14l-.101-.01v-.4a.917.917 0 0 1 .916.914v.002a5.106 5.106 0 0 1-4.264 5.005 5.1 5.1 0 0 1-4.193 4.187 5.092 5.092 0 0 1-1.617 2.946 5.11 5.11 0 0 1-3.418 1.311h-16.19l-.177 3.742c3.731-.452 5.229-.873 5.994-1.155.201-.073.354-.138.493-.197.137-.057.271-.113.414-.154.306-.089.614-.103 1.112-.053a2.947 2.947 0 0 1 2.667 2.273 2.946 2.946 0 0 1-1.41 3.219l-.006.003c-1.21.666-2.773 1.111-4.473 1.442-1.6.311-3.35.525-5.082.722l-.199 4.107c1.743.351 3.491.851 4.836 1.72 1.456.942 2.449 2.323 2.449 4.37 0 2.348-1.061 3.991-2.63 5.163-1.475 1.101-3.401 1.787-5.31 2.297l-.236 5.085c.871.345 1.646.648 2.22.87l.745.286.201.077.053.019.011.005a.91.91 0 0 1 .589 1.023.917.917 0 0 1-.905.752c-.256 0-.604-.001-3.055-.129l-.016.316a2.012 2.012 0 0 1-3.438 1.403 2.013 2.013 0 0 1-.58-1.224l-.01-.199-.025-.53c-1.992-.176-4.224-.508-6-1.287-1.894-.83-3.353-2.21-3.353-4.49 0-2.395 1.305-3.925 3.078-4.952 1.655-.959 3.758-1.505 5.67-1.951l-.163-3.46c-2.136-.322-4.704-.769-6.777-1.77-1.094-.529-2.073-1.221-2.779-2.151-.71-.936-1.128-2.092-1.128-3.514 0-2.432 1.302-4.026 3.24-5.089 1.825-1.001 4.245-1.553 6.752-1.944l-.208-4.624h-16.19a5.112 5.112 0 0 1-3.418-1.312 5.096 5.096 0 0 1-1.618-2.946 5.097 5.097 0 0 1-4.192-4.187 5.108 5.108 0 0 1-4.258-4.791l-.006-.236a.915.915 0 0 1 .916-.915v.4l-.101.01a.516.516 0 0 0-.264.14l-.064.08a.514.514 0 0 0-.087.285 4.706 4.706 0 0 0 1.213 3.144 4.72 4.72 0 0 0 3.005 1.53 4.698 4.698 0 0 0 1.353 2.835 4.71 4.71 0 0 0 2.839 1.351 4.698 4.698 0 0 0 1.531 3.003 4.712 4.712 0 0 0 2.933 1.204l.218.005h16.572l.242 5.364c-5.26.788-10.008 2.193-10.008 6.693l.004.247c.19 5.136 6.324 6.199 10.664 6.842l.196 4.119c-4.011.927-8.765 2.167-8.765 6.59l.003.19c.158 3.958 5.254 4.891 9.335 5.221l.04.896.009.159a1.609 1.609 0 0 0 1.446 1.444l.16.008c.374 0 .735-.13 1.023-.365l.118-.107a1.61 1.61 0 0 0 .465-.98l.008-.159.036-.716c2.816.149 3.176.149 3.434.149a.518.518 0 0 0 .259-.067l.074-.051a.52.52 0 0 0 .155-.218l.024-.087a.51.51 0 0 0-.023-.266l-.038-.082a.511.511 0 0 0-.271-.228c-.026-.01-1.564-.593-3.506-1.364l.263-5.663c3.856-.998 7.679-2.638 7.914-6.746l.011-.405Zm-9.328 14.935-.041.706a.584.584 0 0 1-.191.352l-.083.061a.587.587 0 0 1-.292.085l-.007-.4a.18.18 0 0 0 .175-.154l.017-.272-.403-.021.012.213.016.084a.184.184 0 0 0 .184.15l.006.4a.582.582 0 0 1-.295-.074l-.085-.058a.585.585 0 0 1-.177-.247l-.027-.099-.015-.015-.041-.778 1.247.067Zm-2.634-7.872c-1.455.366-5.301 1.267-4.734 2.575.567 1.307 7.497 3.866 8.735 4.36-4.192-.17-11.937-.406-11.937-4.592 0-3.331 3.331-4.489 7.786-5.54l.15 3.197Zm.644-8.201c.903.129 1.841.268 2.743.433l-.618 13.066-1.511-.628-.614-12.871Zm1 12.598.751.312.575-12.145a70.1 70.1 0 0 0-1.904-.298l.578 12.131Zm-1.454-.18a23.002 23.002 0 0 1-3.815-1.931c.31-.216 1.19-.628 3.66-1.251l.155 3.182Zm-.53-2.67c-1.238.325-1.999.581-2.461.77.825.484 1.68.914 2.56 1.289l-.1-2.059ZM90.7 107.248c0-.269.068-.557.281-.838.205-.27.525-.508.979-.728.862-.419 2.317-.824 4.741-1.226l-.112-2.384c-2.207.362-4.235.837-5.736 1.616-1.581.82-2.513 1.938-2.513 3.581 0 1.095.355 1.947.952 2.63.605.693 1.474 1.232 2.52 1.66 2.103.858 4.801 1.222 7.198 1.564l1.663.236c.71.11 1.527.251 2.299.426.769.174 1.52.388 2.086.648.281.129.541.28.735.461.194.181.361.429.361.741 0 .903-.584 1.568-1.298 2.047-.643.431-1.454.754-2.238 1.005l-.119 2.487c1.598-.463 3.043-1.031 4.117-1.839 1.172-.882 1.9-2.043 1.9-3.7 0-.958-.354-1.694-.957-2.286-.615-.604-1.501-1.069-2.57-1.436-2.146-.737-4.87-1.035-7.244-1.387h-.003c-2.015-.311-3.73-.651-4.945-1.118-.608-.233-1.123-.51-1.49-.854-.377-.354-.607-.788-.607-1.306Zm11.682 7.887a8.254 8.254 0 0 1 2.305.69c-.129.345-.665.865-2.403 1.462l.098-2.152Zm.329 1.568c.536-.212.905-.405 1.154-.573.074-.05.135-.098.187-.141a7.965 7.965 0 0 0-1.291-.381l-.05 1.095Zm-.482-31.407a2.222 2.222 0 0 0-1.375-2.057 2.238 2.238 0 0 0-1.707 0 2.23 2.23 0 0 0-1.377 2.057c0 4.154-.154-.146.949 23.538.588.094 1.577.248 2.502.395.898-18.52 1.008-19.165 1.008-23.933Zm-4.91 23.733c-4.64-.777-5.187-1.482-5.193-1.724.036-.078.475-.721 5.038-1.457l.155 3.181Zm-.533-2.713c-1.989.339-3.091.649-3.695.88a3.913 3.913 0 0 0-.397.175c.098.062.241.14.447.227.624.264 1.753.595 3.753.95l-.108-2.232Zm14.518-7.093a1.694 1.694 0 0 1 1.53 1.234 1.427 1.427 0 0 1-.717 1.596l-.411.21c-2.138 1.005-5.481 1.427-8.788 1.808l.176-3.207c2.74-.318 5.617-.728 7.028-1.316l.263-.12c.224-.123.473-.194.728-.207l.191.002Zm-.17.398a1.3 1.3 0 0 0-.557.157l-.012.006c-.702.356-1.846.639-3.141.873-1.21.219-2.592.403-3.949.564l-.132 2.397c1.605-.187 3.194-.388 4.633-.667 1.583-.306 2.952-.699 3.948-1.248l.005-.003a1.03 1.03 0 0 0 .517-1.138 1.278 1.278 0 0 0-.743-.841 1.296 1.296 0 0 0-.569-.1Zm5.077-16.967h15.722a3.675 3.675 0 0 1-1.227 2.266l-.259.206a3.685 3.685 0 0 1-2.155.7v.026h-11.524l.001-.4h11.124v-.025l.399-.001a3.279 3.279 0 0 0 3.145-2.371h-15.226a6.645 6.645 0 0 0-5.963 3.68h-.001a8.51 8.51 0 0 1-6.279 4.63l-.114 2.457h16.077a3.27 3.27 0 0 0 3.115-2.355h-10.47a.915.915 0 1 1 0-1.83v.4l-.101.01a.522.522 0 0 0-.264.14l-.064.08a.514.514 0 0 0-.087.285l.01.1a.52.52 0 0 0 .405.405l.101.01h10.967a3.68 3.68 0 0 1-3.609 3.156h-16.5l.15-3.208a8.123 8.123 0 0 0 6.306-4.458 7.04 7.04 0 0 1 2.396-2.718l.207-.133a7.058 7.058 0 0 1 3.718-1.052Zm-32.422.016a7.037 7.037 0 0 1 6.316 3.887 8.123 8.123 0 0 0 6.358 4.417l.15 3.207-16.521.016-.328-.017a3.681 3.681 0 0 1-1.807-.687l-.257-.205a3.67 3.67 0 0 1-1.218-2.247h10.942l.101-.01a.516.516 0 0 0 .185-.077l.079-.064a.514.514 0 0 0 .14-.263l.01-.1a.515.515 0 0 0-.414-.505l-.101-.01v-.4a.916.916 0 0 1 .916.914.915.915 0 0 1-.916.915H76.98a3.265 3.265 0 0 0 3.114 2.355l16.1-.015-.116-2.456a8.523 8.523 0 0 1-6.33-4.588v-.002a6.621 6.621 0 0 0-5.958-3.666H68.565a3.273 3.273 0 0 0 3.143 2.357v.4l-.331-.015a3.686 3.686 0 0 1-1.82-.68l-.259-.206a3.675 3.675 0 0 1-1.23-2.255h15.72Zm32.064 3.696a.914.914 0 0 1 .916-.915l-.001.4-.101.01a.513.513 0 0 0-.415.505l.011.1a.513.513 0 0 0 .404.404l.101.011h10.967a3.671 3.671 0 0 1-1.227 2.255l-.259.206a3.68 3.68 0 0 1-1.818.68l-.331.015h-11.524v-.4H124.1a3.262 3.262 0 0 0 3.137-2.356h-10.468a.918.918 0 0 1-.916-.915Zm-32.105-.025a.515.515 0 0 0-.087-.286l-.064-.079a.516.516 0 0 0-.264-.14l-.101-.01v-.4a.917.917 0 0 1 .915.915.914.914 0 0 1-.916.915H72.788a3.267 3.267 0 0 0 3.115 2.355h11.52v.4H75.9l-.329-.017a3.68 3.68 0 0 1-1.805-.686l-.258-.206a3.67 3.67 0 0 1-1.218-2.247h10.942l.101-.01a.519.519 0 0 0 .185-.076l.079-.064a.514.514 0 0 0 .14-.264l.01-.1Zm32.463-4.7c-1.5 0-2.971.418-4.246 1.208a8.052 8.052 0 0 0-2.972 3.26 7.086 7.086 0 0 1-2.216 2.583l-.359.24a7.088 7.088 0 0 1-2.809 1.012c.044-.952.063-1.172.07-1.624l.003-3.01a3.655 3.655 0 0 0-.303-1.45l-.091-.194a3.643 3.643 0 0 0-1.097-1.29 7.85 7.85 0 0 0 4.219-2.977l.199-.292a7.826 7.826 0 0 0 1.229-5.01l-.041-.35a7.842 7.842 0 0 0-2.363-4.587l-.263-.238a7.858 7.858 0 0 0-10.301 0l-.263.238a7.831 7.831 0 0 0-1.175 9.947 7.852 7.852 0 0 0 4.418 3.27c-.462.337-.837.78-1.096 1.289l-.092.193c-.2.458-.302.952-.302 1.452 0 3.794 0 2.775.072 4.633a7.093 7.093 0 0 1-2.819-1.008l-.36-.24a7.078 7.078 0 0 1-2.019-2.208l-.206-.38a8.056 8.056 0 0 0-6.938-4.463l-.28-.005v-.4a8.47 8.47 0 0 1 4.457 1.269 8.456 8.456 0 0 1 3.118 3.42 6.679 6.679 0 0 0 4.627 3.538c-.052-1.213-.052-.748-.052-4.156a4.036 4.036 0 0 1 1.107-2.776 8.25 8.25 0 0 1-3.97-3.21 8.232 8.232 0 0 1 1.51-10.705 8.262 8.262 0 0 1 10.827 0 8.235 8.235 0 0 1-2.461 13.915 4.038 4.038 0 0 1 1.109 2.775c0 3.376.012 2.895-.05 4.154a6.678 6.678 0 0 0 4.603-3.535 8.474 8.474 0 0 1 7.576-4.689v.4Zm-32.98 3.785v.4H71.709v-.4h11.523Zm49.253-4.186v.4h-16.273v-.4h16.273Zm-48.674 0v.4H67.515v-.4H83.81Zm13.576-12.702a6.832 6.832 0 0 1 7.436 1.473 6.806 6.806 0 0 1 1.481 7.423l-.101.231a6.812 6.812 0 0 1-2.412 2.827l-.212.136A6.829 6.829 0 0 1 100 81.64l-.338-.01a6.837 6.837 0 0 1-4.48-1.986 6.817 6.817 0 0 1-2.004-4.81 6.803 6.803 0 0 1 1.011-3.573l.136-.212a6.82 6.82 0 0 1 3.06-2.511Zm3.864.002a6.433 6.433 0 0 0-6.592 2.73 6.406 6.406 0 0 0-1.08 3.564 6.416 6.416 0 0 0 1.886 4.526A6.437 6.437 0 0 0 100 81.24a6.428 6.428 0 0 0 5.934-3.959 6.41 6.41 0 0 0-4.684-8.741Zm-2.166 9.43v-2.221h-2.23a.916.916 0 0 1-.647-1.563.917.917 0 0 1 .648-.267v.4l-.101.01a.516.516 0 0 0-.264.141l-.064.079a.514.514 0 0 0 .429.8h2.63v2.62l.01.101a.516.516 0 0 0 .404.405l.101.01a.517.517 0 0 0 .506-.415l.01-.1v-2.621h2.629l.101-.01a.527.527 0 0 0 .186-.076l.078-.065a.506.506 0 0 0 .141-.263l.01-.101a.513.513 0 0 0-.415-.505l-.101-.01.001-.4a.918.918 0 0 1 .915.915.914.914 0 0 1-.915.915h-2.23v2.22a.913.913 0 0 1-.916.915.917.917 0 0 1-.916-.914Zm1.432-6.276a.517.517 0 0 0-.415-.505l-.101-.01a.516.516 0 0 0-.365.15l-.064.08a.514.514 0 0 0-.087.284v2.626h-2.63v-.4h2.23v-2.226a.915.915 0 0 1 1.563-.646.913.913 0 0 1 .269.646v2.226h2.23l-.001.4h-2.629v-2.626ZM90.438 125.05c0 .9.408 1.591 1.12 2.143.728.564 1.765.975 2.972 1.271 1.582.388 3.391.563 5.043.663a76.3 76.3 0 0 1-2.379-.994c-.983-.435-1.956-.899-2.723-1.341a8.298 8.298 0 0 1-.993-.655c-.255-.204-.493-.438-.605-.697a1.019 1.019 0 0 1-.028-.764 1.5 1.5 0 0 1 .423-.594c.357-.322.884-.59 1.431-.812.958-.387 2.104-.683 2.86-.872l-.112-2.385c-2.027.492-3.745 1.01-4.98 1.755-.659.396-1.162.847-1.502 1.376-.338.524-.526 1.144-.526 1.906Zm.67-17.66c.161 1.446 2.79 2.137 6.695 2.74 4.693.695 11.112 1.215 11.112 5.504l-.009.332c-.192 3.364-3.312 4.79-6.833 5.743l.16-3.321c1.653-.499 3.408-1.287 3.516-2.623l.005-.131c0-1.272-5.388-1.916-6.8-2.116-4.76-.68-11.014-1.478-11.014-6.25 0-3.687 4.269-4.922 9.028-5.664l.15 3.187c-5.265.839-6.018 1.673-6.018 2.456l.008.143Zm11.515-20.44c-.034 3.608-.221 6.165-1.025 22.742-1.216-.195-2.717-.422-3.263-.514-.84-18.032-.963-20.096-.972-21.767l.007-2.117c0-.258.038-.515.113-.762l.087-.242c.1-.24.233-.462.397-.661l.174-.191a2.63 2.63 0 0 1 .619-.46l.234-.11c.319-.131.66-.2 1.006-.2l.258.014a2.626 2.626 0 0 1 2.372 2.612l-.007 1.655Z" fill="url(#U)"/><defs><linearGradient id="a" x1="57.627" y1="7.91" x2="219.209" y2="200" gradientUnits="userSpaceOnUse"><stop stop-color="#FFF7EA"/><stop offset=".255" stop-color="#FDE5C0"/><stop offset=".62" stop-color="#FEEACB"/><stop offset="1" stop-color="#F3DFBE"/></linearGradient><linearGradient id="b" x1="99.963" y1="22.008" x2="99.963" y2="177.337" gradientUnits="userSpaceOnUse"><stop stop-color="#C48926"/><stop offset="1" stop-color="#5E4212"/></linearGradient><linearGradient id="c" x1="99.963" y1="22.008" x2="99.963" y2="177.337" gradientUnits="userSpaceOnUse"><stop stop-color="#C48926"/><stop offset="1" stop-color="#5E4212"/></linearGradient><linearGradient id="d" x1="99.963" y1="22.008" x2="99.963" y2="177.337" gradientUnits="userSpaceOnUse"><stop stop-color="#C48926"/><stop offset="1" stop-color="#5E4212"/></linearGradient><linearGradient id="e" x1="99.963" y1="22.008" x2="99.963" y2="177.337" gradientUnits="userSpaceOnUse"><stop stop-color="#C48926"/><stop offset="1" stop-color="#5E4212"/></linearGradient><linearGradient id="f" x1="99.963" y1="22.008" x2="99.963" y2="177.337" gradientUnits="userSpaceOnUse"><stop stop-color="#C48926"/><stop offset="1" stop-color="#5E4212"/></linearGradient><linearGradient id="g" x1="99.963" y1="22.008" x2="99.963" y2="177.337" gradientUnits="userSpaceOnUse"><stop stop-color="#C48926"/><stop offset="1" stop-color="#5E4212"/></linearGradient><linearGradient id="h" x1="99.963" y1="22.008" x2="99.963" y2="177.337" gradientUnits="userSpaceOnUse"><stop stop-color="#C48926"/><stop offset="1" stop-color="#5E4212"/></linearGradient><linearGradient id="i" x1="99.963" y1="22.008" x2="99.963" y2="177.337" gradientUnits="userSpaceOnUse"><stop stop-color="#C48926"/><stop offset="1" stop-color="#5E4212"/></linearGradient><linearGradient id="j" x1="99.963" y1="22.008" x2="99.963" y2="177.337" gradientUnits="userSpaceOnUse"><stop stop-color="#C48926"/><stop offset="1" stop-color="#5E4212"/></linearGradient><linearGradient id="k" x1="99.963" y1="22.008" x2="99.963" y2="177.337" gradientUnits="userSpaceOnUse"><stop stop-color="#C48926"/><stop offset="1" stop-color="#5E4212"/></linearGradient><linearGradient id="l" x1="99.963" y1="22.008" x2="99.963" y2="177.337" gradientUnits="userSpaceOnUse"><stop stop-color="#C48926"/><stop offset="1" stop-color="#5E4212"/></linearGradient><linearGradient id="m" x1="99.963" y1="22.008" x2="99.963" y2="177.337" gradientUnits="userSpaceOnUse"><stop stop-color="#C48926"/><stop offset="1" stop-color="#5E4212"/></linearGradient><linearGradient id="n" x1="99.963" y1="22.008" x2="99.963" y2="177.337" gradientUnits="userSpaceOnUse"><stop stop-color="#C48926"/><stop offset="1" stop-color="#5E4212"/></linearGradient><linearGradient id="o" x1="99.963" y1="22.008" x2="99.963" y2="177.337" gradientUnits="userSpaceOnUse"><stop stop-color="#C48926"/><stop offset="1" stop-color="#5E4212"/></linearGradient><linearGradient id="p" x1="99.963" y1="22.008" x2="99.963" y2="177.337" gradientUnits="userSpaceOnUse"><stop stop-color="#C48926"/><stop offset="1" stop-color="#5E4212"/></linearGradient><linearGradient id="q" x1="99.963" y1="22.008" x2="99.963" y2="177.337" gradientUnits="userSpaceOnUse"><stop stop-color="#C48926"/><stop offset="1" stop-color="#5E4212"/></linearGradient><linearGradient id="r" x1="99.963" y1="22.008" x2="99.963" y2="177.337" gradientUnits="userSpaceOnUse"><stop stop-color="#C48926"/><stop offset="1" stop-color="#5E4212"/></linearGradient><linearGradient id="s" x1="99.963" y1="22.008" x2="99.963" y2="177.337" gradientUnits="userSpaceOnUse"><stop stop-color="#C48926"/><stop offset="1" stop-color="#5E4212"/></linearGradient><linearGradient id="t" x1="99.963" y1="22.008" x2="99.963" y2="177.337" gradientUnits="userSpaceOnUse"><stop stop-color="#C48926"/><stop offset="1" stop-color="#5E4212"/></linearGradient><linearGradient id="u" x1="99.963" y1="22.008" x2="99.963" y2="177.337" gradientUnits="userSpaceOnUse"><stop stop-color="#C48926"/><stop offset="1" stop-color="#5E4212"/></linearGradient><linearGradient id="v" x1="99.963" y1="22.008" x2="99.963" y2="177.337" gradientUnits="userSpaceOnUse"><stop stop-color="#C48926"/><stop offset="1" stop-color="#5E4212"/></linearGradient><linearGradient id="w" x1="99.963" y1="22.008" x2="99.963" y2="177.337" gradientUnits="userSpaceOnUse"><stop stop-color="#C48926"/><stop offset="1" stop-color="#5E4212"/></linearGradient><linearGradient id="x" x1="99.963" y1="22.008" x2="99.963" y2="177.337" gradientUnits="userSpaceOnUse"><stop stop-color="#C48926"/><stop offset="1" stop-color="#5E4212"/></linearGradient><linearGradient id="y" x1="99.963" y1="22.008" x2="99.963" y2="177.337" gradientUnits="userSpaceOnUse"><stop stop-color="#C48926"/><stop offset="1" stop-color="#5E4212"/></linearGradient><linearGradient id="z" x1="99.963" y1="22.008" x2="99.963" y2="177.337" gradientUnits="userSpaceOnUse"><stop stop-color="#C48926"/><stop offset="1" stop-color="#5E4212"/></linearGradient><linearGradient id="A" x1="99.963" y1="22.008" x2="99.963" y2="177.337" gradientUnits="userSpaceOnUse"><stop stop-color="#C48926"/><stop offset="1" stop-color="#5E4212"/></linearGradient><linearGradient id="B" x1="99.963" y1="22.008" x2="99.963" y2="177.337" gradientUnits="userSpaceOnUse"><stop stop-color="#C48926"/><stop offset="1" stop-color="#5E4212"/></linearGradient><linearGradient id="C" x1="99.963" y1="22.008" x2="99.963" y2="177.337" gradientUnits="userSpaceOnUse"><stop stop-color="#C48926"/><stop offset="1" stop-color="#5E4212"/></linearGradient><linearGradient id="D" x1="99.963" y1="22.008" x2="99.963" y2="177.337" gradientUnits="userSpaceOnUse"><stop stop-color="#C48926"/><stop offset="1" stop-color="#5E4212"/></linearGradient><linearGradient id="E" x1="99.963" y1="22.008" x2="99.963" y2="177.337" gradientUnits="userSpaceOnUse"><stop stop-color="#C48926"/><stop offset="1" stop-color="#5E4212"/></linearGradient><linearGradient id="F" x1="99.963" y1="22.008" x2="99.963" y2="177.337" gradientUnits="userSpaceOnUse"><stop stop-color="#C48926"/><stop offset="1" stop-color="#5E4212"/></linearGradient><linearGradient id="G" x1="99.963" y1="22.008" x2="99.963" y2="177.337" gradientUnits="userSpaceOnUse"><stop stop-color="#C48926"/><stop offset="1" stop-color="#5E4212"/></linearGradient><linearGradient id="H" x1="99.963" y1="22.008" x2="99.963" y2="177.337" gradientUnits="userSpaceOnUse"><stop stop-color="#C48926"/><stop offset="1" stop-color="#5E4212"/></linearGradient><linearGradient id="I" x1="99.963" y1="22.008" x2="99.963" y2="177.337" gradientUnits="userSpaceOnUse"><stop stop-color="#C48926"/><stop offset="1" stop-color="#5E4212"/></linearGradient><linearGradient id="J" x1="99.963" y1="22.008" x2="99.963" y2="177.337" gradientUnits="userSpaceOnUse"><stop stop-color="#C48926"/><stop offset="1" stop-color="#5E4212"/></linearGradient><linearGradient id="K" x1="99.963" y1="22.008" x2="99.963" y2="177.337" gradientUnits="userSpaceOnUse"><stop stop-color="#C48926"/><stop offset="1" stop-color="#5E4212"/></linearGradient><linearGradient id="L" x1="99.963" y1="22.008" x2="99.963" y2="177.337" gradientUnits="userSpaceOnUse"><stop stop-color="#C48926"/><stop offset="1" stop-color="#5E4212"/></linearGradient><linearGradient id="M" x1="99.963" y1="22.008" x2="99.963" y2="177.337" gradientUnits="userSpaceOnUse"><stop stop-color="#C48926"/><stop offset="1" stop-color="#5E4212"/></linearGradient><linearGradient id="N" x1="99.963" y1="22.008" x2="99.963" y2="177.337" gradientUnits="userSpaceOnUse"><stop stop-color="#C48926"/><stop offset="1" stop-color="#5E4212"/></linearGradient><linearGradient id="O" x1="99.963" y1="22.008" x2="99.963" y2="177.337" gradientUnits="userSpaceOnUse"><stop stop-color="#C48926"/><stop offset="1" stop-color="#5E4212"/></linearGradient><linearGradient id="P" x1="99.963" y1="22.008" x2="99.963" y2="177.337" gradientUnits="userSpaceOnUse"><stop stop-color="#C48926"/><stop offset="1" stop-color="#5E4212"/></linearGradient><linearGradient id="Q" x1="99.963" y1="22.008" x2="99.963" y2="177.337" gradientUnits="userSpaceOnUse"><stop stop-color="#C48926"/><stop offset="1" stop-color="#5E4212"/></linearGradient><linearGradient id="R" x1="100" y1="22.609" x2="100" y2="177.391" gradientUnits="userSpaceOnUse"><stop stop-color="#C48926"/><stop offset="1" stop-color="#5E4212"/></linearGradient><linearGradient id="S" x1="100" y1="66.6" x2="100" y2="133.4" gradientUnits="userSpaceOnUse"><stop stop-color="#C48926"/><stop offset="1" stop-color="#A17731"/></linearGradient><linearGradient id="T" x1="100" y1="66.6" x2="100" y2="133.4" gradientUnits="userSpaceOnUse"><stop stop-color="#C48926"/><stop offset="1" stop-color="#A17731"/></linearGradient><linearGradient id="U" x1="100" y1="66.6" x2="100" y2="133.4" gradientUnits="userSpaceOnUse"><stop stop-color="#C48926"/><stop offset="1" stop-color="#A17731"/></linearGradient></defs></svg>