<svg width="32" height="32" fill="none" xmlns="http://www.w3.org/2000/svg"><path d="M28 28a1.333 1.333 0 0 1 0 2.667H4A1.333 1.333 0 0 1 4 28h24ZM6.667 24v-9.333a1.333 1.333 0 1 1 2.666 0V24a1.333 1.333 0 1 1-2.666 0ZM12 24v-9.333a1.333 1.333 0 1 1 2.667 0V24A1.333 1.333 0 1 1 12 24Zm5.333 0v-9.333a1.333 1.333 0 1 1 2.667 0V24a1.333 1.333 0 0 1-2.667 0Zm5.334 0v-9.333a1.333 1.333 0 0 1 2.666 0V24a1.333 1.333 0 1 1-2.666 0ZM15.293 1.537c.432-.27.982-.27 1.414 0l10.667 6.666a1.333 1.333 0 0 1-.707 2.464H5.333a1.333 1.333 0 0 1-.707-2.464l10.667-6.666ZM9.982 8h12.036L16 4.238 9.982 8Z" fill="#fff"/></svg>