<svg width="40" height="40" fill="none" xmlns="http://www.w3.org/2000/svg"><path d="M2.5 23.3c0-5.28 3.468-10.24 6.589-13.684a48.44 48.44 0 0 1 5.836-5.432c.177-.138.317-.245.415-.319l.114-.086.031-.023.01-.006.003-.003a1.668 1.668 0 0 1 1.965 0l.003.001.005.003.018.014.06.043.216.165c.186.142.452.35.78.615a49.18 49.18 0 0 1 2.593 2.258 1.667 1.667 0 0 1-2.276 2.436 45.869 45.869 0 0 0-2.38-2.075 45.134 45.134 0 0 0-4.922 4.647C8.522 15.205 5.832 19.35 5.832 23.3c0 4.128 1.541 6.535 3.496 7.967 2.04 1.493 4.73 2.065 7.152 2.065 3.971 0 8.42-1.485 10.007-5.93a1.668 1.668 0 0 1 3.14 1.12c-2.295 6.43-8.622 8.143-13.147 8.143-2.856 0-6.323-.66-9.121-2.71-2.882-2.11-4.86-5.554-4.86-10.655Zm5.278.264a1.667 1.667 0 0 1 3.334 0c0 1.63.561 2.435 1.14 2.881.654.504 1.572.73 2.47.731a1.667 1.667 0 1 1 0 3.333c-1.364 0-3.084-.33-4.504-1.424-1.494-1.151-2.44-2.986-2.44-5.52Zm26.389-6.881c0-2.067-1.39-4.344-3.103-6.29a25.42 25.42 0 0 0-2.267-2.257c-.265.234-.57.51-.897.824-1.1 1.061-2.391 2.496-3.308 4.07-.736 1.263-1.166 2.505-1.166 3.653 0 2.247.802 3.45 1.724 4.145 1 .754 2.364 1.07 3.646 1.07s2.646-.316 3.647-1.07c.922-.694 1.724-1.898 1.724-4.145Zm3.333 0c0 3.182-1.209 5.42-3.052 6.808-1.764 1.33-3.919 1.74-5.652 1.74-1.734 0-3.888-.411-5.651-1.74-1.843-1.389-3.052-3.626-3.052-6.808 0-1.95.716-3.782 1.618-5.33 1.133-1.947 2.665-3.623 3.875-4.79a29.176 29.176 0 0 1 2.02-1.776l.133-.105.04-.029.01-.01.004-.001.003-.003a1.667 1.667 0 0 1 2 0l-1 1.333 1.002-1.332.002.002.006.005.021.016c.017.013.041.03.07.054a26.108 26.108 0 0 1 1.099.913 28.792 28.792 0 0 1 2.57 2.56c1.805 2.051 3.934 5.13 3.934 8.493Z" fill="#CF9766"/></svg>