<svg width="24" height="24" fill="none" xmlns="http://www.w3.org/2000/svg"><g clip-path="url(#a)" fill="#71C011"><path d="M3.67 2.832a.855.855 0 0 0-.854.859V16.57c0 .472.385.858.86.859 1.998.005 5.348.421 7.658 2.839V6.79c0-.16-.04-.31-.118-.435C9.319 3.3 5.675 2.837 3.671 2.832ZM21.184 16.57V3.69a.855.855 0 0 0-.854-.859h-.002c-2.003.005-5.648.469-7.544 3.523a.823.823 0 0 0-.118.435v13.477c2.31-2.418 5.66-2.835 7.659-2.84a.862.862 0 0 0 .86-.858Z"/><path d="M23.142 5.802h-.623V16.57a2.197 2.197 0 0 1-2.19 2.192c-1.696.004-4.492.336-6.472 2.21 3.425-.839 7.035-.294 9.092.175A.857.857 0 0 0 24 20.31V6.661a.86.86 0 0 0-.858-.859ZM1.481 16.57V5.801H.86a.86.86 0 0 0-.86.86v13.648a.857.857 0 0 0 1.05.837c2.058-.47 5.668-1.014 9.093-.176-1.98-1.873-4.776-2.205-6.472-2.209a2.197 2.197 0 0 1-2.19-2.192Z"/></g><defs><clipPath id="a"><path fill="#fff" d="M0 0h24v24H0z"/></clipPath></defs></svg>