<svg width="80" height="80" fill="none" xmlns="http://www.w3.org/2000/svg"><rect width="80" height="80" rx="40" fill="#CF9766"/><path d="M45.169 43.985a2.526 2.526 0 0 0-3.085 1.411 5.253 5.253 0 0 0-.083.207 14.437 14.437 0 0 1-4.244-2.809l-.006-.005a12.639 12.639 0 0 1-.543-.543l-.003-.004a14.453 14.453 0 0 1-2.808-4.244c.07-.026.139-.054.208-.083 1.186-.499 1.805-1.854 1.41-3.085C33.184 26 33.109 26 32.199 26A6.206 6.206 0 0 0 26 32.199C26 44.22 35.78 54 47.801 54A6.206 6.206 0 0 0 54 47.801c0-.91 0-.985-8.831-3.816Z" fill="#fff"/><path d="M39.48 38.89c-.12.46.01.95.34 1.29.34.33.83.46 1.29.34l1.74-.47c1.13.63 2.38.94 3.63.94 1.95 0 3.88-.75 5.32-2.19a7.41 7.41 0 0 0 2.2-5.3c0-2-.78-3.88-2.2-5.3-2.89-2.89-7.61-2.92-10.54-.06-2.42 2.36-2.94 6.09-1.31 9.01l-.47 1.74Zm9.02-6.62c.55 0 1 .45 1 1s-.45 1-1 1h-1v1c0 .55-.45 1-1 1s-1-.45-1-1v-1h-1c-.55 0-1-.45-1-1s.45-1 1-1h1v-1c0-.55.45-1 1-1s1 .45 1 1v1h1Z" fill="#fff"/></svg>