<svg width="32" height="32" fill="none" xmlns="http://www.w3.org/2000/svg"><path fill-rule="evenodd" clip-rule="evenodd" d="M2.667 10.666A5.333 5.333 0 0 1 8 5.333h16a5.333 5.333 0 0 1 5.333 5.333v10.667A5.333 5.333 0 0 1 24 26.666H8a5.333 5.333 0 0 1-5.333-5.333V10.666ZM8 8a2.667 2.667 0 0 0-2.667 2.666v10.667A2.667 2.667 0 0 0 8 24h16a2.667 2.667 0 0 0 2.667-2.667V10.666A2.667 2.667 0 0 0 24 8H8Z" fill="#fff"/><path fill-rule="evenodd" clip-rule="evenodd" d="M28 14.667H4V12h24v2.667ZM17.333 20c0-.736.597-1.333 1.334-1.333h4a1.333 1.333 0 1 1 0 2.667h-4A1.333 1.333 0 0 1 17.333 20Z" fill="#fff"/></svg>