<svg width="24" height="24" fill="none" xmlns="http://www.w3.org/2000/svg"><g clip-path="url(#a)" fill="#71C011"><path d="M16.825 16.575c-.795 0-1.52-.47-1.845-1.195l-.055-.12-1.84 4.56 2.25-.87 1.02 2.185 1.32-3.27-.535-1.32c-.105.02-.21.03-.315.03Zm4.63-1.195a2.026 2.026 0 0 1-1.845 1.195c-.35 0-.7-.095-1.005-.27l-.245-.14-.15.365 1.865 4.61 1.02-2.185 2.245.87-1.84-4.545-.045.1Z"/><path d="m14.825 20.225-3.525 1.36 2.715-6.73a2.037 2.037 0 0 1-1.085-.75 2.028 2.028 0 0 1-.345-1.6l.09-.425-.33-.315c-.42-.38-.66-.925-.66-1.495 0-.57.24-1.115.66-1.495l.325-.295-.085-.45a2.019 2.019 0 0 1 1.76-2.42l.44-.045.195-.41a2.022 2.022 0 0 1 2.845-.925l.35.2V1.945c0-.935-.755-1.695-1.695-1.695H1.94C1.005.25.25 1.01.25 1.945V22.05c0 .94.755 1.695 1.69 1.695h14.535a1.69 1.69 0 0 0 1.695-1.695v-2.745l-1.75 4.345-1.595-3.425ZM3.43 4.365h10.555v1H3.43v-1Zm0 3.57h7.785v1H3.43v-1Zm0 3.565h7.785v1H3.43v-1Zm-.005 3.57h9.035v1H3.425v-1Zm0 3.565h7.785v1H3.425v-1Z"/><path d="m23.415 9.51-.325-.295a1.035 1.035 0 0 1-.315-.96l.09-.435a1.02 1.02 0 0 0-.89-1.22l-.435-.05c-.36-.04-.67-.265-.82-.595l-.18-.4a1.022 1.022 0 0 0-1.435-.47l-.38.22c-.315.18-.7.18-1.015 0l-.38-.22c-.525-.3-1.19-.08-1.435.47l-.18.4c-.15.33-.46.555-.82.595l-.44.05c-.6.065-1.01.635-.89 1.225l.09.43c.075.355-.045.72-.315.965l-.325.295a1.02 1.02 0 0 0 0 1.51l.325.295c.27.245.385.61.315.965l-.09.43c-.125.59.29 1.16.89 1.225l.44.05c.36.04.67.265.82.595l.18.4c.245.55.915.77 1.44.465l.38-.22c.315-.18.7-.18 1.015 0l.38.22c.525.3 1.19.085 1.44-.465l.18-.4c.15-.33.46-.56.82-.595l.435-.05c.6-.065 1.01-.63.89-1.22l-.09-.43c-.075-.355.045-.72.315-.96l.325-.295c.435-.42.435-1.12-.01-1.525Zm-5.2 3.365a2.614 2.614 0 1 1 0-5.23 2.614 2.614 0 1 1 0 5.23Z"/></g><defs><clipPath id="a"><path fill="#fff" d="M0 0h24v24H0z"/></clipPath></defs></svg>