<svg width="32" height="32" fill="none" xmlns="http://www.w3.org/2000/svg"><path fill-rule="evenodd" clip-rule="evenodd" d="M2.667 10.667A6.667 6.667 0 0 1 9.333 4h13.334a6.667 6.667 0 0 1 6.666 6.667V16a1.333 1.333 0 0 1-2.666 0v-5.333a4 4 0 0 0-4-4H9.333a4 4 0 0 0-4 4v12a4 4 0 0 0 4 4H16a1.333 1.333 0 0 1 0 2.666H9.333a6.667 6.667 0 0 1-6.666-6.666v-12Z" fill="#fff"/><path fill-rule="evenodd" clip-rule="evenodd" d="M10.667 2.667C11.403 2.667 12 3.264 12 4v4a1.333 1.333 0 1 1-2.667 0V4c0-.736.597-1.333 1.334-1.333ZM8 13.333C8 12.597 8.597 12 9.333 12h13.334a1.333 1.333 0 0 1 0 2.667H9.333A1.333 1.333 0 0 1 8 13.333ZM21.333 2.667c.737 0 1.334.597 1.334 1.333v4A1.333 1.333 0 0 1 20 8V4c0-.736.597-1.333 1.333-1.333ZM24 21.334a2.667 2.667 0 1 0 0 5.333 2.667 2.667 0 0 0 0-5.333ZM18.667 24a5.333 5.333 0 1 1 10.666 0 5.333 5.333 0 0 1-10.666 0Z" fill="#fff"/></svg>