<svg width="20" height="20" fill="none" xmlns="http://www.w3.org/2000/svg"><path d="M15 14.584c0-1.963-1.13-3.66-2.78-4.48-.62.458-1.389.73-2.22.73-.832 0-1.6-.272-2.222-.73A4.999 4.999 0 0 0 5 14.584v1.666c0 .46.373.834.833.834h8.334c.46 0 .833-.374.833-.834v-1.666Zm-5.833 1.25V15h-.834a.833.833 0 0 1 0-1.666h.834V12.5a.833.833 0 1 1 1.666 0v.834h.834a.833.833 0 0 1 0 1.666h-.834v.834a.833.833 0 0 1-1.666 0Zm2.916-10H7.917v1.25a2.083 2.083 0 1 0 4.166 0v-1.25Zm0-2.5a.833.833 0 0 0-.833-.834h-2.5a.833.833 0 0 0-.833.833v.834h4.166v-.833Zm1.667 3.75a3.74 3.74 0 0 1-.42 1.723 6.663 6.663 0 0 1 3.337 5.777v1.666a2.5 2.5 0 0 1-2.5 2.5H5.833a2.5 2.5 0 0 1-2.5-2.5v-1.666A6.664 6.664 0 0 1 6.67 8.806a3.733 3.733 0 0 1-.42-1.724v-3.75a2.5 2.5 0 0 1 2.5-2.5h2.5a2.5 2.5 0 0 1 2.5 2.5v3.75Z" fill="#fff"/></svg>