<svg width="284" height="284" fill="none" xmlns="http://www.w3.org/2000/svg"><rect width="284" height="284" rx="142" fill="url(#a)"/><path d="m196.731 212.565-12.122 12.108c-13.401 13.402-60.384 4.219-94.992-30.29-34.608-34.51-43.692-81.591-30.29-94.993 10.757-10.715.506-.52 12.121-12.107a5.708 5.708 0 0 1 8.086 0l28.294 28.279a5.74 5.74 0 0 1 0 8.086c-15.047 14.991-18.886 18.9-20.208 20.208-10.884 10.8 41.724 63.422 52.524 52.523 13.247-13.246 18.618-18.632 20.207-20.193a5.716 5.716 0 0 1 6.232-1.242c.694.288 1.324.71 1.854 1.242l28.294 28.279a5.755 5.755 0 0 1 0 8.1Z" fill="#7AA8D7"/><path d="M87.155 144.377c-1.504-4.219-1.406-7.313.408-9.085l20.025-20.011a5.78 5.78 0 0 1 .239 8.438c-21.487 21.417-20.433 20.306-20.672 20.658Z" fill="#5B8DC9"/><path d="m196.73 212.565-12.122 12.108c-13.401 13.402-60.384 4.219-94.992-30.29-26.226-26.227-37.8-59.611-36.028-80.044 1.477 20.405 13.19 48.642 36.028 71.465 34.608 34.58 81.563 43.707 94.992 30.305l11.883-11.869a5.775 5.775 0 0 1 1.495 6.387 5.776 5.776 0 0 1-1.256 1.938Z" fill="#5B8DC9"/><path d="M179.153 53.406c-47.56 0-69.68 59.513-33.385 90.535l-12.347 12.347h45.732a51.443 51.443 0 0 0 36.374-87.815 51.443 51.443 0 0 0-36.374-15.067Z" fill="#FFA600"/><path d="M179.152 139.145c18.942 0 34.298-15.356 34.298-34.298 0-18.943-15.356-34.299-34.298-34.299-18.943 0-34.298 15.356-34.298 34.299 0 18.942 15.355 34.298 34.298 34.298Z" fill="#F70"/><path d="M199.148 99.138h-14.287V84.85h-11.433v14.288h-14.287v11.432h14.287v14.288h11.433V110.57h14.287V99.138Z" fill="#fff"/><path d="m191.345 217.937-1.983 1.983-36.38-36.38 1.983-1.982 36.38 36.379Zm-88.904-88.903-1.983 1.983-36.38-36.365 1.983-1.997 36.38 36.379Z" fill="#5B8DC9"/><defs><linearGradient id="a" x1="81.831" y1="11.232" x2="311.277" y2="284" gradientUnits="userSpaceOnUse"><stop stop-color="#FFF7EA"/><stop offset=".49" stop-color="#FDE5C0"/><stop offset="1" stop-color="#F3DFBE"/></linearGradient></defs></svg>