<svg width="275" height="240" fill="none" xmlns="http://www.w3.org/2000/svg"><g clip-path="url(#a)"><path d="M170.843 31.883a49.801 49.801 0 0 1 23.43 18.348 50.081 50.081 0 0 1 8.836 28.478v108.833H71.101V78.709a50.079 50.079 0 0 1 8.871-28.497 49.799 49.799 0 0 1 23.482-18.329h67.389Z" fill="#9B756D"/><path d="M203.131 174.315H71.188v13.248H203.13v-13.248Z" fill="#8A6762"/><path d="M189.93 99.276v22.067a53.07 53.07 0 0 1-15.46 37.457 52.684 52.684 0 0 1-37.322 15.515A52.687 52.687 0 0 1 99.826 158.8a53.07 53.07 0 0 1-15.46-37.457v-21.219s29.822-13.64 30.752-30.906h.736c17.918 21.458 56.698 30.058 74.076 30.058Z" fill="#F2C4B0"/><path d="M189.93 99.276v8.818c-13.807 0-46.766-5.56-70.289-22.196-7.682 9.382-27.18 23.043-35.274 23.043v-8.817s29.821-13.64 30.751-30.906h.736c17.918 21.458 56.698 30.058 74.076 30.058Zm0 13.249v8.818a53.07 53.07 0 0 1-15.46 37.457 52.684 52.684 0 0 1-37.322 15.515A52.687 52.687 0 0 1 99.826 158.8a53.07 53.07 0 0 1-15.46-37.457v-8.818a52.989 52.989 0 0 0 4.002 20.28 52.84 52.84 0 0 0 11.45 17.185c33.002 33.012 90.112 9.882 90.112-37.465Z" fill="#EAB39B"/><path d="M238.297 275.828H36c0-.369 6.492-42.894 6.492-43.177a52.952 52.952 0 0 1 15.57-30.278 52.614 52.614 0 0 1 30.741-14.462c4.328 0-20.017-.369 90.891-.369a52.69 52.69 0 0 1 34.41 12.85 53.05 53.05 0 0 1 17.744 32.259c5.713 38.073 5.215 34.924 6.449 43.177ZM175.669 7.558c-6.882 34.424-5.389 27.018-7.726 38.746h-61.589c-2.164-11.337-.585-2.975-7.726-38.746a140.503 140.503 0 0 1 77.041 0Z" fill="#fff"/><path d="M84.367 125.752h-4.328a13.187 13.187 0 0 1-9.678-3.682 13.246 13.246 0 0 1-3-4.362 13.291 13.291 0 0 1 3-14.75 13.187 13.187 0 0 1 9.678-3.681h4.328v26.475ZM189.93 99.276h4.328a13.193 13.193 0 0 1 9.678 3.681 13.264 13.264 0 0 1 4.057 9.557 13.277 13.277 0 0 1-4.057 9.556 13.193 13.193 0 0 1-9.678 3.682h-4.328V99.277Z" fill="#EAB39B"/><path d="M189.93 90.459v8.817c-14.737 0-51.289-6.754-72.388-26.344-6.146 13.726-29.107 27.192-33.175 27.192v-9.318c8.656-4.343 25.774-15.203 26.358-26.214a4.511 4.511 0 0 1 .66-2.908 4.465 4.465 0 0 1 5.299-1.838 4.483 4.483 0 0 1 2.308 1.879c17.053 20.372 54.577 28.734 70.938 28.734Z" fill="#8A6762"/><path d="M185.515 187.911c0 18.091-6.492 48.194-30.773 48.194a30.522 30.522 0 0 1-17.594-5.169 30.518 30.518 0 0 1-17.594 5.169c-24.194 0-30.686-30.103-30.773-48.194 5.086-.587 91.757-.587 96.734 0Z" fill="#C7CDD8"/><path d="M176.729 187.542s0 39.745-21.987 39.745c-13.201 0-17.594-8.84-17.594-8.84s-4.328 8.84-17.594 8.84c-21.986 0-21.986-39.745-21.986-39.745h79.161Z" fill="#fff"/><path d="M154.742 171.274v16.268l-17.594 30.905-17.594-30.905v-16.268a52.473 52.473 0 0 0 35.188 0Z" fill="#F2C4B0"/><path d="m169.696 37.487-1.753 8.817h-61.589l-1.753-8.817h65.095Z" fill="#C7CDD8"/><path d="M126.328 149.86a2.177 2.177 0 0 1 .201-2.839 2.158 2.158 0 0 1 2.829-.202 10.996 10.996 0 0 0 7.79 3.24 11 11 0 0 0 7.791-3.24 2.157 2.157 0 0 1 2.829.202 2.175 2.175 0 0 1 .201 2.839 15.362 15.362 0 0 1-10.821 4.463 15.36 15.36 0 0 1-10.82-4.463Z" fill="#D97C6B"/><path d="M108.604 112.525v-4.344c0-.576.228-1.128.634-1.536a2.16 2.16 0 0 1 3.694 1.536v4.344a2.163 2.163 0 0 1-3.694 1.536 2.177 2.177 0 0 1-.634-1.536Zm48.367 0v-4.344c0-.576.228-1.128.634-1.536a2.16 2.16 0 0 1 3.694 1.536v4.344c0 .576-.228 1.128-.634 1.536a2.16 2.16 0 0 1-3.694-1.536Z" fill="#47566A"/><path d="M145.934 26.41h-17.572a2.16 2.16 0 0 1-1.53-.636 2.175 2.175 0 0 1 0-3.072 2.16 2.16 0 0 1 1.53-.636h17.572c.574 0 1.125.23 1.531.637a2.179 2.179 0 0 1 0 3.071 2.162 2.162 0 0 1-1.531.636Z" fill="#F70"/><path d="M134.984 33.078V15.42c0-.576.228-1.128.634-1.535a2.16 2.16 0 0 1 3.061 0c.405.407.633.96.633 1.535v17.658c0 .576-.228 1.128-.633 1.535a2.162 2.162 0 0 1-3.695-1.535Z" fill="#F70"/><path d="M139.312 222.856v52.972h-4.328v-52.972c0-.576.228-1.128.634-1.536a2.16 2.16 0 0 1 3.694 1.536Z" fill="#C7CDD8"/></g><defs><clipPath id="a"><path fill="#fff" d="M0 0h275v275H0z"/></clipPath></defs></svg>