<svg width="275" height="275" fill="none" xmlns="http://www.w3.org/2000/svg"><path d="M177.37 23.804h35.437a15.75 15.75 0 0 1 15.752 15.752V244.31a15.753 15.753 0 0 1-15.752 15.751H63.193a15.752 15.752 0 0 1-15.752-15.751V39.556a15.752 15.752 0 0 1 15.752-15.752H98.63" fill="#9B756D"/><path d="M228.559 232.492v11.819a15.753 15.753 0 0 1-15.752 15.752H63.193a15.753 15.753 0 0 1-15.752-15.752v-11.819a15.734 15.734 0 0 0 15.752 15.752h149.614a15.737 15.737 0 0 0 14.558-9.721 15.737 15.737 0 0 0 1.194-6.031Z" fill="#8A6762"/><path d="M208.874 39.556v200.822H67.127V39.556h141.747Z" fill="#F6F9FE"/><path d="M161.618 61.178h-10.056a9.38 9.38 0 0 1-8.389-4.727 5.934 5.934 0 0 0-5.231-3.14 5.932 5.932 0 0 0-5.232 3.14 9.37 9.37 0 0 1-8.273 4.727h-10.055a9.822 9.822 0 0 1-9.823-9.804V35.681a1.939 1.939 0 0 1 3.307-1.37c.363.363.568.856.568 1.37v15.693a5.947 5.947 0 0 0 5.948 5.93h10.055a5.603 5.603 0 0 0 4.922-2.617A9.796 9.796 0 0 1 138 49.514a9.807 9.807 0 0 1 8.641 5.173 5.606 5.606 0 0 0 4.921 2.616h9.998a5.948 5.948 0 0 0 5.948-5.929V35.681a1.939 1.939 0 1 1 3.875 0v15.693a9.823 9.823 0 0 1-9.765 9.804Z" fill="#949AAF"/><path d="M138.001 92.45c-12.652-18.33-39.37-8.526-39.37 14.046 0 23.638 39.37 47.256 39.37 47.256s39.37-23.618 39.37-47.256c0-22.552-26.718-32.433-39.37-14.046Z" fill="#F70"/><path d="M165.571 39.556H110.43a11.82 11.82 0 0 1 0-23.618h55.141a11.82 11.82 0 0 1 0 23.618Z" fill="#949AAF"/><path d="M165.571 39.556H110.43a11.796 11.796 0 0 1-11.546-9.387 11.8 11.8 0 0 1 .114-5.319 11.8 11.8 0 0 0 11.432 8.893h55.141a11.797 11.797 0 0 0 11.431-8.893c.443 1.741.482 3.56.114 5.32a11.789 11.789 0 0 1-6.362 8.184 11.805 11.805 0 0 1-5.183 1.202Z" fill="#8288A1"/><path d="M117.289 27.756a2.906 2.906 0 1 1-5.813 0 2.906 2.906 0 0 1 5.813 0Zm47.236 0a2.906 2.906 0 1 1-5.813 0 2.906 2.906 0 0 1 5.813 0Z" fill="#47566A"/><path d="M185.255 179.308h-94.51a1.94 1.94 0 0 1-1.37-3.308 1.939 1.939 0 0 1 1.37-.567h94.51a1.938 1.938 0 1 1 0 3.875Zm0 19.684h-94.51a1.939 1.939 0 0 1-1.37-3.307 1.94 1.94 0 0 1 1.37-.568h94.51a1.939 1.939 0 0 1 0 3.875Zm-19.685 19.705H90.744a1.935 1.935 0 0 1-1.937-1.938 1.939 1.939 0 0 1 1.937-1.937h74.826a1.938 1.938 0 1 1 0 3.875Z" fill="#CCD2E9"/><path d="M134.125 136.062c-1.628 0-1.066.272-9.068-15.751H90.744a1.94 1.94 0 0 1-1.37-3.308 1.939 1.939 0 0 1 1.37-.567h35.437c1.628 0 1.318.232 7.266 12.128l6.607-26.408a1.934 1.934 0 0 1 1.666-1.453c1.937-.213 1.395 0 9.28 15.733h34.255a1.938 1.938 0 1 1 0 3.875h-35.436c-1.628 0-1.318-.252-7.266-12.149l-6.607 26.37a1.94 1.94 0 0 1-1.821 1.53Z" fill="#F6F9FE"/></svg>