<svg width="275" height="275" fill="none" xmlns="http://www.w3.org/2000/svg"><path d="m212.096 226.693-16.506 16.488c-18.249 18.249-82.226 5.745-129.352-41.247C19.112 154.942 6.74 90.83 24.99 72.581c14.65-14.591.69-.708 16.507-16.487a7.774 7.774 0 0 1 11.01 0l38.529 38.509a7.813 7.813 0 0 1 0 11.011c-20.49 20.412-25.718 25.736-27.517 27.517-14.822 14.706 56.815 86.362 71.521 71.522 18.039-18.039 25.354-25.373 27.518-27.498a7.756 7.756 0 0 1 2.525-1.691 7.753 7.753 0 0 1 2.98-.594c1.023 0 2.036.201 2.98.594a7.756 7.756 0 0 1 2.525 1.691l38.528 38.508a7.833 7.833 0 0 1 0 11.03Z" fill="#7AA8D7"/><path d="M62.886 133.84c-2.05-5.745-1.915-9.958.555-12.371L90.71 94.22a7.869 7.869 0 0 1 .325 11.489c-29.26 29.165-27.824 27.652-28.15 28.131Z" fill="#5B8DC9"/><path d="m212.096 226.694-16.506 16.487c-18.25 18.249-82.227 5.745-129.353-41.247-35.713-35.713-51.472-81.173-49.06-108.997 2.01 27.785 17.962 66.237 49.06 97.316 47.126 47.088 111.065 59.515 129.353 41.266l16.181-16.162a7.872 7.872 0 0 1 .325 11.337Z" fill="#5B8DC9"/><path d="M188.16 9.964c-64.763 0-94.884 81.039-45.46 123.282l-16.813 16.813h62.273a70.048 70.048 0 0 0 0-140.095Z" fill="#FFD4AE"/><path d="M188.16 126.716c25.794 0 46.704-20.91 46.704-46.705 0-25.794-20.91-46.704-46.704-46.704-25.795 0-46.705 20.91-46.705 46.704 0 25.795 20.91 46.705 46.705 46.705Z" fill="#F70"/><path d="M215.389 72.237h-19.455V52.78h-15.568v19.456H160.91v15.568h19.456v19.455h15.568V87.805h19.455V72.237Z" fill="#fff"/><path d="m204.762 234.008-2.7 2.701-49.539-49.539 2.7-2.7 49.539 49.538Zm-121.06-121.06-2.7 2.7-49.54-49.52 2.7-2.72 49.54 49.54Z" fill="#5B8DC9"/></svg>