<svg width="275" height="275" fill="none" xmlns="http://www.w3.org/2000/svg"><path d="M222.037 96.728v140.055a14.744 14.744 0 0 0 29.491 0V96.728h-29.491Z" fill="#9B756D"/><path d="M210.992 236.783h25.791V37.745h-25.791v199.038Z" fill="#E4E8EF"/><path d="M210.993 23H34.065v103.201h176.928V23Z" fill="#fff"/><path d="M222.037 236.783V126.146H96.727l-11.063-11.045H23v121.627a14.746 14.746 0 0 0 14.746 14.8h199.037a14.748 14.748 0 0 1-13.623-9.102 14.749 14.749 0 0 1-1.123-5.643Z" fill="#D1A788"/><path d="M222.037 236.783V126.146H96.727l-11.063-11.045H23v121.627a14.746 14.746 0 0 0 14.746 14.8h199.037a14.748 14.748 0 0 1-13.623-9.102 14.749 14.749 0 0 1-1.123-5.643Z" fill="#D1A788"/><path d="M236.783 251.528H37.746A14.743 14.743 0 0 1 23 236.783v-11.064a14.728 14.728 0 0 0 14.745 14.746H222.51a14.69 14.69 0 0 0 14.274 11.063Z" fill="#CBA07A"/><path d="M81.981 100.409c16.288 0 29.491-13.203 29.491-29.49 0-16.288-13.203-29.492-29.49-29.492-16.288 0-29.492 13.204-29.492 29.491 0 16.288 13.204 29.491 29.491 29.491Z" fill="#FBCC88"/><path d="M81.983 76.287A10.737 10.737 0 0 1 71.245 65.55v-2.648a10.737 10.737 0 1 1 21.457 0v2.666a10.737 10.737 0 0 1-10.72 10.719Z" fill="#7AA8D7"/><path d="M101.099 93.372a29.526 29.526 0 0 1-38.197 0 49.181 49.181 0 0 1 2.032-5.786 18.59 18.59 0 0 1 34.206 0 52.533 52.533 0 0 1 1.959 5.786Z" fill="#7AA8D7"/><path d="M64.879 87.587a54.161 54.161 0 0 0-1.977 5.785 29.473 29.473 0 0 1-10.139-26.135 29.544 29.544 0 0 0 12.116 20.35Zm36.219 5.785-1.469-4.389c-.599-1.977-1.106-.834 1.469-2.993a29.474 29.474 0 0 0 10.139-18.753 29.431 29.431 0 0 1-10.139 26.135Z" fill="#F6B756"/><path d="M101.099 93.372a29.526 29.526 0 0 1-38.197 0 49.181 49.181 0 0 1 2.032-5.786 29.564 29.564 0 0 0 34.206 0 52.526 52.526 0 0 1 1.959 5.786Z" fill="#5B8DC9"/><path d="M192.547 45.11h-66.346v14.745h66.346V45.109Z" fill="#DDEBEE"/><path d="M140.891 80.096H129.9a1.815 1.815 0 1 1 0-3.628h10.991a1.813 1.813 0 1 1 0 3.628Zm47.974 0h-33.172a1.815 1.815 0 1 1 0-3.628h33.172a1.813 1.813 0 1 1 0 3.628Zm-47.974 14.745H129.9a1.815 1.815 0 1 1 0-3.627h10.991a1.813 1.813 0 1 1 0 3.627Zm47.974 0h-33.172a1.815 1.815 0 1 1 0-3.627h33.172a1.813 1.813 0 1 1 0 3.627Zm-47.974 14.746H129.9a1.815 1.815 0 1 1 0-3.628h10.991a1.814 1.814 0 0 1 0 3.628Zm47.974 0h-33.172a1.815 1.815 0 1 1 0-3.628h33.172a1.814 1.814 0 0 1 0 3.628Z" fill="#949AAF"/></svg>