<svg width="40" height="40" fill="none" xmlns="http://www.w3.org/2000/svg"><path d="M33.333 18.333a5 5 0 0 0-5-5H11.667a5 5 0 0 0-5 5v10a5 5 0 0 0 5 5h16.666a5 5 0 0 0 5-5v-10Zm-15 10.834v-3.334H15a1.667 1.667 0 0 1 0-3.333h3.333v-3.333a1.667 1.667 0 1 1 3.334 0V22.5H25a1.667 1.667 0 1 1 0 3.333h-3.333v3.334a1.667 1.667 0 1 1-3.334 0Zm0-22.5A4.998 4.998 0 0 0 13.623 10h12.754a4.998 4.998 0 0 0-4.71-3.333h-3.334Zm18.334 21.666a8.333 8.333 0 0 1-8.334 8.334H11.667a8.333 8.333 0 0 1-8.334-8.334v-10a8.334 8.334 0 0 1 6.809-8.191 8.334 8.334 0 0 1 8.191-6.809h3.334c4.08 0 7.473 2.935 8.19 6.809 3.874.716 6.81 4.11 6.81 8.191v10Z" fill="#CF9766"/></svg>