<svg width="24" height="24" fill="none" xmlns="http://www.w3.org/2000/svg"><g clip-path="url(#a)" fill="#71C011"><path d="M24 9.97v8.419a5.004 5.004 0 0 1-4.997 4.998H4.997A5.004 5.004 0 0 1 0 18.389v-8.42h24ZM10.63 12a.23.23 0 0 0-.228.229v2.173H8.23a.23.23 0 0 0-.229.229v2.738a.23.23 0 0 0 .229.229h2.173v2.174a.23.23 0 0 0 .229.228h2.738a.23.23 0 0 0 .229-.228v-2.174h2.173a.23.23 0 0 0 .229-.229v-2.738a.23.23 0 0 0-.229-.229h-2.173V12.23a.23.23 0 0 0-.229-.229h-2.738Zm8.373-7.862h-1.824v-.886a2.642 2.642 0 0 0-2.64-2.639H9.527a2.642 2.642 0 0 0-2.638 2.64v.885H4.997A5.004 5.004 0 0 0 .035 8.541h23.93a5.004 5.004 0 0 0-4.962-4.403Zm-3.253 0H8.316v-.886c0-.667.543-1.21 1.21-1.21h5.014c.667 0 1.21.543 1.21 1.21v.886Z"/></g><defs><clipPath id="a"><path fill="#fff" d="M0 0h24v24H0z"/></clipPath></defs></svg>