<svg width="220" height="220" fill="none" xmlns="http://www.w3.org/2000/svg"><rect width="220" height="220" rx="110" fill="#fff"/><path d="M110 67.365c9.701 0 17.565-7.864 17.565-17.565S119.701 32.234 110 32.234 92.435 40.1 92.435 49.8 100.299 67.365 110 67.365Z" fill="#F70"/><path d="M110 67.352c-11.22 0-19.17-10.418-17.355-20.07a17.528 17.528 0 0 0 34.71 0c1.815 9.64-6.11 20.07-17.355 20.07Z" fill="#DB6904"/><path d="M117.53 74.882c0 10.183.629-5.407-3.864 88.875-1.136 23.453-.728 22.527-2.185 23.453a2.533 2.533 0 0 1-3.185-.173c-1.148-.926-.839-.37-1.604-16.047 0-8.221-4.222-76.617-4.222-96.17a7.53 7.53 0 0 1 15.06 0v.062Z" fill="#949AAF"/><path d="M115.036 134.811c-.592 12.208-.444 8.999-.691 14.418l-8.764-.963c-.247-5.999-.099-2.716-.704-14.998 1.864.247 7.728 1.123 10.159 1.543Z" fill="#8288A1"/><path d="M187.766 67.353a10.036 10.036 0 0 1-10.036 10.035 10.035 10.035 0 0 1-10.035 10.035 10.036 10.036 0 0 1-10.036 10.036h-40.857l.493-10.06a18.134 18.134 0 0 0 15.282-10.011 18.174 18.174 0 0 1 16.232-10.035h38.957Zm-85.061 20.046a18.158 18.158 0 0 1-15.282-10.011 18.17 18.17 0 0 0-16.232-10.035H32.234A10.036 10.036 0 0 0 42.27 77.388a10.035 10.035 0 0 0 10.035 10.035A10.036 10.036 0 0 0 62.341 97.46h40.858" fill="#D4D8E1"/><path d="M103.199 97.459H62.341a10.036 10.036 0 0 1-10.036-10.035A10.035 10.035 0 0 1 42.27 77.388a10.036 10.036 0 0 1-10.036-10.035h38.957a18.17 18.17 0 0 1 16.232 10.035 18.12 18.12 0 0 0 15.282 10.01l.494 10.06Z" fill="#D4D8E1"/><path d="M139.625 116.172c-5.962 3.283-16.467 4.271-23.935 5.135l.482-10.208c19.935-2.173 17.651-4.395 21.268-4.037a4.932 4.932 0 0 1 4.142 6.792 4.939 4.939 0 0 1-1.957 2.318Zm-7.048 31.452c0 9.875-9.27 13.775-18.911 16.182l.494-10.504c2.888-.864 8.381-2.679 8.381-5.678-3.9-5.666-42.647-.901-42.647-20.059 0-10.751 13.368-13.393 24.008-14.961l.482 10.11c-2.667.407-14.455 2.16-14.455 4.851 0 4.444 17.985 6.024 25.107 7.246 8.542 1.506 17.541 4.246 17.541 12.813Z" fill="#FBCC88"/><path d="M112.938 179.125c-.284 5.987 0 7.221-1.457 8.171-4.839-.222-3.974.988-4.518-10.628 2.012.84 4.061 1.692 5.975 2.457Z" fill="#8288A1"/><path d="M122.171 182.717c-11.936-.926-37.254.667-37.254-12.516 0-9.974 11.381-12.603 20.985-14.813l.494 10.159c-1.975.506-11.48 2.679-11.48 4.666 1.173 2.654 24.478 11.455 27.255 12.504Z" fill="#FBCC88"/><path d="M79.894 84.917H53.688a6.926 6.926 0 0 1-6.79-4.937c-.061-.247-.802 0 22.96 0a2.506 2.506 0 1 0 0-5.012H44.442a7.777 7.777 0 0 1-7.912-7.406c0-.247.247-.086-4.296-.086A10.06 10.06 0 0 0 42.27 77.51a10.048 10.048 0 0 0 10.035 10.035 10.036 10.036 0 0 0 10.036 10.036h4.283a9.998 9.998 0 0 1-9.702-7.653h22.972a2.505 2.505 0 1 0 0-5.012ZM183.47 67.353a7.778 7.778 0 0 1-7.912 7.53h-25.416a2.505 2.505 0 1 0 0 5.01h22.972c-1.235 4.938-6.456 5.025-6.802 5.025h-26.206a2.503 2.503 0 0 0-2.505 2.505 2.505 2.505 0 0 0 2.505 2.506h22.972a9.994 9.994 0 0 1-9.702 7.53h4.283a10.034 10.034 0 0 0 10.036-10.035 10.062 10.062 0 0 0 10.035-10.036 10.06 10.06 0 0 0 10.036-10.035h-4.296Zm-80.765 20.046.494 10.06h-5.037l-.53-11.11c1.632.59 3.34.943 5.073 1.05Zm19.639-1-.531 11.11h-5.011l.493-10.06a18.233 18.233 0 0 0 5.049-1.05Z" fill="#C7CDD8"/><path d="M104.384 122.714c-5.753.864-4.938 1.16-5.024.259l-.47-9.541c1.605-.321 3.284-.568 4.938-.828l.556 10.11Zm2.049 42.833c-1.506.382-3.284.827-4.938 1.308-.062-1.432 0 .531-.506-10.282 1.666-.432 3.345-.803 4.938-1.235l.506 10.209Zm7.727-12.245a30.47 30.47 0 0 0 5.122-1.963c-.123 2.79 0 .457-.53 11.011a65.147 65.147 0 0 1-5.086 1.457l.494-10.505Zm7.073-42.821c0 1.235 0-.506-.494 10.209l-5.073.592.506-10.183c1.605-.173 3.333-.371 5.061-.618Z" fill="#F6B756"/><path d="M108.766 57.317V42.27A1.236 1.236 0 0 1 110 41.036a1.236 1.236 0 0 1 1.234 1.234v15.047A1.236 1.236 0 0 1 110 58.551a1.236 1.236 0 0 1-1.234-1.234Z" fill="#fff"/><path d="M117.53 51.034h-15.06a1.237 1.237 0 0 1-1.234-1.235 1.236 1.236 0 0 1 1.234-1.234h15.06a1.232 1.232 0 0 1 1.234 1.234 1.233 1.233 0 0 1-1.234 1.235Z" fill="#fff"/></svg>