<svg width="40" height="40" fill="none" xmlns="http://www.w3.org/2000/svg"><path d="M15 21.667c.826 0 1.537.307 2.067.605.53.298 1.036.681 1.432.978.437.328.765.57 1.068.741.303.17.426.176.433.176.186 0 .458-.045.994-.135.465-.079 1.09-.183 1.736-.194.652-.011 1.432.069 2.195.433.57.272 1.066.674 1.475 1.206l6.442-2.575a4.515 4.515 0 0 1 2.314-.278c3.276.468 4.202 4.761 1.41 6.538l-12.74 8.107a5.004 5.004 0 0 1-4.059.59L3.71 33.268a1.668 1.668 0 0 1 .915-3.205l16.06 4.588c.458.13.95.06 1.352-.196l12.74-8.107c.068-.043.087-.08.095-.102a.255.255 0 0 0 .007-.142.256.256 0 0 0-.065-.127c-.017-.016-.049-.042-.129-.053a1.18 1.18 0 0 0-.605.071l-7.303 2.922a3.453 3.453 0 0 1-1.68 1.478c-.863.357-1.782.782-2.594 1.158-.749.347-1.532.712-1.975.86a1.668 1.668 0 0 1-1.054 0l-5-1.667a1.666 1.666 0 0 1 1.054-3.16l4.413 1.47c.283-.126.672-.3 1.162-.527.753-.348 1.664-.77 2.547-1.14a.654.654 0 0 0-.16-.11c-.134-.064-.35-.115-.703-.109-.36.006-.754.067-1.237.148-.41.07-1.015.181-1.549.181-.826 0-1.537-.307-2.067-.605-.53-.298-1.036-.681-1.432-.979-.437-.327-.765-.57-1.068-.74-.303-.17-.426-.176-.433-.176H4.167a1.667 1.667 0 0 1 0-3.333H15ZM27.5 8.674C27.5 6.553 25.899 5 24.124 5c-1.097 0-2.104.575-2.736 1.525a1.667 1.667 0 0 1-2.776 0C17.98 5.575 16.972 5 15.876 5 14.1 5 12.5 6.553 12.5 8.674c0 2.065 1.174 4.225 2.931 6.105 1.518 1.623 3.281 2.83 4.569 3.421 1.288-.59 3.05-1.797 4.569-3.421 1.757-1.88 2.931-4.04 2.931-6.105Zm3.333 0c0 3.275-1.805 6.214-3.83 8.38-2.031 2.174-4.54 3.846-6.45 4.518a1.666 1.666 0 0 1-1.106 0c-1.91-.672-4.419-2.344-6.45-4.518-2.025-2.166-3.83-5.105-3.83-8.38 0-3.778 2.915-7.007 6.709-7.007 1.568 0 2.995.562 4.124 1.483a6.496 6.496 0 0 1 4.124-1.483c3.794 0 6.709 3.229 6.71 7.007Z" fill="#CF9766"/></svg>