<svg width="80" height="80" fill="none" xmlns="http://www.w3.org/2000/svg"><path d="M15.312 39.312H10.24c-.329 0-.644.128-.877.356a1.206 1.206 0 0 0-.363.86c0 .324.13.633.363.861.233.229.548.357.877.357h6.2c6.202 11.83 22.584 21.58 23.44 22.091a1.259 1.259 0 0 0 1.24 0c.856-.511 17.214-10.26 23.44-22.091h6.2c.329 0 .644-.128.877-.357a1.2 1.2 0 0 0 0-1.72 1.252 1.252 0 0 0-.877-.357h-5.097c6.647-17.04-13.99-30.003-25.175-17.04C29.326 9.346 8.64 22.26 15.312 39.312Zm25.176 22.103c-2.99-1.862-15.626-10.102-21.244-19.608h12.922c5.134 10.041 4.775 9.87 5.841 9.87.284.009.561-.078.787-.247.225-.168.386-.407.453-.677l4.23-16.602 3.534 6.962c.483.937.297.67 14.795.67-5.692 9.469-18.33 17.709-21.318 19.632Zm-1.017-36.38c.114.16.266.291.443.382a1.26 1.26 0 0 0 1.59-.382c9.029-12.914 28.437-1.351 21.492 14.277H48.81c-4.96-9.871-4.775-10.017-5.94-9.883-1.166.133-.794-.147-5.296 17.502-3.807-7.485-3.621-7.62-4.65-7.62H18.04c-7.02-15.627 12.439-27.13 21.43-14.337v.06Z" fill="#E5F0F8"/><path d="m10.24 39.312-.123.006a1.25 1.25 0 0 0-.754.35 1.206 1.206 0 0 0-.363.86c0 .324.13.633.363.861.204.2.47.324.754.351l.123.006h6.2c6.202 11.83 22.584 21.58 23.44 22.091.141.08.297.132.458.152L40.5 64c.163 0 .325-.032.475-.093l.145-.07c.856-.511 17.214-10.26 23.44-22.091h6.2l.123-.006c.243-.023.474-.118.663-.27l.09-.08c.204-.2.33-.462.358-.74l.006-.121a1.2 1.2 0 0 0-.363-.86 1.25 1.25 0 0 0-.754-.351l-.123-.006v-2c.794 0 1.565.29 2.16.82l.118.108.111.116a3.205 3.205 0 0 1-.11 4.46c-.611.6-1.432.93-2.28.93h-5.023c-3.389 5.852-8.912 11.052-13.66 14.852-5.078 4.062-9.47 6.68-9.93 6.956l-.04.023a3.26 3.26 0 0 1-3.212 0l-.04-.023c-.46-.275-4.858-2.893-9.938-6.955-4.751-3.8-10.276-9-13.655-14.853h-5.02c-.848 0-1.669-.33-2.28-.93A3.207 3.207 0 0 1 7 40.529c0-.865.35-1.687.962-2.288l.117-.108a3.254 3.254 0 0 1 2.161-.82v2Zm36.77 1.801c.484.937.3.67 14.796.67-5.692 9.469-18.33 17.709-21.318 19.632l-.67-.423c-3.871-2.474-15.307-10.273-20.574-19.185h12.922c5.134 10.04 4.775 9.87 5.841 9.87.248.008.492-.058.7-.188l.087-.059c.225-.168.386-.407.453-.677l4.23-16.602 3.534 6.962ZM41.188 51.24v.001a3.218 3.218 0 0 1-1.198 1.793 3.254 3.254 0 0 1-1.982.643v.002c-.105 0-.992.079-1.806-.505-.606-.435-1.013-1.12-1.33-1.682-.657-1.163-1.772-3.444-3.932-7.684h-7.916c2.56 3.34 5.881 6.48 9.098 9.125a94.052 94.052 0 0 0 8.353 6.101c1.858-1.223 5.018-3.382 8.39-6.15 3.217-2.64 6.544-5.77 9.125-9.093-4.727.016-7.393.05-8.89.008-.852-.023-1.678-.068-2.33-.318a2.692 2.692 0 0 1-1.107-.78c-.244-.29-.398-.61-.429-.67l-.005-.011-1.127-2.22-2.914 11.44Zm.318-26.204c8.957-12.813 28.134-1.53 21.65 13.912l-.159.365H48.81l-2.857-5.728c-2.095-4.198-2.21-4.256-3.083-4.156-1.166.134-.794-.146-5.296 17.503-3.57-7.018-3.629-7.574-4.47-7.616l-.18-.003v-2c.251 0 1.016-.025 1.764.494.595.412.977 1.032 1.253 1.51a43.72 43.72 0 0 1 1.01 1.93c1.363-5.418 2.111-8.479 2.599-10.184.16-.557.306-1.023.45-1.402.137-.36.315-.761.578-1.115a2.65 2.65 0 0 1 1.238-.932c.384-.138.8-.168.826-.171.266-.031 1.165-.173 2.058.421.665.443 1.108 1.163 1.451 1.76.697 1.214 1.815 3.532 3.896 7.689h11.597c2.25-6.333-.405-11.583-4.471-14.152-4.325-2.732-10.202-2.453-14.028 3.02l-.005.007-.004.006a3.235 3.235 0 0 1-1.162 1.004 3.262 3.262 0 0 1-2.97 0 3.235 3.235 0 0 1-1.162-1.003l-.37-.521v-.043c-3.806-4.93-9.454-5.106-13.65-2.454-4.066 2.569-6.713 7.804-4.431 14.136h13.533v2H18.04l-.16-.365C11.324 23.505 30.55 12.28 39.47 24.974v.06c.114.161.266.293.443.383a1.26 1.26 0 0 0 1.01.06l.137-.06c.133-.068.252-.159.351-.267l.093-.115Zm-1.019-5.64c6.213-5.746 14.424-5.423 20.372-1.528 5.827 3.816 9.579 11.095 7.533 19.445h2.369v2h-5.097c6.647-17.04-13.99-30.003-25.175-17.04C29.326 9.346 8.64 22.26 15.312 39.312H10.24v-2h2.342c-2.056-8.355 1.704-15.627 7.537-19.437 5.95-3.886 14.164-4.208 20.367 1.52Z" fill="#E5F0F8"/></svg>