<svg width="190" height="200" fill="none" xmlns="http://www.w3.org/2000/svg"><path d="m174.788 37.398-36.347 24.127 24.12-36.29C185.145-8.782 170.913-57.97 135.033-70 99.087-57.904 84.855-8.715 107.439 25.235l24.12 36.29-36.28-24.127C61.268 14.81 12.093 29.045 0 65c12.094 35.955 61.27 50.191 95.212 27.602l36.28-24.127-24.12 36.29C84.855 138.782 99.087 187.97 135.033 200c35.947-12.097 50.179-61.285 27.595-95.235l-24.12-36.29 36.28 24.127C208.797 115.19 257.906 100.954 270 65c-12.094-35.955-61.203-50.19-95.212-27.602Z" fill="#fff" fill-opacity=".2"/></svg>