<svg width="190" height="200" fill="none" xmlns="http://www.w3.org/2000/svg"><path d="m147.446 167.105 37.401 19.63c20.498 10.746 44.377-6.591 40.493-29.302l-7.121-41.48c-1.582-9.027 1.439-18.197 8.056-24.645l30.28-29.373c16.542-16.12 7.408-44.132-15.464-47.427l-41.86-6.09c-9.062-1.29-16.974-7.02-21.001-15.188l-18.701-37.755c-10.213-20.633-39.845-20.633-50.059 0L90.77-6.77c-4.1 8.239-11.939 13.899-21 15.188l-41.86 6.09C5.037 17.803-4.097 45.815 12.445 61.935l30.28 29.373c6.545 6.376 9.566 15.618 8.056 24.645l-7.12 41.48c-3.885 22.711 19.994 40.048 40.492 29.302l37.401-19.63c8.055-4.227 17.765-4.227 25.892 0Z" fill="#fff" fill-opacity=".2"/></svg>