<svg width="40" height="40" fill="none" xmlns="http://www.w3.org/2000/svg"><path d="M20.001 38.397a13.341 13.341 0 0 1-9.443-22.77 13.34 13.34 0 0 1 22.775 9.43 13.347 13.347 0 0 1-13.332 13.34Zm0-24.427A11.096 11.096 0 1 0 31.09 25.058 11.103 11.103 0 0 0 20 13.97Z" fill="#CF9766"/><path d="M20.001 29.494a1.123 1.123 0 0 1-1.122-1.122v-5.506a1.123 1.123 0 0 1 2.244 0v5.506a1.122 1.122 0 0 1-1.122 1.122Z" fill="#CF9766"/><path d="M20.001 25.11c-.148 0-.296-.015-.441-.045a1.692 1.692 0 0 1-.42-.127 2.136 2.136 0 0 1-.388-.202 2.412 2.412 0 0 1-.337-.285c-.106-.1-.2-.213-.277-.336a1.953 1.953 0 0 1-.21-.39 2.078 2.078 0 0 1-.126-.418 2.154 2.154 0 0 1 0-.875 2.08 2.08 0 0 1 .127-.42c.053-.137.123-.268.21-.389.077-.126.17-.241.276-.344a2.244 2.244 0 0 1 3.786 2.028 2.72 2.72 0 0 1-.127.419 2.429 2.429 0 0 1-.21.389 2.424 2.424 0 0 1-.614.621c-.122.08-.252.148-.388.202-.134.06-.275.103-.42.127a2.25 2.25 0 0 1-.44.045Zm8.17-8.013a1.122 1.122 0 0 1-1.122-1.122v-5.768a6.375 6.375 0 0 0-6.36-6.36h-.688a1.122 1.122 0 1 1 0-2.244h.688a8.611 8.611 0 0 1 8.604 8.604v5.768a1.122 1.122 0 0 1-1.122 1.122Z" fill="#CF9766"/><path d="M11.831 17.097a1.122 1.122 0 0 1-1.122-1.122v-5.768a8.611 8.611 0 0 1 8.604-8.604H20a1.123 1.123 0 0 1 0 2.244h-.688a6.374 6.374 0 0 0-6.36 6.36v5.768a1.122 1.122 0 0 1-1.122 1.122Z" fill="#CF9766"/><path d="M10.376 10.207a8.944 8.944 0 0 1 8.936-8.938H20l.001.334h-.688a8.611 8.611 0 0 0-6.082 2.522l-.294.31a8.612 8.612 0 0 0-2.228 5.772v5.274c-.05.05-.101.097-.15.147a13.34 13.34 0 0 0-3.65 6.832l-.087.486a13.341 13.341 0 0 0 13.18 15.451 13.347 13.347 0 0 0 8.945-3.456l.48-.456a13.347 13.347 0 0 0 3.889-8.766l.017-.661a13.34 13.34 0 0 0-1.982-6.997l-.266-.415a13.333 13.333 0 0 0-1.793-2.15l.001-5.29a8.612 8.612 0 0 0-2.227-5.771l-.295-.31a8.611 8.611 0 0 0-6.082-2.522h-.688v-.334h.69a8.947 8.947 0 0 1 8.924 8.495l.011.443v5.15a13.674 13.674 0 0 1 4.04 9.702A13.681 13.681 0 0 1 20.002 38.73a13.675 13.675 0 0 1-12.638-8.434 13.675 13.675 0 0 1 2.959-14.904l.053-.052v-5.133Zm20.38 14.851A10.77 10.77 0 0 0 20 14.303a10.764 10.764 0 0 0-7.617 18.372 10.761 10.761 0 0 0 16.561-1.635 10.763 10.763 0 0 0 1.812-5.982Zm-9.633-.249c.043-.024.087-.046.128-.073a2.424 2.424 0 0 0 .613-.621c.04-.061.08-.125.114-.19l.096-.2a3.58 3.58 0 0 0 .072-.206l.055-.212c.015-.073.027-.146.034-.22l.01-.222a2.245 2.245 0 0 0-2.893-2.147l-.258.097a2.246 2.246 0 0 0-.679.464 1.74 1.74 0 0 0-.277.345l-.117.187a1.759 1.759 0 0 0-.092.201 2.08 2.08 0 0 0-.127.42 2.15 2.15 0 0 0 0 .875c.027.144.07.284.127.419.055.137.125.268.21.389.077.123.17.237.276.337.103.104.216.2.337.284.04.027.084.05.127.073v3.563l.021.22a1.125 1.125 0 0 0 1.724.714l.17-.14c.158-.158.265-.358.308-.574l.021-.22v-3.563ZM20.69 3.847a6.374 6.374 0 0 1 6.36 6.36l-.001 3.531a13.34 13.34 0 0 0-9.66-1.764l-.482.106a13.34 13.34 0 0 0-3.953 1.649v-3.522a6.374 6.374 0 0 1 6.36-6.36h1.377Zm-1.673.342a6.042 6.042 0 0 0-5.73 6.02v2.935a13.672 13.672 0 0 1 13.43.008v-2.944l-.008-.3a6.042 6.042 0 0 0-5.721-5.719l-.298-.008h-1.375l-.298.008Zm2.441 24.183a1.456 1.456 0 0 1-2.912 0v-3.374a2.749 2.749 0 0 1-.368-.312 2.04 2.04 0 0 1-.322-.394 2.296 2.296 0 0 1-.236-.443 2.429 2.429 0 0 1-.145-.48 2.5 2.5 0 0 1 .002-1.006c.031-.161.078-.319.142-.47l.11-.24c.038-.07.08-.137.126-.203l.153-.216a2.578 2.578 0 0 1 2.188-.938l.313.042.005.002c.08.017.16.038.238.062l.232.081.014.005c.15.067.296.145.434.234l.007.005a2.58 2.58 0 0 1 1.089 2.646v.004c-.035.16-.084.318-.144.47l-.003.01a2.776 2.776 0 0 1-.238.441l-.001-.001c-.092.14-.198.27-.318.387a2.75 2.75 0 0 1-.366.313v3.375Zm9.624-2.904a11.097 11.097 0 0 1-1.859 5.756l-.234.338a11.099 11.099 0 0 1-4.745 3.752l-.382.151a11.097 11.097 0 0 1-11.418-2.269l-.295-.285A11.095 11.095 0 0 1 9.2 27.63l-.089-.402a11.096 11.096 0 0 1 .483-6.03l.15-.382a11.095 11.095 0 0 1 10.257-6.846A11.103 11.103 0 0 1 31.09 25.058l-.008.41Z" fill="#CF9766"/></svg>