<svg width="41" height="41" fill="none" xmlns="http://www.w3.org/2000/svg"><path d="M0 9.6C0 4.33 4.257.052 9.53.002 20.602.02 20.454 7.014 20.454 7.014S20.722.044 31.42.002c5.254.072 9.49 4.341 9.49 9.598v21.605c0 5.257-4.236 9.526-9.49 9.598-10.697-.042-10.965-7.012-10.965-7.012s.148 6.995-10.924 7.013c-5.272-.05-9.53-4.329-9.53-9.6V9.6ZM9.623 0h21.722H9.562h.062Zm21.722 40.804H9.562h21.784Zm-21.12-20.395a2.724 2.724 0 0 0 2.728 2.72h4.766v4.755a2.724 2.724 0 0 0 2.727 2.72 2.724 2.724 0 0 0 2.727-2.72V23.13h4.78a2.724 2.724 0 0 0 2.727-2.72 2.724 2.724 0 0 0-2.727-2.72h-4.78v-4.768a2.724 2.724 0 0 0-2.727-2.72 2.724 2.724 0 0 0-2.727 2.72v4.767h-4.766a2.724 2.724 0 0 0-2.727 2.72Z" fill="url(#a)"/><defs><linearGradient id="a" x1="20.454" y1="0" x2="20.454" y2="40.805" gradientUnits="userSpaceOnUse"><stop stop-color="#F70"/><stop offset="1" stop-color="#FFA557"/></linearGradient></defs></svg>