<svg width="20" height="20" fill="none" xmlns="http://www.w3.org/2000/svg"><g clip-path="url(#a)" fill="#F70"><path fill-rule="evenodd" clip-rule="evenodd" d="M0 10c0 7.549 1.765 9.167 10 9.167S20 17.549 20 10c0-2.075-.133-3.701-.498-4.97-.932.936-2.11 2.06-3.388 3.062-1.813 1.42-4.01 2.741-6.114 2.741-2.105 0-4.3-1.32-6.114-2.741C2.608 7.09 1.43 5.966.498 5.03.133 6.3 0 7.925 0 10Zm6.667 3.333a.833.833 0 1 0 0 1.667h6.666a.833.833 0 1 0 0-1.667H6.667Z"/><path d="M15.086 6.78c1.418-1.111 2.713-2.39 3.69-3.386-1.324-2-3.93-2.56-8.776-2.56-4.847 0-7.453.56-8.776 2.56.976.995 2.271 2.275 3.69 3.386C6.7 8.18 8.504 9.167 10 9.167c1.495 0 3.3-.987 5.086-2.387Z"/></g><defs><clipPath id="a"><path fill="#fff" d="M0 0h20v20H0z"/></clipPath></defs></svg>