<svg width="56" height="56" fill="none" xmlns="http://www.w3.org/2000/svg"><g filter="url(#a)"><circle cx="28" cy="24" r="20" fill="#F70"/><path fill-rule="evenodd" clip-rule="evenodd" d="M17 18.175A5.175 5.175 0 0 1 22.156 13C28.08 13.023 28 16.781 28 16.781s.143-3.74 5.857-3.78A5.175 5.175 0 0 1 39 18.176v11.648c0 2.848-2.3 5.158-5.143 5.175C28.165 34.96 28 31.247 28 31.22c0 .029.056 3.759-5.845 3.781A5.176 5.176 0 0 1 17 29.824V18.175Zm5.5 5.828c0 .81.657 1.467 1.467 1.467h2.562v2.563a1.467 1.467 0 0 0 2.934 0V25.47h2.57a1.467 1.467 0 0 0 0-2.933h-2.57v-2.57a1.467 1.467 0 0 0-2.934 0v2.57h-2.562c-.81 0-1.467.656-1.467 1.466Z" fill="#fff"/></g><defs><filter id="a" x="0" y="0" width="56" height="56" filterUnits="userSpaceOnUse" color-interpolation-filters="sRGB"><feFlood flood-opacity="0" result="BackgroundImageFix"/><feColorMatrix in="SourceAlpha" values="0 0 0 0 0 0 0 0 0 0 0 0 0 0 0 0 0 0 127 0" result="hardAlpha"/><feOffset dy="4"/><feGaussianBlur stdDeviation="4"/><feComposite in2="hardAlpha" operator="out"/><feColorMatrix values="0 0 0 0 0 0 0 0 0 0 0 0 0 0 0 0 0 0 0.2 0"/><feBlend in2="BackgroundImageFix" result="effect1_dropShadow_207_6036"/><feBlend in="SourceGraphic" in2="effect1_dropShadow_207_6036" result="shape"/></filter></defs></svg>