<svg width="40" height="40" fill="none" xmlns="http://www.w3.org/2000/svg"><path d="M30 10c0-.92-.746-1.667-1.667-1.667h-.29a4.998 4.998 0 0 1-4.71 3.334h-6.666a4.997 4.997 0 0 1-4.71-3.334h-.29C10.747 8.333 10 9.08 10 10v21.667c0 .92.746 1.666 1.667 1.666h16.666c.92 0 1.667-.746 1.667-1.666V10Zm-8.403 5.835a1.668 1.668 0 0 1 1.56.92l2.04 4.078h1.47a1.667 1.667 0 1 1 0 3.334h-2.5a1.667 1.667 0 0 1-1.491-.922l-.842-1.68-1.953 4.887a1.668 1.668 0 0 1-2.977.24l-2.015-3.359h-1.556a1.667 1.667 0 0 1 0-3.333h2.5c.586 0 1.128.307 1.43.809l.77 1.284 2.086-5.211.107-.22a1.667 1.667 0 0 1 1.37-.827ZM16.667 5a1.667 1.667 0 0 0 0 3.333h6.666a1.667 1.667 0 1 0 0-3.333h-6.666Zm16.666 26.667a5 5 0 0 1-5 5H11.667a5 5 0 0 1-5-5V10a5 5 0 0 1 5-5h.29a4.997 4.997 0 0 1 4.71-3.333h6.666A4.998 4.998 0 0 1 28.043 5h.29a5 5 0 0 1 5 5v21.667Z" fill="#CF9766"/></svg>