<svg width="24" height="24" fill="none" xmlns="http://www.w3.org/2000/svg"><path d="M11.794.75a5.738 5.738 0 1 0 0 11.476 5.738 5.738 0 0 0 0-11.476Zm0 8.11a2.372 2.372 0 1 1 0-4.744 2.372 2.372 0 0 1 0 4.744Zm2.026 7.932c2.296-.468 3.673-1.556 3.746-1.614a1.56 1.56 0 0 0-1.952-2.435c-.014.012-1.483 1.138-3.898 1.14-2.416-.002-3.915-1.128-3.93-1.14a1.56 1.56 0 0 0-1.952 2.435c.074.059 1.507 1.175 3.869 1.632l-3.291 3.44a1.56 1.56 0 1 0 2.246 2.166l3.058-3.257 3.366 3.278a1.56 1.56 0 1 0 2.205-2.208l-3.468-3.437Zm-2.103-2.909c-.007 0 .006 0 0 0-.007 0 .006 0 0 0Z" fill="#fff"/></svg>