<svg width="19" height="19" fill="none" xmlns="http://www.w3.org/2000/svg"><path d="m17.6 11.974-2-2.002c-.928-.93-2.436-1.006-3.367-.073l-.964.966c-.032 0-.232.328-.661.203-.544-.16-1.02-.72-2.604-2.306-.397-.397-.64-.742-.722-1.025-.054-.184-.067-.392.202-.662l.964-.965c.926-.927.862-2.437-.072-3.372l-2-2.002c-.934-.936-2.442-1-3.368-.073L.617 3.058c-.402.386-.61.918-.617 1.58-.03 2.606 3.354 7.233 4.917 8.798 1.69 1.692 6.214 4.898 8.783 4.897.603 0 1.162-.164 1.579-.59l2.394-2.397c.908-.91.876-2.422-.073-3.372Z" fill="#F70"/></svg>