<svg width="399" height="366" fill="none" xmlns="http://www.w3.org/2000/svg"><path d="M399 83.92c0-14.133-11.566-25.696-25.702-25.696-9.478 0-135.097 5.14-216.541 12.848C234.988 46.982 352.254 3.943 361.089.249c13.173-5.46 19.277-20.395 13.815-33.564-5.461-13.169-20.401-19.272-33.573-13.811-8.193 3.372-107.949 49.624-179.915 86.882 62.006-52.354 142.807-126.71 149.233-132.973 9.96-9.957 9.96-26.338 0-36.295s-26.345-9.957-36.304 0c-6.747 6.745-91.404 98.606-143.611 161.72 38.232-72.268 91.082-186.291 94.777-195.124 5.461-13.169-.804-28.104-13.976-33.564-13.172-5.46-28.112.803-33.573 13.972-3.374 8.351-42.248 114.023-66.665 191.59 6.747-81.1 11.405-192.393 11.405-201.387C122.702-206.437 111.136-218 97-218c-14.136 0-25.702 11.563-25.702 25.695 0 9.315 4.98 129.12 12.369 210.541-24.256-78.05-66.183-192.233-69.878-200.905-5.461-13.169-20.4-19.271-33.573-13.811-13.172 5.46-19.277 20.395-13.815 33.564 3.534 8.512 53.332 115.79 91.243 188.218C5.276-37.33-73.76-123.088-80.184-129.512c-9.96-9.957-26.345-9.957-36.304 0-9.96 9.957-9.96 26.338 0 36.295 6.425 6.424 90.278 83.67 152.606 136.024-72.448-37.74-177.184-86.24-185.698-89.612-13.172-5.46-28.111.803-33.573 13.972-5.462 13.169.803 28.104 13.975 33.564 8.675 3.694 124.977 46.252 203.208 70.341-81.444-7.548-204.011-12.526-213.328-12.526-14.136 0-25.702 11.563-25.702 25.695s11.566 25.695 25.702 25.695c8.996 0 119.354-4.496 200.156-11.402-77.428 24.571-181.682 62.953-189.875 66.326-13.172 5.46-19.277 20.395-13.815 33.564 5.462 13.169 20.401 19.272 33.573 13.812 8.836-3.694 122.889-56.53 195.176-94.912-62.97 52.033-155.498 137.309-162.245 144.054-9.959 9.957-9.959 26.338 0 36.294 9.96 9.957 26.345 9.957 36.305 0 6.264-6.263 81.604-88.006 133.972-150.156-37.268 72.107-83.693 172.319-87.066 180.509-5.462 13.169.803 28.104 13.975 33.564 13.173 5.461 28.112-.802 33.574-13.971 3.534-8.672 45.782-123.82 69.878-201.869-7.55 81.422-12.69 205.081-12.69 214.556 0 14.132 11.564 25.695 25.7 25.695s25.702-11.563 25.702-25.695c0-9.154-4.819-124.623-11.887-205.884 24.578 77.728 63.934 184.685 67.308 193.036 5.461 13.169 20.401 19.272 33.573 13.811 13.172-5.46 19.277-20.395 13.815-33.564-3.534-8.512-52.529-114.184-90.439-186.452 52.368 62.793 132.526 149.675 138.952 156.26 9.959 9.957 26.344 9.957 36.304 0s9.96-26.338 0-36.295c-6.586-6.584-96.062-88.97-159.032-141.324 72.448 37.901 181.361 88.328 189.875 91.861 13.172 5.46 28.111-.803 33.573-13.972 5.462-13.169-.803-28.104-13.976-33.564-8.353-3.373-112.928-41.755-190.517-66.326 81.123 7.066 193.569 11.562 202.565 11.562A25.47 25.47 0 0 0 399 83.92Z" fill="#F70" fill-opacity=".05"/></svg>