<svg width="32" height="32" fill="none" xmlns="http://www.w3.org/2000/svg"><path d="M1.333 8.899a1.333 1.333 0 0 1 1.965-1.173l11.008 5.927c1.87 1.006 1.87 3.688 0 4.695L3.298 24.275a1.334 1.334 0 0 1-1.953-.99l-.012-.183V8.899ZM4 20.869 13.042 16 4 11.13v9.739Z" fill="#fff"/><path d="M13.333 3.417a1.333 1.333 0 0 1 1.892-1.21l12.82 5.916c1.032.477 1.032 1.945 0 2.422l-12.82 5.915a1.333 1.333 0 0 1-1.88-1.031l-.012-.179V3.417ZM16 13.166l8.302-3.832L16 5.5v7.666Z" fill="#fff"/><path d="M13.333 16.75a1.333 1.333 0 0 1 1.892-1.21l12.82 5.916c1.032.477 1.032 1.945 0 2.422l-12.82 5.915a1.333 1.333 0 0 1-1.88-1.031l-.012-.178V16.75ZM16 26.5l8.302-3.832L16 18.834v7.665Z" fill="#fff"/></svg>