<svg xmlns="http://www.w3.org/2000/svg"><style>:root svg:not(:target){display:none}</style><svg id="404-back" viewBox="0 0 1279 1189" fill="none"><path d="m750.56 595.513 200.692 72.715L1279 549.651 951.252 430.772 750.56 503.487l193.449-90.516L1091.89 97.369 775.911 245.213l-90.538 193.404 72.732-200.947L639.5-90 520.895 237.67l72.732 200.947-90.538-193.404L187.112 97.369l147.879 315.602 193.449 90.516-200.692-72.715L0 549.651l327.748 118.577 200.692-72.715-193.449 90.516-147.879 315.601 315.977-147.843 90.538-193.404-72.732 200.947L639.5 1189l118.605-327.67-72.732-200.947 90.538 193.404 315.979 147.843-147.881-315.601-193.449-90.516Z" fill="#fff" fill-opacity=".5"/></svg><svg id="article-back-1" viewBox="0 0 520 634" fill="none"><path d="m256.229 183.534-100.696 66.838 66.822-100.535C284.92 55.596 245.493-80.673 146.093-114 46.507-80.488 7.08 55.781 69.645 149.837l66.822 100.535-100.51-66.838C-58.262 120.953-194.497 160.39-228 260c33.504 99.61 169.74 139.047 263.771 76.466l100.511-66.838L69.46 370.163C7.08 464.404 46.507 600.673 146.093 634c99.585-33.512 139.012-169.781 76.447-263.837l-66.822-100.535 100.511 66.838C350.446 399.047 486.496 359.61 520 260c-33.504-99.61-169.554-139.047-263.771-76.466Z" fill="#fff" fill-opacity=".5"/></svg><svg id="article-back-2" viewBox="0 0 482 634" fill="none"><path d="M223.258 260c471.855 0 196.652-476.025-39.367-67.924 235.835-408.101-314.57-408.101-78.55 0C-130.494-216.025-405.697 260 65.973 260c-471.854 0-196.652 476.025 39.368 67.924-235.835 408.101 314.569 408.101 78.55 0C419.726 736.21 694.928 260 223.258 260Z" fill="#fff" fill-opacity=".5"/></svg><svg id="article-back-3" viewBox="0 0 520 634" fill="none"><path d="M146 133.457 300.865-114l-65.359 284.494L520 105.135 272.543 260 520 414.865l-284.494-65.359L300.865 634 146 386.543-8.865 634l65.36-284.494L-228 414.865 19.457 260-228 105.135l284.494 65.359L-8.865-114 146 133.457Z" fill="#fff" fill-opacity=".5"/></svg><svg id="article-back-4" viewBox="0 0 507 607" fill="none"><path d="m180.481 542.869 103.613 54.382c56.788 29.771 122.941-18.26 112.181-81.176l-19.726-114.917c-4.384-25.008 3.985-50.413 22.316-68.276l83.887-81.374c45.829-44.657 20.523-122.261-42.84-131.391l-115.967-16.87c-25.106-3.572-47.024-19.45-58.182-42.077L213.956-43.426c-28.294-57.16-110.387-57.16-138.682 0L23.468 61.17C12.11 83.995-9.608 99.675-34.715 103.248l-115.966 16.87c-63.364 9.13-88.669 86.734-42.84 131.391l83.886 81.374c18.133 17.665 26.501 43.268 22.317 68.276l-19.726 114.917c-10.76 62.916 55.393 110.947 112.18 81.176l103.613-54.382c22.317-11.71 49.216-11.71 71.732 0Z" fill="#fff" fill-opacity=".5"/></svg><svg id="arrow-down" width="22" height="22" viewBox="0 0 22 22" fill="none"><path fill-rule="evenodd" clip-rule="evenodd" d="M18.064 7.602a.917.917 0 0 1 0 1.296l-6.416 6.417a.917.917 0 0 1-1.296 0L3.934 8.898A.917.917 0 1 1 5.23 7.602L11 13.37l5.768-5.768a.917.917 0 0 1 1.296 0Z" fill="#2D3F59"/></svg><svg id="arrow-left" width="24" height="24" viewBox="0 0 24 24" fill="none"><path fill-rule="evenodd" clip-rule="evenodd" d="M10.707 4.293a1 1 0 0 0-1.414 0l-7 7a1 1 0 0 0 0 1.414l7 7a1 1 0 0 0 1.414-1.414L5.414 13H21a1 1 0 1 0 0-2H5.414l5.293-5.293a1 1 0 0 0 0-1.414Z" fill="#fff"/></svg><svg id="arrow-right" width="20" height="20" viewBox="0 0 20 20" fill="none"><path fill-rule="evenodd" clip-rule="evenodd" d="M11.078 3.577a.833.833 0 0 1 1.178 0l5.834 5.834a.833.833 0 0 1 0 1.178l-5.834 5.834a.833.833 0 0 1-1.178-1.179l4.41-4.41H2.5a.833.833 0 1 1 0-1.667h12.99l-4.411-4.411a.833.833 0 0 1 0-1.179Z" fill="#fff"/></svg><svg id="arrow-up" viewBox="0 0 30 30"><path fill-rule="evenodd" clip-rule="evenodd" d="M5.366 13.384a1.25 1.25 0 0 1 0-1.768l8.75-8.75a1.25 1.25 0 0 1 1.768 0l8.75 8.75a1.25 1.25 0 0 1-1.768 1.768L16.25 6.768V26.25a1.25 1.25 0 1 1-2.5 0V6.768l-6.616 6.616a1.25 1.25 0 0 1-1.768 0Z"/></svg><svg id="bank" viewBox="0 0 32 32"><path d="M28 28a1.333 1.333 0 0 1 0 2.667H4A1.333 1.333 0 0 1 4 28h24ZM6.667 24v-9.333a1.333 1.333 0 1 1 2.666 0V24a1.333 1.333 0 1 1-2.666 0ZM12 24v-9.333a1.333 1.333 0 1 1 2.667 0V24A1.333 1.333 0 1 1 12 24Zm5.333 0v-9.333a1.333 1.333 0 1 1 2.667 0V24a1.333 1.333 0 0 1-2.667 0Zm5.334 0v-9.333a1.333 1.333 0 0 1 2.666 0V24a1.333 1.333 0 1 1-2.666 0ZM15.293 1.537c.432-.27.982-.27 1.414 0l10.667 6.666a1.333 1.333 0 0 1-.707 2.464H5.333a1.333 1.333 0 0 1-.707-2.464l10.667-6.666ZM9.982 8h12.036L16 4.238 9.982 8Z"/></svg><svg id="blood" viewBox="0 0 40 40" fill="none"><path d="M2.5 23.3c0-5.28 3.468-10.24 6.589-13.684a48.44 48.44 0 0 1 5.836-5.432c.177-.138.317-.245.415-.319l.114-.086.031-.023.01-.006.003-.003a1.668 1.668 0 0 1 1.965 0l.003.001.005.003.018.014.06.043.216.165c.186.142.452.35.78.615a49.18 49.18 0 0 1 2.593 2.258 1.667 1.667 0 0 1-2.276 2.436 45.869 45.869 0 0 0-2.38-2.075 45.134 45.134 0 0 0-4.922 4.647C8.522 15.205 5.832 19.35 5.832 23.3c0 4.128 1.541 6.535 3.496 7.967 2.04 1.493 4.73 2.065 7.152 2.065 3.971 0 8.42-1.485 10.007-5.93a1.668 1.668 0 0 1 3.14 1.12c-2.295 6.43-8.622 8.143-13.147 8.143-2.856 0-6.323-.66-9.121-2.71-2.882-2.11-4.86-5.554-4.86-10.655Zm5.278.264a1.667 1.667 0 0 1 3.334 0c0 1.63.561 2.435 1.14 2.881.654.504 1.572.73 2.47.731a1.667 1.667 0 1 1 0 3.333c-1.364 0-3.084-.33-4.504-1.424-1.494-1.151-2.44-2.986-2.44-5.52Zm26.389-6.881c0-2.067-1.39-4.344-3.103-6.29a25.42 25.42 0 0 0-2.267-2.257c-.265.234-.57.51-.897.824-1.1 1.061-2.391 2.496-3.308 4.07-.736 1.263-1.166 2.505-1.166 3.653 0 2.247.802 3.45 1.724 4.145 1 .754 2.364 1.07 3.646 1.07s2.646-.316 3.647-1.07c.922-.694 1.724-1.898 1.724-4.145Zm3.333 0c0 3.182-1.209 5.42-3.052 6.808-1.764 1.33-3.919 1.74-5.652 1.74-1.734 0-3.888-.411-5.651-1.74-1.843-1.389-3.052-3.626-3.052-6.808 0-1.95.716-3.782 1.618-5.33 1.133-1.947 2.665-3.623 3.875-4.79a29.176 29.176 0 0 1 2.02-1.776l.133-.105.04-.029.01-.01.004-.001.003-.003a1.667 1.667 0 0 1 2 0l-1 1.333 1.002-1.332.002.002.006.005.021.016c.017.013.041.03.07.054a26.108 26.108 0 0 1 1.099.913 28.792 28.792 0 0 1 2.57 2.56c1.805 2.051 3.934 5.13 3.934 8.493Z" fill="#CF9766"/></svg><svg id="book" width="24" height="24" viewBox="0 0 24 24" fill="none" xmlns="http://www.w3.org/2000/svg"><g clip-path="url(#clip0_540_11550)"><path d="M3.67 2.832a.855.855 0 0 0-.854.859V16.57c0 .472.385.858.86.859 1.998.005 5.348.421 7.658 2.839V6.79c0-.16-.04-.31-.118-.435C9.319 3.3 5.675 2.837 3.671 2.832ZM21.184 16.57V3.69a.855.855 0 0 0-.854-.859h-.002c-2.003.005-5.648.469-7.544 3.523a.823.823 0 0 0-.118.435v13.477c2.31-2.418 5.66-2.835 7.659-2.84a.862.862 0 0 0 .86-.858Z" fill="#71C011"/><path d="M23.142 5.802h-.623V16.57a2.197 2.197 0 0 1-2.19 2.192c-1.696.004-4.492.336-6.472 2.21 3.425-.839 7.035-.294 9.092.175A.857.857 0 0 0 24 20.31V6.661a.86.86 0 0 0-.858-.859ZM1.481 16.57V5.801H.86a.86.86 0 0 0-.86.86v13.648a.857.857 0 0 0 1.05.837c2.058-.47 5.668-1.014 9.093-.176-1.98-1.873-4.776-2.205-6.472-2.209a2.197 2.197 0 0 1-2.19-2.192Z" fill="#71C011"/></g><defs><clipPath id="clip0_540_11550"><path fill="#fff" d="M0 0h24v24H0z"/></clipPath></defs></svg><svg id="burger-services" width="24" height="24" viewBox="0 0 24 24" fill="none" xmlns="http://www.w3.org/2000/svg"><path d="M20 8a1 1 0 1 1 0 2H4a1 1 0 0 1 0-2h16Zm-5 6a1 1 0 1 1 0 2H4a1 1 0 1 1 0-2h11Z" fill="#F70"/></svg><svg id="calendar" width="24" height="24" viewBox="0 0 24 24" fill="none"><path d="M16 2v4M8 2v4m-5 4h18M8 14h.01M12 14h.01M16 14h.01M8 18h.01M12 18h.01M16 18h.01M5 4h14a2 2 0 0 1 2 2v14a2 2 0 0 1-2 2H5a2 2 0 0 1-2-2V6a2 2 0 0 1 2-2Z" stroke="#CF9766" stroke-width="2" stroke-linecap="round" stroke-linejoin="round"/></svg><svg id="call" width="192" height="192" viewBox="0 0 192 192" fill="none"><rect width="80" height="80" rx="40" fill="#CF9766"/><path d="M45.169 43.985a2.526 2.526 0 0 0-3.085 1.411 5.253 5.253 0 0 0-.083.207 14.437 14.437 0 0 1-4.244-2.809l-.006-.005a12.639 12.639 0 0 1-.543-.543l-.003-.004a14.453 14.453 0 0 1-2.808-4.244c.07-.026.139-.054.208-.083 1.186-.499 1.805-1.854 1.41-3.085C33.184 26 33.109 26 32.199 26A6.206 6.206 0 0 0 26 32.199C26 44.22 35.78 54 47.801 54A6.206 6.206 0 0 0 54 47.801c0-.91 0-.985-8.831-3.816Z" fill="#fff"/><path d="M39.48 38.89c-.12.46.01.95.34 1.29.34.33.83.46 1.29.34l1.74-.47c1.13.63 2.38.94 3.63.94 1.95 0 3.88-.75 5.32-2.19a7.41 7.41 0 0 0 2.2-5.3c0-2-.78-3.88-2.2-5.3-2.89-2.89-7.61-2.92-10.54-.06-2.42 2.36-2.94 6.09-1.31 9.01l-.47 1.74Zm9.02-6.62c.55 0 1 .45 1 1s-.45 1-1 1h-1v1c0 .55-.45 1-1 1s-1-.45-1-1v-1h-1c-.55 0-1-.45-1-1s.45-1 1-1h1v-1c0-.55.45-1 1-1s1 .45 1 1v1h1Z" fill="#fff"/></svg><svg id="card" viewBox="0 0 32 32"><path fill-rule="evenodd" clip-rule="evenodd" d="M2.667 10.666A5.333 5.333 0 0 1 8 5.333h16a5.333 5.333 0 0 1 5.333 5.333v10.667A5.333 5.333 0 0 1 24 26.666H8a5.333 5.333 0 0 1-5.333-5.333V10.666ZM8 8a2.667 2.667 0 0 0-2.667 2.666v10.667A2.667 2.667 0 0 0 8 24h16a2.667 2.667 0 0 0 2.667-2.667V10.666A2.667 2.667 0 0 0 24 8H8Z"/><path fill-rule="evenodd" clip-rule="evenodd" d="M28 14.667H4V12h24v2.667ZM17.333 20c0-.736.597-1.333 1.334-1.333h4a1.333 1.333 0 1 1 0 2.667h-4A1.333 1.333 0 0 1 17.333 20Z"/></svg><svg id="certificate" width="24" height="24" viewBox="0 0 24 24" fill="none"><g clip-path="url(#clip0_540_6494)"><path d="M16.825 16.575c-.795 0-1.52-.47-1.845-1.195l-.055-.12-1.84 4.56 2.25-.87 1.02 2.185 1.32-3.27-.535-1.32c-.105.02-.21.03-.315.03Zm4.63-1.195a2.026 2.026 0 0 1-1.845 1.195c-.35 0-.7-.095-1.005-.27l-.245-.14-.15.365 1.865 4.61 1.02-2.185 2.245.87-1.84-4.545-.045.1Z" fill="#71C011"/><path d="m14.825 20.225-3.525 1.36 2.715-6.73a2.037 2.037 0 0 1-1.085-.75 2.028 2.028 0 0 1-.345-1.6l.09-.425-.33-.315c-.42-.38-.66-.925-.66-1.495 0-.57.24-1.115.66-1.495l.325-.295-.085-.45a2.019 2.019 0 0 1 1.76-2.42l.44-.045.195-.41a2.022 2.022 0 0 1 2.845-.925l.35.2V1.945c0-.935-.755-1.695-1.695-1.695H1.94C1.005.25.25 1.01.25 1.945V22.05c0 .94.755 1.695 1.69 1.695h14.535a1.69 1.69 0 0 0 1.695-1.695v-2.745l-1.75 4.345-1.595-3.425ZM3.43 4.365h10.555v1H3.43v-1Zm0 3.57h7.785v1H3.43v-1Zm0 3.565h7.785v1H3.43v-1Zm-.005 3.57h9.035v1H3.425v-1Zm0 3.565h7.785v1H3.425v-1Z" fill="#71C011"/><path d="m23.415 9.51-.325-.295a1.035 1.035 0 0 1-.315-.96l.09-.435a1.02 1.02 0 0 0-.89-1.22l-.435-.05c-.36-.04-.67-.265-.82-.595l-.18-.4a1.022 1.022 0 0 0-1.435-.47l-.38.22c-.315.18-.7.18-1.015 0l-.38-.22c-.525-.3-1.19-.08-1.435.47l-.18.4c-.15.33-.46.555-.82.595l-.44.05c-.6.065-1.01.635-.89 1.225l.09.43c.075.355-.045.72-.315.965l-.325.295a1.02 1.02 0 0 0 0 1.51l.325.295c.27.245.385.61.315.965l-.09.43c-.125.59.29 1.16.89 1.225l.44.05c.36.04.67.265.82.595l.18.4c.245.55.915.77 1.44.465l.38-.22c.315-.18.7-.18 1.015 0l.38.22c.525.3 1.19.085 1.44-.465l.18-.4c.15-.33.46-.56.82-.595l.435-.05c.6-.065 1.01-.63.89-1.22l-.09-.43c-.075-.355.045-.72.315-.96l.325-.295c.435-.42.435-1.12-.01-1.525Zm-5.2 3.365a2.614 2.614 0 1 1 0-5.23 2.614 2.614 0 1 1 0 5.23Z" fill="#71C011"/></g></svg><svg id="city" width="20" height="20" viewBox="0 0 20 20" fill="none"><path d="M10 .833c4.282 0 7.767 3.484 7.767 7.767 0 2.442-2.15 5.342-3.431 6.853-.031.037-3.18 3.714-4.336 3.714-.956 0-3.507-2.75-4.325-3.713C4.39 13.941 2.233 11.04 2.233 8.6 2.233 4.317 5.718.833 10 .833Zm0 5a2.5 2.5 0 1 0 0 5 2.5 2.5 0 0 0 0-5Z" fill="#F70"/></svg><svg id="credit" viewBox="0 0 32 32"><path fill-rule="evenodd" clip-rule="evenodd" d="M2.667 10.667A6.667 6.667 0 0 1 9.333 4h13.334a6.667 6.667 0 0 1 6.666 6.667V16a1.333 1.333 0 0 1-2.666 0v-5.333a4 4 0 0 0-4-4H9.333a4 4 0 0 0-4 4v12a4 4 0 0 0 4 4H16a1.333 1.333 0 0 1 0 2.666H9.333a6.667 6.667 0 0 1-6.666-6.666v-12Z"/><path fill-rule="evenodd" clip-rule="evenodd" d="M10.667 2.667C11.403 2.667 12 3.264 12 4v4a1.333 1.333 0 1 1-2.667 0V4c0-.736.597-1.333 1.334-1.333ZM8 13.333C8 12.597 8.597 12 9.333 12h13.334a1.333 1.333 0 0 1 0 2.667H9.333A1.333 1.333 0 0 1 8 13.333ZM21.333 2.667c.737 0 1.334.597 1.334 1.333v4A1.333 1.333 0 0 1 20 8V4c0-.736.597-1.333 1.333-1.333ZM24 21.334a2.667 2.667 0 1 0 0 5.333 2.667 2.667 0 0 0 0-5.333ZM18.667 24a5.333 5.333 0 1 1 10.666 0 5.333 5.333 0 0 1-10.666 0Z"/></svg><svg id="doctor" width="20" height="20" viewBox="0 0 20 20" fill="none"><path d="M15 14.584c0-1.963-1.13-3.66-2.78-4.48-.62.458-1.389.73-2.22.73-.832 0-1.6-.272-2.222-.73A4.999 4.999 0 0 0 5 14.584v1.666c0 .46.373.834.833.834h8.334c.46 0 .833-.374.833-.834v-1.666Zm-5.833 1.25V15h-.834a.833.833 0 0 1 0-1.666h.834V12.5a.833.833 0 1 1 1.666 0v.834h.834a.833.833 0 0 1 0 1.666h-.834v.834a.833.833 0 0 1-1.666 0Zm2.916-10H7.917v1.25a2.083 2.083 0 1 0 4.166 0v-1.25Zm0-2.5a.833.833 0 0 0-.833-.834h-2.5a.833.833 0 0 0-.833.833v.834h4.166v-.833Zm1.667 3.75a3.74 3.74 0 0 1-.42 1.723 6.663 6.663 0 0 1 3.337 5.777v1.666a2.5 2.5 0 0 1-2.5 2.5H5.833a2.5 2.5 0 0 1-2.5-2.5v-1.666A6.664 6.664 0 0 1 6.67 8.806a3.733 3.733 0 0 1-.42-1.724v-3.75a2.5 2.5 0 0 1 2.5-2.5h2.5a2.5 2.5 0 0 1 2.5 2.5v3.75Z" fill="#fff"/></svg><svg id="emergency" viewBox="0 0 284 284" fill="none"><rect width="284" height="284" rx="142" fill="url(#paint0_linear_325_14055)"/><path d="m196.731 212.566-12.122 12.107c-13.401 13.402-60.384 4.219-94.992-30.29-34.608-34.51-43.692-81.591-30.29-94.992 10.757-10.716.506-.52 12.121-12.108a5.71 5.71 0 0 1 8.086 0l28.294 28.279a5.738 5.738 0 0 1 0 8.086c-15.047 14.991-18.886 18.9-20.208 20.208-10.884 10.8 41.724 63.422 52.524 52.524 13.247-13.247 18.618-18.633 20.207-20.194a5.716 5.716 0 0 1 6.232-1.242c.694.288 1.324.71 1.854 1.242l28.294 28.28a5.753 5.753 0 0 1 0 8.1Z" fill="#7AA8D7"/><path d="M87.155 144.377c-1.504-4.219-1.406-7.313.408-9.085l20.025-20.011a5.78 5.78 0 0 1 .239 8.438c-21.487 21.417-20.433 20.306-20.672 20.658Z" fill="#5B8DC9"/><path d="m196.73 212.566-12.122 12.107c-13.401 13.402-60.384 4.219-94.992-30.29-26.226-26.227-37.8-59.611-36.028-80.044 1.477 20.405 13.19 48.642 36.028 71.466 34.608 34.579 81.563 43.706 94.992 30.304l11.883-11.868a5.771 5.771 0 0 1 1.891 4.111 5.78 5.78 0 0 1-1.652 4.214Z" fill="#5B8DC9"/><path d="M179.153 53.406c-47.56 0-69.68 59.513-33.385 90.535l-12.347 12.347h45.732a51.443 51.443 0 0 0 36.374-87.815 51.443 51.443 0 0 0-36.374-15.067Z" fill="#FFA600"/><path d="M179.152 139.145c18.942 0 34.298-15.356 34.298-34.298 0-18.943-15.356-34.298-34.298-34.298-18.943 0-34.298 15.355-34.298 34.298 0 18.942 15.355 34.298 34.298 34.298Z" fill="#F70"/><path d="M199.148 99.138h-14.287V84.85h-11.433v14.288h-14.287v11.432h14.287v14.288h11.433V110.57h14.287V99.138Z" fill="#fff"/><path d="m191.345 217.938-1.983 1.982-36.38-36.379 1.983-1.983 36.38 36.38Zm-88.904-88.904-1.983 1.983-36.38-36.365 1.983-1.997 36.38 36.379Z" fill="#5B8DC9"/></svg><svg id="experts" width="220" height="220" viewBox="0 0 220 220" fill="none"><rect width="220" height="220" rx="110" fill="#fff"/><path d="M110 67.365c9.701 0 17.565-7.864 17.565-17.565S119.701 32.234 110 32.234 92.435 40.1 92.435 49.8 100.299 67.365 110 67.365Z" fill="#F70"/><path d="M110 67.352c-11.22 0-19.17-10.418-17.355-20.07a17.528 17.528 0 0 0 34.71 0c1.815 9.64-6.11 20.07-17.355 20.07Z" fill="#DB6904"/><path d="M117.53 74.882c0 10.183.629-5.407-3.864 88.875-1.136 23.453-.728 22.527-2.185 23.453a2.533 2.533 0 0 1-3.185-.173c-1.148-.926-.839-.37-1.604-16.047 0-8.221-4.222-76.617-4.222-96.17a7.53 7.53 0 0 1 15.06 0v.062Z" fill="#949AAF"/><path d="M115.036 134.811c-.592 12.208-.444 8.999-.691 14.418l-8.764-.963c-.247-5.999-.099-2.716-.704-14.998 1.864.247 7.728 1.123 10.159 1.543Z" fill="#8288A1"/><path d="M187.766 67.353a10.036 10.036 0 0 1-10.036 10.035 10.035 10.035 0 0 1-10.035 10.035 10.036 10.036 0 0 1-10.036 10.036h-40.857l.493-10.06a18.134 18.134 0 0 0 15.282-10.011 18.174 18.174 0 0 1 16.232-10.035h38.957Zm-85.061 20.046a18.158 18.158 0 0 1-15.282-10.011 18.17 18.17 0 0 0-16.232-10.035H32.234A10.036 10.036 0 0 0 42.27 77.388a10.035 10.035 0 0 0 10.035 10.035A10.036 10.036 0 0 0 62.341 97.46h40.858" fill="#D4D8E1"/><path d="M103.199 97.459H62.341a10.036 10.036 0 0 1-10.036-10.035A10.035 10.035 0 0 1 42.27 77.388a10.036 10.036 0 0 1-10.036-10.035h38.957a18.17 18.17 0 0 1 16.232 10.035 18.12 18.12 0 0 0 15.282 10.01l.494 10.06Z" fill="#D4D8E1"/><path d="M139.625 116.172c-5.962 3.283-16.467 4.271-23.935 5.135l.482-10.208c19.935-2.173 17.651-4.395 21.268-4.037a4.932 4.932 0 0 1 4.142 6.792 4.939 4.939 0 0 1-1.957 2.318Zm-7.048 31.452c0 9.875-9.27 13.775-18.911 16.182l.494-10.504c2.888-.864 8.381-2.679 8.381-5.678-3.9-5.666-42.647-.901-42.647-20.059 0-10.751 13.368-13.393 24.008-14.961l.482 10.11c-2.667.407-14.455 2.16-14.455 4.851 0 4.444 17.985 6.024 25.107 7.246 8.542 1.506 17.541 4.246 17.541 12.813Z" fill="#FBCC88"/><path d="M112.938 179.125c-.284 5.987 0 7.221-1.457 8.171-4.839-.222-3.974.988-4.518-10.628 2.012.84 4.061 1.692 5.975 2.457Z" fill="#8288A1"/><path d="M122.171 182.717c-11.936-.926-37.254.667-37.254-12.516 0-9.974 11.381-12.603 20.985-14.813l.494 10.159c-1.975.506-11.48 2.679-11.48 4.666 1.173 2.654 24.478 11.455 27.255 12.504Z" fill="#FBCC88"/><path d="M79.894 84.917H53.688a6.926 6.926 0 0 1-6.79-4.937c-.061-.247-.802 0 22.96 0a2.506 2.506 0 1 0 0-5.012H44.442a7.777 7.777 0 0 1-7.912-7.406c0-.247.247-.086-4.296-.086A10.06 10.06 0 0 0 42.27 77.51a10.048 10.048 0 0 0 10.035 10.035 10.036 10.036 0 0 0 10.036 10.036h4.283a9.998 9.998 0 0 1-9.702-7.653h22.972a2.505 2.505 0 1 0 0-5.012ZM183.47 67.353a7.778 7.778 0 0 1-7.912 7.53h-25.416a2.505 2.505 0 1 0 0 5.01h22.972c-1.235 4.938-6.456 5.025-6.802 5.025h-26.206a2.503 2.503 0 0 0-2.505 2.505 2.505 2.505 0 0 0 2.505 2.506h22.972a9.994 9.994 0 0 1-9.702 7.53h4.283a10.034 10.034 0 0 0 10.036-10.035 10.062 10.062 0 0 0 10.035-10.036 10.06 10.06 0 0 0 10.036-10.035h-4.296Zm-80.765 20.046.494 10.06h-5.037l-.53-11.11c1.632.59 3.34.943 5.073 1.05Zm19.639-1-.531 11.11h-5.011l.493-10.06a18.233 18.233 0 0 0 5.049-1.05Z" fill="#C7CDD8"/><path d="M104.384 122.714c-5.753.864-4.938 1.16-5.024.259l-.47-9.541c1.605-.321 3.284-.568 4.938-.828l.556 10.11Zm2.049 42.833c-1.506.382-3.284.827-4.938 1.308-.062-1.432 0 .531-.506-10.282 1.666-.432 3.345-.803 4.938-1.235l.506 10.209Zm7.727-12.245a30.47 30.47 0 0 0 5.122-1.963c-.123 2.79 0 .457-.53 11.011a65.147 65.147 0 0 1-5.086 1.457l.494-10.505Zm7.073-42.821c0 1.235 0-.506-.494 10.209l-5.073.592.506-10.183c1.605-.173 3.333-.371 5.061-.618Z" fill="#F6B756"/><path d="M108.766 57.317V42.27A1.236 1.236 0 0 1 110 41.036a1.236 1.236 0 0 1 1.234 1.234v15.047A1.236 1.236 0 0 1 110 58.551a1.236 1.236 0 0 1-1.234-1.234Z" fill="#fff"/><path d="M117.53 51.034h-15.06a1.237 1.237 0 0 1-1.234-1.235 1.236 1.236 0 0 1 1.234-1.234h15.06a1.232 1.232 0 0 1 1.234 1.234 1.233 1.233 0 0 1-1.234 1.235Z" fill="#fff"/></svg><svg id="eye" width="24" height="24" viewBox="0 0 24 24" fill="none"><g clip-path="url(#clip0_540_3479)"><path d="M12.703 10.594c0-.708.351-1.33.886-1.713A3.47 3.47 0 0 0 12 8.484 3.52 3.52 0 0 0 8.484 12 3.52 3.52 0 0 0 12 15.516a3.514 3.514 0 0 0 3.456-2.923c-1.416.456-2.753-.615-2.753-2Z" fill="#2D3F59"/><path d="M23.82 11.531c-.213-.239-5.366-5.86-11.82-5.86-6.454 0-11.607 5.621-11.82 5.86a.703.703 0 0 0 0 .938c.213.239 5.366 5.86 11.82 5.86 6.454 0 11.607-5.621 11.82-5.86a.703.703 0 0 0 0-.938ZM12 16.921A4.928 4.928 0 0 1 7.078 12 4.928 4.928 0 0 1 12 7.078 4.928 4.928 0 0 1 16.922 12 4.928 4.928 0 0 1 12 16.922Z" fill="#2D3F59"/></g></svg><svg id="features-1" width="275" height="275" viewBox="0 0 275 275" fill="none"><path d="M222.037 96.728v140.055a14.744 14.744 0 0 0 29.491 0V96.728h-29.491Z" fill="#9B756D"/><path d="M210.992 236.783h25.791V37.745h-25.791v199.038Z" fill="#E4E8EF"/><path d="M210.993 23H34.065v103.201h176.928V23Z" fill="#fff"/><path d="M222.037 236.783V126.146H96.727l-11.063-11.045H23v121.627a14.746 14.746 0 0 0 14.746 14.8h199.037a14.748 14.748 0 0 1-13.623-9.102 14.749 14.749 0 0 1-1.123-5.643Z" fill="#D1A788"/><path d="M222.037 236.783V126.146H96.727l-11.063-11.045H23v121.627a14.746 14.746 0 0 0 14.746 14.8h199.037a14.748 14.748 0 0 1-13.623-9.102 14.749 14.749 0 0 1-1.123-5.643Z" fill="#D1A788"/><path d="M236.783 251.528H37.746A14.743 14.743 0 0 1 23 236.783v-11.064a14.728 14.728 0 0 0 14.745 14.746H222.51a14.69 14.69 0 0 0 14.274 11.063Z" fill="#CBA07A"/><path d="M81.981 100.409c16.288 0 29.491-13.203 29.491-29.49 0-16.288-13.203-29.492-29.49-29.492-16.288 0-29.492 13.204-29.492 29.491 0 16.288 13.204 29.491 29.491 29.491Z" fill="#FBCC88"/><path d="M81.983 76.287A10.737 10.737 0 0 1 71.245 65.55v-2.648a10.737 10.737 0 1 1 21.457 0v2.666a10.737 10.737 0 0 1-10.72 10.719Z" fill="#7AA8D7"/><path d="M101.099 93.372a29.526 29.526 0 0 1-38.197 0 49.181 49.181 0 0 1 2.032-5.786 18.59 18.59 0 0 1 34.206 0 52.533 52.533 0 0 1 1.959 5.786Z" fill="#7AA8D7"/><path d="M64.879 87.587a54.161 54.161 0 0 0-1.977 5.785 29.473 29.473 0 0 1-10.139-26.135 29.544 29.544 0 0 0 12.116 20.35Zm36.219 5.785-1.469-4.389c-.599-1.977-1.106-.834 1.469-2.993a29.474 29.474 0 0 0 10.139-18.753 29.431 29.431 0 0 1-10.139 26.135Z" fill="#F6B756"/><path d="M101.099 93.372a29.526 29.526 0 0 1-38.197 0 49.181 49.181 0 0 1 2.032-5.786 29.564 29.564 0 0 0 34.206 0 52.526 52.526 0 0 1 1.959 5.786Z" fill="#5B8DC9"/><path d="M192.547 45.11h-66.346v14.745h66.346V45.109Z" fill="#DDEBEE"/><path d="M140.891 80.096H129.9a1.815 1.815 0 1 1 0-3.628h10.991a1.813 1.813 0 1 1 0 3.628Zm47.974 0h-33.172a1.815 1.815 0 1 1 0-3.628h33.172a1.813 1.813 0 1 1 0 3.628Zm-47.974 14.745H129.9a1.815 1.815 0 1 1 0-3.627h10.991a1.813 1.813 0 1 1 0 3.627Zm47.974 0h-33.172a1.815 1.815 0 1 1 0-3.627h33.172a1.813 1.813 0 1 1 0 3.627Zm-47.974 14.746H129.9a1.815 1.815 0 1 1 0-3.628h10.991a1.814 1.814 0 0 1 0 3.628Zm47.974 0h-33.172a1.815 1.815 0 1 1 0-3.628h33.172a1.814 1.814 0 0 1 0 3.628Z" fill="#949AAF"/></svg><svg id="features-2" width="275" height="275" viewBox="0 0 275 275" fill="none"><g clip-path="url(#clip0_266_7865)"><path d="M170.843 31.883a49.8 49.8 0 0 1 23.431 18.348 50.073 50.073 0 0 1 8.835 28.478v108.833H71.102V78.709a50.078 50.078 0 0 1 8.87-28.497 49.8 49.8 0 0 1 23.482-18.329h67.389Z" fill="#9B756D"/><path d="M203.13 174.315H71.188v13.248H203.13v-13.248Z" fill="#8A6762"/><path d="M189.93 99.276v22.067a53.072 53.072 0 0 1-15.459 37.457 52.688 52.688 0 0 1-37.322 15.515A52.686 52.686 0 0 1 99.826 158.8a53.071 53.071 0 0 1-15.459-37.457v-21.219s29.821-13.64 30.752-30.906h.735c17.919 21.458 56.699 30.058 74.076 30.058Z" fill="#F2C4B0"/><path d="M189.93 99.276v8.818c-13.807 0-46.765-5.56-70.289-22.196-7.682 9.382-27.18 23.043-35.274 23.043v-8.817s29.821-13.64 30.752-30.906h.735c17.919 21.458 56.699 30.058 74.076 30.058Zm0 13.249v8.818a53.072 53.072 0 0 1-15.459 37.457 52.688 52.688 0 0 1-37.322 15.515A52.686 52.686 0 0 1 99.827 158.8a53.07 53.07 0 0 1-15.46-37.457v-8.818a52.993 52.993 0 0 0 4.001 20.28 52.842 52.842 0 0 0 11.45 17.185c33.003 33.012 90.112 9.882 90.112-37.465Z" fill="#EAB39B"/><path d="M238.297 275.828H36c0-.369 6.492-42.894 6.492-43.177a52.952 52.952 0 0 1 15.57-30.278 52.614 52.614 0 0 1 30.741-14.462c4.328 0-20.017-.369 90.891-.369a52.69 52.69 0 0 1 34.41 12.85 53.05 53.05 0 0 1 17.744 32.259c5.713 38.073 5.215 34.924 6.449 43.177ZM175.67 7.558c-6.882 34.424-5.389 27.018-7.726 38.746h-61.589c-2.164-11.337-.585-2.975-7.726-38.746a140.503 140.503 0 0 1 77.041 0Z" fill="#fff"/><path d="M84.366 125.752h-4.328a13.19 13.19 0 0 1-9.678-3.682 13.248 13.248 0 0 1-3-4.362 13.291 13.291 0 0 1 3-14.75 13.19 13.19 0 0 1 9.678-3.681h4.328v26.475ZM189.93 99.276h4.328a13.193 13.193 0 0 1 9.678 3.681 13.264 13.264 0 0 1 4.057 9.557 13.277 13.277 0 0 1-4.057 9.556 13.193 13.193 0 0 1-9.678 3.682h-4.328V99.277Z" fill="#EAB39B"/><path d="M189.93 90.459v8.817c-14.737 0-51.288-6.754-72.388-26.344-6.146 13.726-29.106 27.192-33.175 27.192v-9.318c8.656-4.343 25.774-15.203 26.358-26.214a4.511 4.511 0 0 1 .66-2.908 4.48 4.48 0 0 1 2.328-1.854 4.462 4.462 0 0 1 2.971.016 4.483 4.483 0 0 1 2.308 1.879c17.053 20.372 54.578 28.734 70.938 28.734Z" fill="#8A6762"/><path d="M185.515 187.911c0 18.091-6.492 48.194-30.773 48.194a30.52 30.52 0 0 1-17.594-5.169 30.52 30.52 0 0 1-17.594 5.169c-24.194 0-30.686-30.103-30.773-48.194 5.086-.587 91.756-.587 96.734 0Z" fill="#C7CDD8"/><path d="M176.73 187.542s0 39.745-21.987 39.745c-13.201 0-17.594-8.84-17.594-8.84s-4.328 8.84-17.594 8.84c-21.987 0-21.987-39.745-21.987-39.745h79.162Z" fill="#fff"/><path d="M154.742 171.274v16.268l-17.593 30.905-17.594-30.905v-16.268a52.47 52.47 0 0 0 35.187 0Z" fill="#F2C4B0"/><path d="M238.297 275.828H36c.974-6.515.325-2.172 1.97-13.248h198.357c1.472 10.034 1.017 6.885 1.97 13.248Zm-68.6-238.341-1.753 8.817h-61.59l-1.752-8.817h65.095Z" fill="#C7CDD8"/><path d="M126.327 149.86a2.183 2.183 0 0 1 .201-2.839 2.162 2.162 0 0 1 2.829-.202 11 11 0 0 0 7.791 3.24 10.996 10.996 0 0 0 7.79-3.24 2.159 2.159 0 0 1 2.829.202 2.175 2.175 0 0 1 .201 2.839 15.361 15.361 0 0 1-10.82 4.463c-4.052 0-7.94-1.604-10.821-4.463Z" fill="#D97C6B"/><path d="M108.604 112.525v-4.344a2.163 2.163 0 0 1 3.694-1.536c.406.408.634.96.634 1.536v4.344c0 .576-.228 1.128-.634 1.536a2.16 2.16 0 0 1-3.694-1.536Zm48.367 0v-4.344c0-.576.228-1.128.634-1.536a2.16 2.16 0 0 1 3.06 0c.406.408.634.96.634 1.536v4.344c0 .576-.228 1.128-.634 1.536a2.16 2.16 0 0 1-3.694-1.536Z" fill="#47566A"/><path d="M145.934 26.41h-17.573a2.16 2.16 0 0 1-1.53-.636 2.175 2.175 0 0 1 0-3.072 2.16 2.16 0 0 1 1.53-.636h17.573c.573 0 1.124.23 1.53.637a2.175 2.175 0 0 1 0 3.071 2.162 2.162 0 0 1-1.53.636Z" fill="#F70"/><path d="M134.984 33.078V15.42c0-.576.228-1.128.634-1.535a2.16 2.16 0 0 1 3.061 0c.406.407.633.96.633 1.535v17.658c0 .576-.227 1.128-.633 1.535a2.162 2.162 0 0 1-3.695-1.535Z" fill="#F70"/><path d="M139.312 222.856v52.972h-4.328v-52.972c0-.576.228-1.128.634-1.536a2.16 2.16 0 0 1 3.694 1.536Zm63.797 33.078h-30.773a2.16 2.16 0 0 1-1.53-.636 2.177 2.177 0 0 1 0-3.072 2.16 2.16 0 0 1 1.53-.636h30.773a2.16 2.16 0 0 1 1.53.636 2.177 2.177 0 0 1 0 3.072 2.16 2.16 0 0 1-1.53.636Z" fill="#C7CDD8"/></g></svg><svg id="features-3" width="275" height="275" viewBox="0 0 275 275" fill="none"><path d="m212.096 226.693-16.506 16.488c-18.249 18.249-82.226 5.745-129.352-41.247C19.112 154.942 6.74 90.83 24.99 72.581c14.65-14.591.69-.708 16.507-16.487a7.774 7.774 0 0 1 11.01 0l38.529 38.509a7.813 7.813 0 0 1 0 11.011c-20.49 20.412-25.718 25.736-27.517 27.517-14.822 14.706 56.815 86.362 71.521 71.522 18.039-18.039 25.354-25.373 27.518-27.498a7.756 7.756 0 0 1 2.525-1.691 7.753 7.753 0 0 1 2.98-.594c1.023 0 2.036.201 2.98.594a7.756 7.756 0 0 1 2.525 1.691l38.528 38.508a7.833 7.833 0 0 1 0 11.03Z" fill="#7AA8D7"/><path d="M62.886 133.84c-2.05-5.745-1.915-9.958.555-12.371L90.71 94.22a7.869 7.869 0 0 1 .325 11.489c-29.26 29.165-27.824 27.652-28.15 28.131Z" fill="#5B8DC9"/><path d="m212.096 226.694-16.506 16.487c-18.25 18.249-82.227 5.745-129.353-41.247-35.713-35.713-51.472-81.173-49.06-108.997 2.01 27.785 17.962 66.237 49.06 97.316 47.126 47.088 111.065 59.515 129.353 41.266l16.181-16.162a7.872 7.872 0 0 1 .325 11.337Z" fill="#5B8DC9"/><path d="M188.16 9.964c-64.763 0-94.884 81.039-45.46 123.282l-16.813 16.813h62.273a70.048 70.048 0 0 0 0-140.095Z" fill="#FFD4AE"/><path d="M188.16 126.716c25.794 0 46.704-20.91 46.704-46.705 0-25.794-20.91-46.704-46.704-46.704-25.795 0-46.705 20.91-46.705 46.704 0 25.795 20.91 46.705 46.705 46.705Z" fill="#F70"/><path d="M215.389 72.237h-19.455V52.78h-15.568v19.456H160.91v15.568h19.456v19.455h15.568V87.805h19.455V72.237Z" fill="#fff"/><path d="m204.762 234.008-2.7 2.701-49.539-49.539 2.7-2.7 49.539 49.538Zm-121.06-121.06-2.7 2.7-49.54-49.52 2.7-2.72 49.54 49.54Z" fill="#5B8DC9"/></svg><svg id="features-4" width="275" height="275" viewBox="0 0 275 275" fill="none"><path d="M177.37 23.804h35.437a15.75 15.75 0 0 1 15.752 15.752V244.31a15.753 15.753 0 0 1-15.752 15.751H63.193a15.752 15.752 0 0 1-15.752-15.751V39.556a15.752 15.752 0 0 1 15.752-15.752H98.63" fill="#9B756D"/><path d="M228.559 232.492v11.819a15.753 15.753 0 0 1-15.752 15.752H63.193a15.753 15.753 0 0 1-15.752-15.752v-11.819a15.734 15.734 0 0 0 15.752 15.752h149.614a15.737 15.737 0 0 0 14.558-9.721 15.737 15.737 0 0 0 1.194-6.031Z" fill="#8A6762"/><path d="M208.874 39.556v200.822H67.127V39.556h141.747Z" fill="#F6F9FE"/><path d="M161.618 61.178h-10.056a9.38 9.38 0 0 1-8.389-4.727 5.934 5.934 0 0 0-5.231-3.14 5.932 5.932 0 0 0-5.232 3.14 9.37 9.37 0 0 1-8.273 4.727h-10.055a9.822 9.822 0 0 1-9.823-9.804V35.681a1.939 1.939 0 0 1 3.307-1.37c.363.363.568.856.568 1.37v15.693a5.947 5.947 0 0 0 5.948 5.93h10.055a5.603 5.603 0 0 0 4.922-2.617A9.796 9.796 0 0 1 138 49.514a9.807 9.807 0 0 1 8.641 5.173 5.606 5.606 0 0 0 4.921 2.616h9.998a5.948 5.948 0 0 0 5.948-5.929V35.681a1.939 1.939 0 1 1 3.875 0v15.693a9.823 9.823 0 0 1-9.765 9.804Z" fill="#949AAF"/><path d="M138.001 92.45c-12.652-18.33-39.37-8.526-39.37 14.046 0 23.638 39.37 47.256 39.37 47.256s39.37-23.618 39.37-47.256c0-22.552-26.718-32.433-39.37-14.046Z" fill="#F70"/><path d="M165.571 39.556H110.43a11.82 11.82 0 0 1 0-23.618h55.141a11.82 11.82 0 0 1 0 23.618Z" fill="#949AAF"/><path d="M165.571 39.556H110.43a11.796 11.796 0 0 1-11.546-9.387 11.8 11.8 0 0 1 .114-5.319 11.8 11.8 0 0 0 11.432 8.893h55.141a11.797 11.797 0 0 0 11.431-8.893c.443 1.741.482 3.56.114 5.32a11.789 11.789 0 0 1-6.362 8.184 11.805 11.805 0 0 1-5.183 1.202Z" fill="#8288A1"/><path d="M117.289 27.756a2.906 2.906 0 1 1-5.813 0 2.906 2.906 0 0 1 5.813 0Zm47.236 0a2.906 2.906 0 1 1-5.813 0 2.906 2.906 0 0 1 5.813 0Z" fill="#47566A"/><path d="M185.255 179.308h-94.51a1.94 1.94 0 0 1-1.37-3.308 1.939 1.939 0 0 1 1.37-.567h94.51a1.938 1.938 0 1 1 0 3.875Zm0 19.684h-94.51a1.939 1.939 0 0 1-1.37-3.307 1.94 1.94 0 0 1 1.37-.568h94.51a1.939 1.939 0 0 1 0 3.875Zm-19.685 19.705H90.744a1.935 1.935 0 0 1-1.937-1.938 1.939 1.939 0 0 1 1.937-1.937h74.826a1.938 1.938 0 1 1 0 3.875Z" fill="#CCD2E9"/><path d="M134.125 136.062c-1.628 0-1.066.272-9.068-15.751H90.744a1.94 1.94 0 0 1-1.37-3.308 1.939 1.939 0 0 1 1.37-.567h35.437c1.628 0 1.318.232 7.266 12.128l6.607-26.408a1.934 1.934 0 0 1 1.666-1.453c1.937-.213 1.395 0 9.28 15.733h34.255a1.938 1.938 0 1 1 0 3.875h-35.436c-1.628 0-1.318-.252-7.266-12.149l-6.607 26.37a1.94 1.94 0 0 1-1.821 1.53Z" fill="#F6F9FE"/></svg><svg id="first-aid" viewBox="0 0 40 40" fill="none"><path d="M33.333 18.333a5 5 0 0 0-5-5H11.667a5 5 0 0 0-5 5v10a5 5 0 0 0 5 5h16.666a5 5 0 0 0 5-5v-10Zm-15 10.834v-3.334H15a1.667 1.667 0 0 1 0-3.333h3.333v-3.333a1.667 1.667 0 1 1 3.334 0V22.5H25a1.667 1.667 0 1 1 0 3.333h-3.333v3.334a1.667 1.667 0 1 1-3.334 0Zm0-22.5A4.998 4.998 0 0 0 13.623 10h12.754a4.998 4.998 0 0 0-4.71-3.333h-3.334Zm18.334 21.666a8.333 8.333 0 0 1-8.334 8.334H11.667a8.333 8.333 0 0 1-8.334-8.334v-10a8.334 8.334 0 0 1 6.809-8.191 8.334 8.334 0 0 1 8.191-6.809h3.334c4.08 0 7.473 2.935 8.19 6.809 3.874.716 6.81 4.11 6.81 8.191v10Z" fill="#CF9766"/></svg><svg id="first-aid-green" width="24" height="24" viewBox="0 0 24 24" fill="none"><g clip-path="url(#clip0_540_2725)"><path d="M24 9.97v8.419a5.004 5.004 0 0 1-4.997 4.998H4.997A5.004 5.004 0 0 1 0 18.389v-8.42h24ZM10.63 12a.23.23 0 0 0-.228.229v2.173H8.23a.23.23 0 0 0-.229.229v2.738a.23.23 0 0 0 .229.229h2.173v2.174a.23.23 0 0 0 .229.228h2.738a.23.23 0 0 0 .229-.228v-2.174h2.173a.23.23 0 0 0 .229-.229v-2.738a.23.23 0 0 0-.229-.229h-2.173V12.23a.23.23 0 0 0-.229-.229h-2.738Zm8.373-7.862h-1.824v-.886a2.642 2.642 0 0 0-2.64-2.639H9.527a2.642 2.642 0 0 0-2.638 2.64v.885H4.997A5.004 5.004 0 0 0 .035 8.541h23.93a5.004 5.004 0 0 0-4.962-4.403Zm-3.253 0H8.316v-.886c0-.667.543-1.21 1.21-1.21h5.014c.667 0 1.21.543 1.21 1.21v.886Z" fill="#71C011"/></g></svg><svg id="form-back" width="860" height="860" viewBox="0 0 860 860" fill="none"><path d="M860 429.886c0-20.123-16.468-36.586-36.596-36.586-13.494 0-192.356 7.317-308.319 18.293 111.388-34.3 278.357-95.581 290.936-100.841 18.756-7.774 27.447-29.04 19.671-47.79-7.777-18.75-29.048-27.44-47.804-19.665-11.665 4.802-153.702 70.657-256.17 123.706 88.287-74.544 203.335-180.414 212.484-189.332 14.181-14.177 14.181-37.501 0-51.678s-37.511-14.177-51.691 0c-9.607 9.604-130.144 140.399-204.479 230.263C532.468 253.358 607.718 91.008 612.979 78.431c7.776-18.75-1.144-40.016-19.899-47.79-18.756-7.775-40.027 1.143-47.803 19.893-4.804 11.89-60.155 162.351-94.921 272.795 9.607-115.475 16.24-273.938 16.24-286.743C466.596 16.464 450.128 0 430 0c-20.128 0-36.596 16.464-36.596 36.586 0 13.262 7.091 183.845 17.612 299.777-34.537-111.13-94.234-273.71-99.495-286.057-7.776-18.75-29.048-27.44-47.803-19.665-18.755 7.774-27.447 29.04-19.67 47.79 5.032 12.12 75.936 164.866 129.915 267.993-74.564-89.179-187.096-211.284-196.245-220.431-14.181-14.177-37.511-14.177-51.691 0-14.181 14.177-14.181 37.501 0 51.678 9.149 9.146 128.542 119.133 217.287 193.677C240.16 317.612 91.032 248.556 78.91 243.754c-18.756-7.774-40.027 1.144-47.804 19.894-7.776 18.75 1.144 40.016 19.9 47.79 12.35 5.26 177.946 65.855 289.334 100.155-115.962-10.747-290.478-17.836-303.744-17.836C16.468 393.757 0 410.221 0 430.343s16.468 36.586 36.596 36.586c12.808 0 169.941-6.403 284.989-16.235C211.34 485.679 62.899 540.33 51.234 545.132c-18.755 7.774-27.447 29.04-19.67 47.79 7.776 18.75 29.048 27.44 47.803 19.665 12.58-5.259 174.973-80.489 277.899-135.14-89.66 74.087-221.404 195.507-231.011 205.111-14.181 14.177-14.181 37.501 0 51.678s37.511 14.177 51.692 0c8.92-8.918 116.191-125.308 190.755-213.8-53.064 102.67-119.165 245.355-123.968 257.017-7.777 18.75 1.144 40.016 19.899 47.79 18.755 7.775 40.027-1.143 47.803-19.893 5.032-12.348 65.186-176.299 99.495-287.429-10.75 115.932-18.069 292.002-18.069 305.493 0 20.122 16.468 36.586 36.595 36.586 20.128 0 36.596-16.464 36.596-36.586 0-13.034-6.862-177.442-16.925-293.146 34.994 110.673 91.032 262.963 95.835 274.853 7.776 18.75 29.048 27.439 47.803 19.665 18.755-7.775 27.447-29.04 19.67-47.791-5.032-12.119-74.792-162.579-128.771-265.477 74.564 89.407 188.697 213.114 197.846 222.489 14.18 14.177 37.51 14.177 51.691 0 14.181-14.177 14.181-37.501 0-51.678-9.378-9.375-136.776-126.679-226.436-201.223C610.92 535.07 765.995 606.871 778.117 611.901c18.755 7.775 40.027-1.143 47.803-19.894 7.777-18.75-1.143-40.015-19.899-47.79-11.893-4.802-160.792-59.452-271.266-94.438 115.506 10.061 275.612 16.464 288.421 16.464 20.585.229 36.824-16.235 36.824-36.357Z" fill="#fff" fill-opacity=".05"/></svg><svg id="health" viewBox="0 0 220 220" fill="none"><rect width="220" height="220" rx="110" fill="#fff"/><path d="M110 67.365c9.701 0 17.565-7.864 17.565-17.565S119.701 32.234 110 32.234 92.435 40.1 92.435 49.8 100.299 67.365 110 67.365Z" fill="#F70"/><path d="M110 67.352c-11.22 0-19.17-10.418-17.355-20.07a17.528 17.528 0 0 0 34.71 0c1.815 9.64-6.11 20.07-17.355 20.07Z" fill="#DB6904"/><path d="M117.53 74.882c0 10.183.629-5.407-3.864 88.875-1.136 23.453-.728 22.527-2.185 23.453a2.533 2.533 0 0 1-3.185-.173c-1.148-.926-.839-.37-1.604-16.047 0-8.221-4.222-76.617-4.222-96.17a7.53 7.53 0 0 1 15.06 0v.062Z" fill="#949AAF"/><path d="M115.036 134.811c-.592 12.208-.444 8.999-.691 14.418l-8.764-.963c-.247-5.999-.099-2.716-.704-14.998 1.864.247 7.728 1.123 10.159 1.543Z" fill="#8288A1"/><path d="M187.766 67.353a10.036 10.036 0 0 1-10.036 10.035 10.035 10.035 0 0 1-10.035 10.035 10.036 10.036 0 0 1-10.036 10.036h-40.857l.493-10.06a18.134 18.134 0 0 0 15.282-10.011 18.174 18.174 0 0 1 16.232-10.035h38.957Zm-85.061 20.046a18.158 18.158 0 0 1-15.282-10.011 18.17 18.17 0 0 0-16.232-10.035H32.234A10.036 10.036 0 0 0 42.27 77.388a10.035 10.035 0 0 0 10.035 10.035A10.036 10.036 0 0 0 62.341 97.46h40.858" fill="#D4D8E1"/><path d="M103.199 97.459H62.341a10.036 10.036 0 0 1-10.036-10.035A10.035 10.035 0 0 1 42.27 77.388a10.036 10.036 0 0 1-10.036-10.035h38.957a18.17 18.17 0 0 1 16.232 10.035 18.12 18.12 0 0 0 15.282 10.01l.494 10.06Z" fill="#D4D8E1"/><path d="M139.625 116.172c-5.962 3.283-16.467 4.271-23.935 5.135l.482-10.208c19.935-2.173 17.651-4.395 21.268-4.037a4.932 4.932 0 0 1 4.142 6.792 4.939 4.939 0 0 1-1.957 2.318Zm-7.048 31.452c0 9.875-9.27 13.775-18.911 16.182l.494-10.504c2.888-.864 8.381-2.679 8.381-5.678-3.9-5.666-42.647-.901-42.647-20.059 0-10.751 13.368-13.393 24.008-14.961l.482 10.11c-2.667.407-14.455 2.16-14.455 4.851 0 4.444 17.985 6.024 25.107 7.246 8.542 1.506 17.541 4.246 17.541 12.813Z" fill="#FBCC88"/><path d="M112.938 179.125c-.284 5.987 0 7.221-1.457 8.171-4.839-.222-3.974.988-4.518-10.628 2.012.84 4.061 1.692 5.975 2.457Z" fill="#8288A1"/><path d="M122.171 182.717c-11.936-.926-37.254.667-37.254-12.516 0-9.974 11.381-12.603 20.985-14.813l.494 10.159c-1.975.506-11.48 2.679-11.48 4.666 1.173 2.654 24.478 11.455 27.255 12.504Z" fill="#FBCC88"/><path d="M79.894 84.917H53.688a6.926 6.926 0 0 1-6.79-4.937c-.061-.247-.802 0 22.96 0a2.506 2.506 0 1 0 0-5.012H44.442a7.777 7.777 0 0 1-7.912-7.406c0-.247.247-.086-4.296-.086A10.06 10.06 0 0 0 42.27 77.51a10.048 10.048 0 0 0 10.035 10.035 10.036 10.036 0 0 0 10.036 10.036h4.283a9.998 9.998 0 0 1-9.702-7.653h22.972a2.505 2.505 0 1 0 0-5.012ZM183.47 67.353a7.778 7.778 0 0 1-7.912 7.53h-25.416a2.505 2.505 0 1 0 0 5.01h22.972c-1.235 4.938-6.456 5.025-6.802 5.025h-26.206a2.503 2.503 0 0 0-2.505 2.505 2.505 2.505 0 0 0 2.505 2.506h22.972a9.994 9.994 0 0 1-9.702 7.53h4.283a10.034 10.034 0 0 0 10.036-10.035 10.062 10.062 0 0 0 10.035-10.036 10.06 10.06 0 0 0 10.036-10.035h-4.296Zm-80.765 20.046.494 10.06h-5.037l-.53-11.11c1.632.59 3.34.943 5.073 1.05Zm19.639-1-.531 11.11h-5.011l.493-10.06a18.233 18.233 0 0 0 5.049-1.05Z" fill="#C7CDD8"/><path d="M104.384 122.714c-5.753.864-4.938 1.16-5.024.259l-.47-9.541c1.605-.321 3.284-.568 4.938-.828l.556 10.11Zm2.049 42.833c-1.506.382-3.284.827-4.938 1.308-.062-1.432 0 .531-.506-10.282 1.666-.432 3.345-.803 4.938-1.235l.506 10.209Zm7.727-12.245a30.47 30.47 0 0 0 5.122-1.963c-.123 2.79 0 .457-.53 11.011a65.147 65.147 0 0 1-5.086 1.457l.494-10.505Zm7.073-42.821c0 1.235 0-.506-.494 10.209l-5.073.592.506-10.183c1.605-.173 3.333-.371 5.061-.618Z" fill="#F6B756"/><path d="M108.766 57.317V42.27A1.236 1.236 0 0 1 110 41.036a1.236 1.236 0 0 1 1.234 1.234v15.047A1.236 1.236 0 0 1 110 58.551a1.236 1.236 0 0 1-1.234-1.234Z" fill="#fff"/><path d="M117.53 51.034h-15.06a1.237 1.237 0 0 1-1.234-1.235 1.236 1.236 0 0 1 1.234-1.234h15.06a1.232 1.232 0 0 1 1.234 1.234 1.233 1.233 0 0 1-1.234 1.235Z" fill="#fff"/></svg><svg id="healtcare" viewBox="0 0 40 40" fill="none"><path d="M15 21.667c.826 0 1.537.307 2.067.605.53.298 1.036.681 1.432.978.437.328.765.57 1.068.741.303.17.426.176.433.176.186 0 .458-.045.994-.135.465-.079 1.09-.183 1.736-.194.652-.011 1.432.069 2.195.433.57.272 1.066.674 1.475 1.206l6.442-2.575a4.515 4.515 0 0 1 2.314-.278c3.276.468 4.202 4.761 1.41 6.538l-12.74 8.107a5.004 5.004 0 0 1-4.059.59L3.71 33.268a1.668 1.668 0 0 1 .915-3.205l16.06 4.588c.458.13.95.06 1.352-.196l12.74-8.107c.068-.043.087-.08.095-.102a.255.255 0 0 0 .007-.142.256.256 0 0 0-.065-.127c-.017-.016-.049-.042-.129-.053a1.18 1.18 0 0 0-.605.071l-7.303 2.922a3.453 3.453 0 0 1-1.68 1.478c-.863.357-1.782.782-2.594 1.158-.749.347-1.532.712-1.975.86a1.668 1.668 0 0 1-1.054 0l-5-1.667a1.666 1.666 0 0 1 1.054-3.16l4.413 1.47c.283-.126.672-.3 1.162-.527.753-.348 1.664-.77 2.547-1.14a.654.654 0 0 0-.16-.11c-.134-.064-.35-.115-.703-.109-.36.006-.754.067-1.237.148-.41.07-1.015.181-1.549.181-.826 0-1.537-.307-2.067-.605-.53-.298-1.036-.681-1.432-.979-.437-.327-.765-.57-1.068-.74-.303-.17-.426-.176-.433-.176H4.167a1.667 1.667 0 0 1 0-3.333H15ZM27.5 8.674C27.5 6.553 25.899 5 24.124 5c-1.097 0-2.104.575-2.736 1.525a1.667 1.667 0 0 1-2.776 0C17.98 5.575 16.972 5 15.876 5 14.1 5 12.5 6.553 12.5 8.674c0 2.065 1.174 4.225 2.931 6.105 1.518 1.623 3.281 2.83 4.569 3.421 1.288-.59 3.05-1.797 4.569-3.421 1.757-1.88 2.931-4.04 2.931-6.105Zm3.333 0c0 3.275-1.805 6.214-3.83 8.38-2.031 2.174-4.54 3.846-6.45 4.518a1.666 1.666 0 0 1-1.106 0c-1.91-.672-4.419-2.344-6.45-4.518-2.025-2.166-3.83-5.105-3.83-8.38 0-3.778 2.915-7.007 6.709-7.007 1.568 0 2.995.562 4.124 1.483a6.496 6.496 0 0 1 4.124-1.483c3.794 0 6.709 3.229 6.71 7.007Z" fill="#CF9766"/></svg><svg id="heart" viewBox="0 0 80 80" fill="none"><path d="M15.312 39.312H10.24c-.329 0-.644.128-.877.356a1.206 1.206 0 0 0-.363.86c0 .324.13.633.363.861.233.229.548.357.877.357h6.2c6.202 11.83 22.584 21.58 23.44 22.091a1.259 1.259 0 0 0 1.24 0c.856-.511 17.214-10.26 23.44-22.091h6.2c.329 0 .644-.128.877-.357a1.2 1.2 0 0 0 0-1.72 1.252 1.252 0 0 0-.877-.357h-5.097c6.647-17.04-13.99-30.003-25.175-17.04C29.326 9.346 8.64 22.26 15.312 39.312Zm25.176 22.103c-2.99-1.862-15.626-10.102-21.244-19.608h12.922c5.134 10.041 4.775 9.87 5.841 9.87.284.009.561-.078.787-.247.225-.168.386-.407.453-.677l4.23-16.602 3.534 6.962c.483.937.297.67 14.795.67-5.692 9.469-18.33 17.709-21.318 19.632Zm-1.017-36.38c.114.16.266.291.443.382a1.26 1.26 0 0 0 1.59-.382c9.029-12.914 28.437-1.351 21.492 14.277H48.81c-4.96-9.871-4.775-10.017-5.94-9.883-1.166.133-.794-.147-5.296 17.502-3.807-7.485-3.621-7.62-4.65-7.62H18.04c-7.02-15.627 12.439-27.13 21.43-14.337v.06Z" fill="#E5F0F8"/><path d="m10.24 39.312-.123.006a1.25 1.25 0 0 0-.754.35 1.206 1.206 0 0 0-.363.86c0 .324.13.633.363.861.204.2.47.324.754.351l.123.006h6.2c6.202 11.83 22.584 21.58 23.44 22.091.141.08.297.132.458.152L40.5 64c.163 0 .325-.032.475-.093l.145-.07c.856-.511 17.214-10.26 23.44-22.091h6.2l.123-.006c.243-.023.474-.118.663-.27l.09-.08c.204-.2.33-.462.358-.74l.006-.121a1.2 1.2 0 0 0-.363-.86 1.25 1.25 0 0 0-.754-.351l-.123-.006v-2c.794 0 1.565.29 2.16.82l.118.108.111.116a3.205 3.205 0 0 1-.11 4.46c-.611.6-1.432.93-2.28.93h-5.023c-3.389 5.852-8.912 11.052-13.66 14.852-5.078 4.062-9.47 6.68-9.93 6.956l-.04.023a3.26 3.26 0 0 1-3.212 0l-.04-.023c-.46-.275-4.858-2.893-9.938-6.955-4.751-3.8-10.276-9-13.655-14.853h-5.02c-.848 0-1.669-.33-2.28-.93A3.207 3.207 0 0 1 7 40.529c0-.865.35-1.687.962-2.288l.117-.108a3.254 3.254 0 0 1 2.161-.82v2Zm36.77 1.801c.484.937.3.67 14.796.67-5.692 9.469-18.33 17.709-21.318 19.632l-.67-.423c-3.871-2.474-15.307-10.273-20.574-19.185h12.922c5.134 10.04 4.775 9.87 5.841 9.87.248.008.492-.058.7-.188l.087-.059c.225-.168.386-.407.453-.677l4.23-16.602 3.534 6.962ZM41.188 51.24v.001a3.218 3.218 0 0 1-1.198 1.793 3.254 3.254 0 0 1-1.982.643v.002c-.105 0-.992.079-1.806-.505-.606-.435-1.013-1.12-1.33-1.682-.657-1.163-1.772-3.444-3.932-7.684h-7.916c2.56 3.34 5.881 6.48 9.098 9.125a94.052 94.052 0 0 0 8.353 6.101c1.858-1.223 5.018-3.382 8.39-6.15 3.217-2.64 6.544-5.77 9.125-9.093-4.727.016-7.393.05-8.89.008-.852-.023-1.678-.068-2.33-.318a2.692 2.692 0 0 1-1.107-.78c-.244-.29-.398-.61-.429-.67l-.005-.011-1.127-2.22-2.914 11.44Zm.318-26.204c8.957-12.813 28.134-1.53 21.65 13.912l-.159.365H48.81l-2.857-5.728c-2.095-4.198-2.21-4.256-3.083-4.156-1.166.134-.794-.146-5.296 17.503-3.57-7.018-3.629-7.574-4.47-7.616l-.18-.003v-2c.251 0 1.016-.025 1.764.494.595.412.977 1.032 1.253 1.51a43.72 43.72 0 0 1 1.01 1.93c1.363-5.418 2.111-8.479 2.599-10.184.16-.557.306-1.023.45-1.402.137-.36.315-.761.578-1.115a2.65 2.65 0 0 1 1.238-.932c.384-.138.8-.168.826-.171.266-.031 1.165-.173 2.058.421.665.443 1.108 1.163 1.451 1.76.697 1.214 1.815 3.532 3.896 7.689h11.597c2.25-6.333-.405-11.583-4.471-14.152-4.325-2.732-10.202-2.453-14.028 3.02l-.005.007-.004.006a3.235 3.235 0 0 1-1.162 1.004 3.262 3.262 0 0 1-2.97 0 3.235 3.235 0 0 1-1.162-1.003l-.37-.521v-.043c-3.806-4.93-9.454-5.106-13.65-2.454-4.066 2.569-6.713 7.804-4.431 14.136h13.533v2H18.04l-.16-.365C11.324 23.505 30.55 12.28 39.47 24.974v.06c.114.161.266.293.443.383a1.26 1.26 0 0 0 1.01.06l.137-.06c.133-.068.252-.159.351-.267l.093-.115Zm-1.019-5.64c6.213-5.746 14.424-5.423 20.372-1.528 5.827 3.816 9.579 11.095 7.533 19.445h2.369v2h-5.097c6.647-17.04-13.99-30.003-25.175-17.04C29.326 9.346 8.64 22.26 15.312 39.312H10.24v-2h2.342c-2.056-8.355 1.704-15.627 7.537-19.437 5.95-3.886 14.164-4.208 20.367 1.52Z" fill="#E5F0F8"/></svg><svg id="item-back-1" viewBox="0 0 190 200" fill="none"><path d="m174.788 37.398-36.347 24.127 24.12-36.29C185.145-8.782 170.913-57.97 135.033-70 99.087-57.904 84.855-8.715 107.439 25.235l24.12 36.29-36.28-24.127C61.268 14.81 12.093 29.045 0 65c12.094 35.955 61.27 50.191 95.212 27.602l36.28-24.127-24.12 36.29C84.855 138.782 99.087 187.97 135.033 200c35.947-12.097 50.179-61.285 27.595-95.235l-24.12-36.29 36.28 24.127C208.797 115.19 257.906 100.954 270 65c-12.094-35.955-61.203-50.19-95.212-27.602Z" fill="#fff" fill-opacity=".2"/></svg><svg id="item-back-2" viewBox="0 0 190 200" fill="none"><path d="M162.887 65c170.322 0 70.984-171.827-14.21-24.518 85.127-147.309-113.548-147.309-28.354 0C35.196-106.827-64.142 65 106.113 65c-170.322 0-70.984 171.827 14.21 24.518-85.127 147.309 113.548 147.309 28.354 0C233.804 236.894 333.142 65 162.887 65Z" fill="#fff" fill-opacity=".2"/></svg><svg id="item-back-3" viewBox="0 0 190 200" fill="none"><path d="M135 19.323 190.9-70 167.308 32.692 270 9.1 180.677 65 270 120.9 167.308 97.308 190.9 200 135 110.677 79.1 200l23.592-102.692L0 120.9 89.323 65 0 9.1l102.692 23.592L79.1-70 135 19.323Z" fill="#fff" fill-opacity=".2"/></svg><svg id="item-back-4" viewBox="0 0 190 200" fill="none"><path d="m147.446 167.105 37.401 19.63c20.498 10.746 44.377-6.591 40.493-29.302l-7.121-41.48c-1.582-9.027 1.439-18.197 8.056-24.645l30.28-29.373c16.542-16.12 7.408-44.132-15.464-47.427l-41.86-6.09c-9.062-1.29-16.974-7.02-21.001-15.188l-18.701-37.755c-10.213-20.633-39.845-20.633-50.059 0L90.77-6.77c-4.1 8.239-11.939 13.899-21 15.188l-41.86 6.09C5.037 17.803-4.097 45.815 12.445 61.935l30.28 29.373c6.545 6.376 9.566 15.618 8.056 24.645l-7.12 41.48c-3.885 22.711 19.994 40.048 40.492 29.302l37.401-19.63c8.055-4.227 17.765-4.227 25.892 0Z" fill="#fff" fill-opacity=".2"/></svg><svg id="link-right" viewBox="0 0 24 24" fill="none"><path fill-rule="evenodd" clip-rule="evenodd" d="M8.293 4.293a1 1 0 0 1 1.414 0l7 7a1 1 0 0 1 0 1.414l-7 7a1 1 0 0 1-1.414-1.414L14.586 12 8.293 5.707a1 1 0 0 1 0-1.414Z" fill="#D5D9DE"/></svg><svg id="lock" viewBox="0 0 40 40" fill="none"><path d="M20.001 38.397a13.341 13.341 0 0 1-9.443-22.77 13.34 13.34 0 0 1 22.775 9.43 13.347 13.347 0 0 1-13.332 13.34Zm0-24.427A11.096 11.096 0 1 0 31.09 25.058 11.103 11.103 0 0 0 20 13.97Z" fill="#CF9766"/><path d="M20.001 29.494a1.123 1.123 0 0 1-1.122-1.122v-5.506a1.123 1.123 0 0 1 2.244 0v5.506a1.122 1.122 0 0 1-1.122 1.122Z" fill="#CF9766"/><path d="M20.001 25.11c-.148 0-.296-.015-.441-.045a1.692 1.692 0 0 1-.42-.127 2.136 2.136 0 0 1-.388-.202 2.412 2.412 0 0 1-.337-.285c-.106-.1-.2-.213-.277-.336a1.953 1.953 0 0 1-.21-.39 2.078 2.078 0 0 1-.126-.418 2.154 2.154 0 0 1 0-.875 2.08 2.08 0 0 1 .127-.42c.053-.137.123-.268.21-.389.077-.126.17-.241.276-.344a2.244 2.244 0 0 1 3.786 2.028 2.72 2.72 0 0 1-.127.419 2.429 2.429 0 0 1-.21.389 2.424 2.424 0 0 1-.614.621c-.122.08-.252.148-.388.202-.134.06-.275.103-.42.127a2.25 2.25 0 0 1-.44.045Zm8.17-8.013a1.122 1.122 0 0 1-1.122-1.122v-5.768a6.375 6.375 0 0 0-6.36-6.36h-.688a1.122 1.122 0 1 1 0-2.244h.688a8.611 8.611 0 0 1 8.604 8.604v5.768a1.122 1.122 0 0 1-1.122 1.122Z" fill="#CF9766"/><path d="M11.831 17.097a1.122 1.122 0 0 1-1.122-1.122v-5.768a8.611 8.611 0 0 1 8.604-8.604H20a1.123 1.123 0 0 1 0 2.244h-.688a6.374 6.374 0 0 0-6.36 6.36v5.768a1.122 1.122 0 0 1-1.122 1.122Z" fill="#CF9766"/><path d="M10.376 10.207a8.944 8.944 0 0 1 8.936-8.938H20l.001.334h-.688a8.611 8.611 0 0 0-6.082 2.522l-.294.31a8.612 8.612 0 0 0-2.228 5.772v5.274c-.05.05-.101.097-.15.147a13.34 13.34 0 0 0-3.65 6.832l-.087.486a13.341 13.341 0 0 0 13.18 15.451 13.347 13.347 0 0 0 8.945-3.456l.48-.456a13.347 13.347 0 0 0 3.889-8.766l.017-.661a13.34 13.34 0 0 0-1.982-6.997l-.266-.415a13.333 13.333 0 0 0-1.793-2.15l.001-5.29a8.612 8.612 0 0 0-2.227-5.771l-.295-.31a8.611 8.611 0 0 0-6.082-2.522h-.688v-.334h.69a8.947 8.947 0 0 1 8.924 8.495l.011.443v5.15a13.674 13.674 0 0 1 4.04 9.702A13.681 13.681 0 0 1 20.002 38.73a13.675 13.675 0 0 1-12.638-8.434 13.675 13.675 0 0 1 2.959-14.904l.053-.052v-5.133Zm20.38 14.851A10.77 10.77 0 0 0 20 14.303a10.764 10.764 0 0 0-7.617 18.372 10.761 10.761 0 0 0 16.561-1.635 10.763 10.763 0 0 0 1.812-5.982Zm-9.633-.249c.043-.024.087-.046.128-.073a2.424 2.424 0 0 0 .613-.621c.04-.061.08-.125.114-.19l.096-.2a3.58 3.58 0 0 0 .072-.206l.055-.212c.015-.073.027-.146.034-.22l.01-.222a2.245 2.245 0 0 0-2.893-2.147l-.258.097a2.246 2.246 0 0 0-.679.464 1.74 1.74 0 0 0-.277.345l-.117.187a1.759 1.759 0 0 0-.092.201 2.08 2.08 0 0 0-.127.42 2.15 2.15 0 0 0 0 .875c.027.144.07.284.127.419.055.137.125.268.21.389.077.123.17.237.276.337.103.104.216.2.337.284.04.027.084.05.127.073v3.563l.021.22a1.125 1.125 0 0 0 1.724.714l.17-.14c.158-.158.265-.358.308-.574l.021-.22v-3.563ZM20.69 3.847a6.374 6.374 0 0 1 6.36 6.36l-.001 3.531a13.34 13.34 0 0 0-9.66-1.764l-.482.106a13.34 13.34 0 0 0-3.953 1.649v-3.522a6.374 6.374 0 0 1 6.36-6.36h1.377Zm-1.673.342a6.042 6.042 0 0 0-5.73 6.02v2.935a13.672 13.672 0 0 1 13.43.008v-2.944l-.008-.3a6.042 6.042 0 0 0-5.721-5.719l-.298-.008h-1.375l-.298.008Zm2.441 24.183a1.456 1.456 0 0 1-2.912 0v-3.374a2.749 2.749 0 0 1-.368-.312 2.04 2.04 0 0 1-.322-.394 2.296 2.296 0 0 1-.236-.443 2.429 2.429 0 0 1-.145-.48 2.5 2.5 0 0 1 .002-1.006c.031-.161.078-.319.142-.47l.11-.24c.038-.07.08-.137.126-.203l.153-.216a2.578 2.578 0 0 1 2.188-.938l.313.042.005.002c.08.017.16.038.238.062l.232.081.014.005c.15.067.296.145.434.234l.007.005a2.58 2.58 0 0 1 1.089 2.646v.004c-.035.16-.084.318-.144.47l-.003.01a2.776 2.776 0 0 1-.238.441l-.001-.001c-.092.14-.198.27-.318.387a2.75 2.75 0 0 1-.366.313v3.375Zm9.624-2.904a11.097 11.097 0 0 1-1.859 5.756l-.234.338a11.099 11.099 0 0 1-4.745 3.752l-.382.151a11.097 11.097 0 0 1-11.418-2.269l-.295-.285A11.095 11.095 0 0 1 9.2 27.63l-.089-.402a11.096 11.096 0 0 1 .483-6.03l.15-.382a11.095 11.095 0 0 1 10.257-6.846A11.103 11.103 0 0 1 31.09 25.058l-.008.41Z" fill="#CF9766"/></svg><svg id="logo" viewBox="0 0 34 34" fill="none"><path fill-rule="evenodd" clip-rule="evenodd" d="M-.001 7.999A7.999 7.999 0 0 1 7.969 0C17.123.035 17 5.844 17 5.844S17.222.063 26.053 0a7.998 7.998 0 0 1 7.949 7.998v18.003A8 8 0 0 1 26.052 34c-8.796-.061-9.05-5.8-9.052-5.843 0 .045.088 5.81-9.033 5.844a8 8 0 0 1-7.968-8V7.999ZM8.5 17.006a2.267 2.267 0 0 0 2.267 2.267h3.96v3.961a2.268 2.268 0 0 0 4.535 0v-3.96h3.972a2.267 2.267 0 0 0 0-4.535h-3.972v-3.972a2.267 2.267 0 0 0-4.535 0v3.972h-3.96A2.267 2.267 0 0 0 8.5 17.006Z" fill="#F70"/></svg><svg id="mail" width="20" height="20" viewBox="0 0 20 20" fill="none"><g clip-path="url(#clip0_329_14191)"><path fill-rule="evenodd" clip-rule="evenodd" d="M0 10c0 7.549 1.765 9.167 10 9.167S20 17.549 20 10c0-2.075-.133-3.701-.498-4.97-.932.936-2.11 2.06-3.388 3.062-1.813 1.42-4.01 2.741-6.114 2.741-2.105 0-4.3-1.32-6.114-2.741C2.608 7.09 1.43 5.966.498 5.03.133 6.3 0 7.925 0 10Zm6.667 3.333a.833.833 0 1 0 0 1.667h6.666a.833.833 0 1 0 0-1.667H6.667Z" fill="#F70"/><path d="M15.086 6.78c1.418-1.111 2.713-2.39 3.69-3.386-1.324-2-3.93-2.56-8.776-2.56-4.847 0-7.453.56-8.776 2.56.976.995 2.271 2.275 3.69 3.386C6.7 8.18 8.504 9.167 10 9.167c1.495 0 3.3-.987 5.086-2.387Z" fill="#F70"/></g></svg><svg id="map" width="56" height="56" viewBox="0 0 56 56" fill="none"><g filter="url(#filter0_d_207_6036)"><circle cx="28" cy="24" r="20" fill="#F70"/><path fill-rule="evenodd" clip-rule="evenodd" d="M17 18.175A5.175 5.175 0 0 1 22.156 13C28.08 13.023 28 16.781 28 16.781s.143-3.74 5.857-3.78A5.175 5.175 0 0 1 39 18.176v11.648c0 2.848-2.3 5.158-5.143 5.175C28.165 34.96 28 31.247 28 31.22c0 .029.056 3.759-5.845 3.781A5.176 5.176 0 0 1 17 29.824V18.175Zm5.5 5.828c0 .81.657 1.467 1.467 1.467h2.562v2.563a1.467 1.467 0 0 0 2.934 0V25.47h2.57a1.467 1.467 0 0 0 0-2.933h-2.57v-2.57a1.467 1.467 0 0 0-2.934 0v2.57h-2.562c-.81 0-1.467.656-1.467 1.466Z" fill="#fff"/></g></svg><svg id="med-doc" viewBox="0 0 40 40" fill="none"><path d="M30 10c0-.92-.746-1.667-1.667-1.667h-.29a4.998 4.998 0 0 1-4.71 3.334h-6.666a4.997 4.997 0 0 1-4.71-3.334h-.29C10.747 8.333 10 9.08 10 10v21.667c0 .92.746 1.666 1.667 1.666h16.666c.92 0 1.667-.746 1.667-1.666V10Zm-8.403 5.835a1.668 1.668 0 0 1 1.56.92l2.04 4.078h1.47a1.667 1.667 0 1 1 0 3.334h-2.5a1.667 1.667 0 0 1-1.491-.922l-.842-1.68-1.953 4.887a1.668 1.668 0 0 1-2.977.24l-2.015-3.359h-1.556a1.667 1.667 0 0 1 0-3.333h2.5c.586 0 1.128.307 1.43.809l.77 1.284 2.086-5.211.107-.22a1.667 1.667 0 0 1 1.37-.827ZM16.667 5a1.667 1.667 0 0 0 0 3.333h6.666a1.667 1.667 0 1 0 0-3.333h-6.666Zm16.666 26.667a5 5 0 0 1-5 5H11.667a5 5 0 0 1-5-5V10a5 5 0 0 1 5-5h.29a4.997 4.997 0 0 1 4.71-3.333h6.666A4.998 4.998 0 0 1 28.043 5h.29a5 5 0 0 1 5 5v21.667Z" fill="#CF9766"/></svg><svg id="ok" viewBox="0 0 24 24"><path d="M11.794.75a5.738 5.738 0 1 0 0 11.476 5.738 5.738 0 0 0 0-11.476Zm0 8.11a2.372 2.372 0 1 1 0-4.744 2.372 2.372 0 0 1 0 4.744Zm2.026 7.932c2.296-.468 3.673-1.556 3.746-1.614a1.56 1.56 0 0 0-1.952-2.435c-.014.012-1.483 1.138-3.898 1.14-2.416-.002-3.915-1.128-3.93-1.14a1.56 1.56 0 0 0-1.952 2.435c.074.059 1.507 1.175 3.869 1.632l-3.291 3.44a1.56 1.56 0 1 0 2.246 2.166l3.058-3.257 3.366 3.278a1.56 1.56 0 1 0 2.205-2.208l-3.468-3.437Zm-2.103-2.909c-.007 0 .006 0 0 0-.007 0 .006 0 0 0Z"/></svg><svg id="phone" viewBox="0 0 19 19" fill="none"><path d="m17.6 11.974-2-2.002c-.928-.93-2.436-1.006-3.367-.073l-.964.966c-.032 0-.232.328-.661.203-.544-.16-1.02-.72-2.604-2.306-.397-.397-.64-.742-.722-1.025-.054-.184-.067-.392.202-.662l.964-.965c.926-.927.862-2.437-.072-3.372l-2-2.002c-.934-.936-2.442-1-3.368-.073L.617 3.058c-.402.386-.61.918-.617 1.58-.03 2.606 3.354 7.233 4.917 8.798 1.69 1.692 6.214 4.898 8.783 4.897.603 0 1.162-.164 1.579-.59l2.394-2.397c.908-.91.876-2.422-.073-3.372Z" fill="#F70"/></svg><svg id="popup-back" width="399" height="366" viewBox="0 0 399 366" fill="none"><path d="M399 83.92c0-14.133-11.566-25.696-25.702-25.696-9.478 0-135.097 5.14-216.541 12.848C234.988 46.982 352.254 3.943 361.089.249c13.173-5.46 19.277-20.395 13.815-33.564-5.461-13.169-20.401-19.272-33.573-13.811-8.193 3.372-107.949 49.624-179.915 86.882 62.006-52.354 142.807-126.71 149.233-132.973 9.96-9.957 9.96-26.338 0-36.295s-26.345-9.957-36.304 0c-6.747 6.745-91.404 98.606-143.611 161.72 38.232-72.268 91.082-186.291 94.777-195.124 5.461-13.169-.804-28.104-13.976-33.564-13.172-5.46-28.112.803-33.573 13.972-3.374 8.351-42.248 114.023-66.665 191.59 6.747-81.1 11.405-192.393 11.405-201.387C122.702-206.437 111.136-218 97-218c-14.136 0-25.702 11.563-25.702 25.695 0 9.315 4.98 129.12 12.369 210.541-24.256-78.05-66.183-192.233-69.878-200.905-5.461-13.169-20.4-19.271-33.573-13.811-13.172 5.46-19.277 20.395-13.815 33.564 3.534 8.512 53.332 115.79 91.243 188.218C5.276-37.33-73.76-123.088-80.184-129.512c-9.96-9.957-26.345-9.957-36.304 0-9.96 9.957-9.96 26.338 0 36.295 6.425 6.424 90.278 83.67 152.606 136.024-72.448-37.74-177.184-86.24-185.698-89.612-13.172-5.46-28.111.803-33.573 13.972-5.462 13.169.803 28.104 13.975 33.564 8.675 3.694 124.977 46.252 203.208 70.341-81.444-7.548-204.011-12.526-213.328-12.526-14.136 0-25.702 11.563-25.702 25.695s11.566 25.695 25.702 25.695c8.996 0 119.354-4.496 200.156-11.402-77.428 24.571-181.682 62.953-189.875 66.326-13.172 5.46-19.277 20.395-13.815 33.564 5.462 13.169 20.401 19.272 33.573 13.812 8.836-3.694 122.889-56.53 195.176-94.912-62.97 52.033-155.498 137.309-162.245 144.054-9.959 9.957-9.959 26.338 0 36.294 9.96 9.957 26.345 9.957 36.305 0 6.264-6.263 81.604-88.006 133.972-150.156-37.268 72.107-83.693 172.319-87.066 180.509-5.462 13.169.803 28.104 13.975 33.564 13.173 5.461 28.112-.802 33.574-13.971 3.534-8.672 45.782-123.82 69.878-201.869-7.55 81.422-12.69 205.081-12.69 214.556 0 14.132 11.564 25.695 25.7 25.695s25.702-11.563 25.702-25.695c0-9.154-4.819-124.623-11.887-205.884 24.578 77.728 63.934 184.685 67.308 193.036 5.461 13.169 20.401 19.272 33.573 13.811 13.172-5.46 19.277-20.395 13.815-33.564-3.534-8.512-52.529-114.184-90.439-186.452 52.368 62.793 132.526 149.675 138.952 156.26 9.959 9.957 26.344 9.957 36.304 0s9.96-26.338 0-36.295c-6.586-6.584-96.062-88.97-159.032-141.324 72.448 37.901 181.361 88.328 189.875 91.861 13.172 5.46 28.111-.803 33.573-13.972 5.462-13.169-.803-28.104-13.976-33.564-8.353-3.373-112.928-41.755-190.517-66.326 81.123 7.066 193.569 11.562 202.565 11.562A25.47 25.47 0 0 0 399 83.92Z" fill="#F70" fill-opacity=".05"/></svg><svg id="popup-error" width="72" height="72" viewBox="0 0 72 72" fill="none"><rect width="72" height="72" rx="36" fill="#2D3F59" fill-opacity=".7"/><path d="M43.613 41.723a1.333 1.333 0 0 1-1.885 1.886l-13.33-13.33a1.333 1.333 0 1 1 1.886-1.885l13.33 13.329Z" fill="#fff"/><path d="M41.717 28.395a1.333 1.333 0 1 1 1.886 1.885l-13.33 13.33a1.333 1.333 0 1 1-1.885-1.886l13.33-13.33Z" fill="#fff"/></svg><svg id="popup-close" width="24" height="24" viewBox="0 0 24 24" fill="none"><path d="M17.71 16.292a1 1 0 1 1-1.414 1.414L6.299 7.71a1 1 0 0 1 1.414-1.414l9.997 9.997Z" fill="#2D3F59" fill-opacity=".7"/><path d="M16.288 6.296a1 1 0 1 1 1.414 1.414l-9.997 9.997a1 1 0 0 1-1.414-1.414l9.997-9.997Z" fill="#2D3F59" fill-opacity=".7"/></svg><svg id="popup-ok" width="72" height="72" viewBox="0 0 72 72" fill="none"><rect width="72" height="72" rx="36" fill="#71C011"/><path d="M44.33 28.456a1.334 1.334 0 0 1 2.007 1.755L33.754 44.59l-8.006-7.625a1.334 1.334 0 0 1 1.838-1.932l5.992 5.707L44.33 28.456Z" fill="#fff"/></svg><svg id="quote-back" width="141" height="153" viewBox="0 0 141 153" fill="none"><path d="M111.027 100c126.165 0 52.581-127.28-10.526-18.162 63.058-109.117-84.11-109.117-21.002 0C16.44-27.279-57.142 100 68.973 100c-126.165 0-52.581 127.279 10.526 18.162-63.058 109.117 84.109 109.117 21.002 0C163.559 227.329 237.142 100 111.027 100Z" fill="#2D3F59" fill-opacity=".1"/></svg><svg id="search" width="22" height="22" viewBox="0 0 22 22" fill="none"><path fill-rule="evenodd" clip-rule="evenodd" d="M10.083 3.667a6.417 6.417 0 1 0 0 12.833 6.417 6.417 0 0 0 0-12.833Zm-8.25 6.416a8.25 8.25 0 1 1 16.5 0 8.25 8.25 0 0 1-16.5 0Z" fill="#F70"/><path fill-rule="evenodd" clip-rule="evenodd" d="M14.934 14.935a.917.917 0 0 1 1.297 0l3.666 3.667a.917.917 0 0 1-1.296 1.296l-3.666-3.666a.917.917 0 0 1 0-1.297Z" fill="#F70"/></svg><svg id="shield" width="24" height="24" viewBox="0 0 24 24" fill="none"><path d="M11.758 1.03a.97.97 0 0 1 .484 0l8 2A1.001 1.001 0 0 1 21 4v10.783a4.972 4.972 0 0 1-2.35 4.24l-6.12 3.825a1 1 0 0 1-1.06 0l-6.12-3.825A4.973 4.973 0 0 1 3 14.783V4a1 1 0 0 1 .758-.97l8-2Zm4.913 7.311a1.097 1.097 0 0 0-1.59 0l-3.706 3.842-1.455-1.508a1.097 1.097 0 0 0-1.59 0 1.198 1.198 0 0 0 0 1.65l2.25 2.334a1.097 1.097 0 0 0 1.59 0l4.5-4.667c.44-.456.44-1.195 0-1.65Z" fill="#71C011"/></svg><svg id="spb" viewBox="0 0 32 32" fill="none"><path d="M1.333 8.899a1.333 1.333 0 0 1 1.965-1.173l11.008 5.927c1.87 1.006 1.87 3.688 0 4.695L3.298 24.275a1.334 1.334 0 0 1-1.953-.99l-.012-.183V8.899ZM4 20.869 13.042 16 4 11.13v9.739Z" fill="#fff"/><path d="M13.333 3.417a1.333 1.333 0 0 1 1.892-1.21l12.82 5.916c1.032.477 1.032 1.945 0 2.422l-12.82 5.915a1.333 1.333 0 0 1-1.88-1.031l-.012-.179V3.417ZM16 13.166l8.302-3.832L16 5.5v7.666Z" fill="#fff"/><path d="M13.333 16.75a1.333 1.333 0 0 1 1.892-1.21l12.82 5.916c1.032.477 1.032 1.945 0 2.422l-12.82 5.915a1.333 1.333 0 0 1-1.88-1.031l-.012-.178V16.75ZM16 26.5l8.302-3.832L16 18.834v7.665Z" fill="#fff"/></svg><svg id="star" viewBox="0 0 20 20" fill="none"><path d="m8.928.839-2.313 5.3-5.525.402C-.133 6.63-.275 7.96.406 8.566l4.32 3.835-1.319 5.384c-.251 1.024 1.018 1.683 1.712 1.276l4.987-2.926 4.713 2.921c.896.555 1.912-.45 1.74-1.235l-1.245-5.649 4.232-3.574c.938-.793.272-1.955-.636-2.044l-5.75-.56L11.064.866C10.518-.469 9.33-.086 8.928.841V.839Z" fill="#F6B756"/></svg><svg id="star-empty" viewBox="0 0 20 20" fill="none"><g clip-path="url(#clip0_199_5778)"><path d="M10.014 1.414a.86.86 0 0 1 .124.222l2.096 5.128.229.558.6.059 5.75.56a.212.212 0 0 1 .105.045.24.24 0 0 1 .076.094.078.078 0 0 1 .006.022v.003a.294.294 0 0 1-.043.065l-.057.056-4.232 3.574-.461.39.13.59v.001l.003.009.007.031.026.123.1.452.33 1.502.771 3.5c-.001.004-.003.012-.007.02a.392.392 0 0 1-.108.14.216.216 0 0 1-.094.05.105.105 0 0 1-.02-.01L12.4 16.773c-.49-.305-.932-.58-1.252-.777-.16-.099-.288-.18-.377-.234l-.102-.064-.027-.015-.007-.005-.001-.001h-.001l-.513-.319-.52.306-4.96 2.91h-.02a.39.39 0 0 1-.225-.11l-.02-.027c0-.004 0-.01.003-.022l1.32-5.384.143-.586-.45-.4L1.07 8.21a.214.214 0 0 1-.06-.099.242.242 0 0 1-.006-.12.077.077 0 0 1 .008-.021c0-.002.001-.003.002-.003 0 0 .007-.006.026-.014a.434.434 0 0 1 .122-.023l5.524-.402.603-.044.242-.553 2.312-5.3a.548.548 0 0 1 .146-.201c.008-.007.017-.011.024-.016Z" stroke="#F6B756" stroke-width="2"/></g></svg><svg id="star-half" viewBox="0 0 20 20" fill="none"><g clip-path="url(#clip0_162_4505)"><path d="M10.014 1.414a.86.86 0 0 1 .124.222l2.096 5.128.229.558.6.059 5.75.56a.212.212 0 0 1 .105.045.24.24 0 0 1 .076.094.078.078 0 0 1 .006.022v.003a.294.294 0 0 1-.043.065l-.057.056-4.232 3.574-.461.39.13.59v.001l.003.009.007.031.026.123.1.452.33 1.502.771 3.5c-.001.004-.003.012-.007.02a.392.392 0 0 1-.108.14.216.216 0 0 1-.094.05.105.105 0 0 1-.02-.01L12.4 16.773c-.49-.305-.932-.58-1.252-.777-.16-.099-.288-.18-.377-.234l-.102-.064-.027-.015-.007-.005-.001-.001h-.001l-.513-.319-.52.306-4.96 2.91h-.02a.39.39 0 0 1-.225-.11l-.02-.027c0-.004 0-.01.003-.022l1.32-5.384.143-.586-.45-.4L1.07 8.21a.214.214 0 0 1-.06-.099.242.242 0 0 1-.006-.12.077.077 0 0 1 .008-.021c0-.002.001-.003.002-.003 0 0 .007-.006.026-.014a.434.434 0 0 1 .122-.023l5.524-.402.603-.044.242-.553 2.312-5.3a.548.548 0 0 1 .146-.201c.008-.007.017-.011.024-.016Z" stroke="#F6B756" stroke-width="2"/><path d="m10 16.588-4.88 2.864c-.695.407-1.963-.251-1.713-1.275l1.32-5.384-4.32-3.835c-.682-.605-.54-1.936.683-2.025l5.525-.403 2.313-5.3v.002C9.139.748 9.564.416 10 .396v16.192Z" fill="#F6B756"/></g></svg><svg id="step-1" width="82" height="84" viewBox="0 0 82 84" fill="none"><rect y="2" width="82" height="82" rx="41" fill="#fff"/><path d="M56.188 24.438c-2.296-1.941-2.506-4.599-2.532-5.063H28.344c-.026.464-.236 3.122-2.532 5.063-2.117 1.797-4.539 1.712-5.062 1.687v19.963c0 4.354 1.4 8.632 4.151 12.015.026.025.05.06.068.084C27.28 61.014 31.778 64.22 41 66.626c9.222-2.405 13.72-5.61 16.031-8.438a.588.588 0 0 0 .068-.084c2.742-3.383 4.151-7.653 4.151-12.015V26.125c-.523.025-2.945.11-5.063-1.688Zm1.687 21.65c0 3.679-1.207 7.189-3.392 9.889l-.067.076C52.045 58.955 47.53 61.335 41 63.132c-6.53-1.797-11.045-4.177-13.424-7.08l-.068-.084c-2.176-2.691-3.383-6.201-3.383-9.88v-17.01a10.404 10.404 0 0 0 3.864-2.067 10.375 10.375 0 0 0 3.021-4.261h19.972a10.375 10.375 0 0 0 3.02 4.26 10.532 10.532 0 0 0 3.865 2.068v17.01h.008Z" fill="#2D3F59"/><path d="M41 30.344c-6.522 0-11.813 5.29-11.813 11.812 0 6.522 5.29 11.813 11.813 11.813 6.522 0 11.813-5.29 11.813-11.813 0-6.522-5.29-11.812-11.813-11.812Zm5.906 14.343h-3.375v3.376H38.47v-3.376h-3.375v-5.062h3.375V36.25h5.062v3.375h3.375v5.063Z" fill="#2D3F59"/><rect width="36" height="36" rx="18" fill="#F70"/><path d="M19.923 12.364V24h-2.108v-9.585h-.068l-2.721 1.738v-1.931l2.892-1.858h2.005Z" fill="#fff"/></svg><svg id="step-2" width="82" height="84" viewBox="0 0 82 84" fill="none"><rect y="2" width="82" height="82" rx="41" fill="#fff"/><g clip-path="url(#clip0_89_1142)"><path d="M41 16c-14.71 0-27 12.248-27 27 0 14.71 12.248 27 27 27 14.712 0 27-12.25 27-27 0-14.712-12.25-27-27-27Zm0 50.837c-6.037 0-12.076-2.353-16.78-7.057-9.033-9.033-9.393-22.979-1.082-32.405l4.27 4.27a9.442 9.442 0 0 0-.646 3.445v15.82c0 5.234 4.258 9.492 9.492 9.492 2.382 0 4.61-.865 6.334-2.418a9.453 9.453 0 0 0 6.322 2.418 9.44 9.44 0 0 0 5.497-1.758l2.218 2.218c-4.517 3.983-10.07 5.976-15.625 5.975Zm11.122-10.478a6.288 6.288 0 0 1-3.212.88 6.335 6.335 0 0 1-6.328-6.329c0-1.172.321-2.27.879-3.212l8.661 8.661Zm-6.424-10.898a6.288 6.288 0 0 1 3.212-.879 6.335 6.335 0 0 1 6.328 6.328c0 1.172-.321 2.27-.879 3.212l-8.66-8.661Zm-3.116-3.116-11.24-11.24a6.318 6.318 0 0 1 4.912-2.343 6.335 6.335 0 0 1 6.328 6.328v7.255Zm-5.401-.927h-7.255V35.09c0-.294.022-.583.06-.866l7.195 7.194Zm3.164 3.164.83.831a9.44 9.44 0 0 0-1.757 5.497c0 1.666.432 3.232 1.189 4.595a6.27 6.27 0 0 1-4.353 1.733 6.335 6.335 0 0 1-6.328-6.328v-6.328h10.419Zm18.517 14.043-2.217-2.218a9.44 9.44 0 0 0 1.757-5.497c0-5.234-4.258-9.492-9.492-9.492a9.45 9.45 0 0 0-3.164.543V35.09c0-5.234-4.258-9.492-9.492-9.492a9.473 9.473 0 0 0-7.156 3.262l-3.723-3.722c4.517-3.982 10.07-5.975 15.625-5.975 6.038 0 12.075 2.352 16.78 7.057 9.033 9.033 9.393 22.979 1.082 32.405Z" fill="#2D3F59"/></g><rect width="36" height="36" rx="18" fill="#F70"/><path d="M14.065 24v-1.523l4.04-3.96c.386-.39.708-.737.966-1.04.258-.303.45-.596.58-.88.128-.285.193-.588.193-.91 0-.367-.084-.681-.25-.943a1.663 1.663 0 0 0-.688-.613 2.216 2.216 0 0 0-.994-.216c-.383 0-.718.08-1.006.238a1.643 1.643 0 0 0-.67.665c-.155.288-.233.63-.233 1.029h-2.006c0-.739.169-1.381.506-1.926a3.413 3.413 0 0 1 1.392-1.268c.595-.299 1.276-.449 2.045-.449.78 0 1.466.146 2.057.438.591.292 1.05.691 1.375 1.199.33.508.494 1.087.494 1.739 0 .435-.083.863-.25 1.284-.166.42-.46.886-.88 1.397-.417.512-1.002 1.131-1.756 1.858l-2.006 2.04v.08h5.069V24h-7.978Z" fill="#fff"/></svg><svg id="step-3" width="82" height="84" viewBox="0 0 82 84" fill="none"><rect y="2" width="82" height="82" rx="41" fill="#fff"/><path d="m41.824 68.136-2.83-.016-3.241-.313c-5.73-.713-10.515-2.252-15.482-5.365-1.586-.994-1.566-.945-.806-2.718l.977-2.24c1.722-3.557 4.038-6.448 7.719-8.026.795-.342 1.627-.584 2.449-.851l1.623-.568c-.126-.073-.3-.104-.44-.148l-.639-.236c-2.14-.904-3.872-2.89-4.378-5.169-.199-.89-.252-2.289.62-2.856.2-.13.423-.221.614-.366 1.136-.856 1.034-2.635 1.032-3.891l.004-2.673c.04-2.12.524-4.3 1.155-6.312 1.688-5.377 4.817-8.467 10.494-8.823 2.826-.113 5.684.794 7.906 2.54 2.931 2.305 4.225 4.918 4.494 8.686.081 1.132.085 2.294-.059 3.421l-.264 1.764c-.274 1.585-.701 4.19.872 5.278.263.182.565.283.821.483 1.723 1.34.258 4.529-.784 5.829-.866 1.08-2.487 2.276-3.926 2.436.13.102.343.167.5.225l1.338.457c.94.315 1.89.625 2.793 1.04 4.265 1.955 6.206 5.515 8.027 9.657l.399.91c.544 1.248.156 1.37-.82 1.992l-1.82 1.098c-5.335 2.96-12.187 4.758-18.348 4.755Zm-1.257-48.91c-2.404.157-4.817 1.116-6.434 2.948-2.109 2.387-3.392 7.422-3.438 10.72l.006 2.534c.018 2.258-.024 4.252-2.265 5.498-.224.124-.1.455-.085.673.172 2.563 2.666 5.03 5.3 4.84 1.578-.114 2.258-1.424 2.259-2.884-.222-.317-.495-.6-.74-.897-1.676-2.034-2.996-4.61-3.445-7.224-.638-3.702.858-4.449 3.002-6.74a8.75 8.75 0 0 0 1.079-1.428l.448-.798c.194-.38.41-1.052.765-1.292.75-.51 1.378.346 1.873.78.368.323.765.618 1.156.913 2.036 1.512 5.581 3.398 8.147 3.714.37.045.885-.063 1.224.086.89.391.732 1.475.724 2.267-.033 3.496-1.35 7.443-3.709 10.017-.377.413-.563.361-.483.933.208 1.49.896 2.483 2.459 2.58 2.931.183 5.163-2.606 5.165-5.37l-.035-.013c-2.251-.916-2.863-3.443-2.658-5.643.061-.653.199-1.322.305-1.97l.26-2.002c.069-.762.075-1.988.014-2.765-.31-4.002-2.576-7.17-6.239-8.713-1.48-.624-3.06-.833-4.655-.765Zm-2.784 7.863c-.687 1.496-1.747 2.608-2.884 3.762-.437.443-.95.897-1.252 1.445-1.278 2.322.66 6.31 2.04 8.298.962 1.387 2.114 2.587 3.678 3.298 1.444.656 2.572.453 3.871-.315 3.793-2.435 5.226-7.028 5.234-11.323-3.564-.425-8.254-2.65-10.687-5.165Zm-.402 17.509c-.081.814-.322 1.53-.825 2.184l-.255.31c-.059.066-.086.054-.055.139l1.136 3.212c.109.325.147.87.505.984l.512.153c1.575.45 3.118.523 4.723.112l1.162-.379.179-.49 1.142-3.505c-.337-.564-.656-1.114-.894-1.73l-.2-.592c-.02-.063-.04-.187-.084-.234-2.234 1.603-4.93 1.628-7.046-.164Zm-2.544 3.662-1.06.776c-2.042 1.593-2.114 3.2-1.86 5.665 1.08.344 1.898 1.018 2.418 2.029.864 1.68 1.415 4.873-.683 5.923-.425.213-1.11.434-1.584.284a.827.827 0 0 1-.54-1.064c.318-.882 1.699-.099 1.908-1.906l.006-.053c.164-1.446-.832-3.561-2.44-3.727-1.753-.181-2.904 1.304-3.023 2.925-.245 3.36 1.31 1.935 1.85 2.796.452.724-.2 1.445-1.01 1.371-2.291-.21-2.698-2.48-2.483-4.376l.022-.134c.456-2.182 1.34-3.793 3.787-4.22-.031-1.373.035-3.05.627-4.313-4.64 1.643-6.743 3.53-8.9 8.041l-1.094 2.541 3.796 2.17c3.967 1.91 8.379 2.979 12.76 3.347l2.859.108c-.47-3.638-1.422-6.359-2.563-9.837l-2.397-7.402c-.114-.312-.253-.622-.344-.942l-.052-.002Zm12.231.018-1.682 5.027-2.608 8.42-.877 4.122c-.025.18-.021.43-.09.595l2.628-.108c5.923-.485 11.82-2.224 16.79-5.537l-1.72-3.752c-1.34-2.472-3.185-4.53-5.742-5.775-.833-.406-1.718-.685-2.552-1.084l-.018.001c.332.906.398 1.893.398 2.85l-.078 2.574c.739.287 1.437.95 1.754 1.68 1.084 2.491-1.463 5.077-3.92 4.05-2.808-1.175-2.362-5.264.444-5.82.06-.28.057-.608.086-.897.322-3.226.014-4.682-2.813-6.346Zm-8.788 4.99 2.747 8.61.677-2.348 1.13-3.647c.262-.86.489-1.753.85-2.576-1.628.414-3.792.445-5.404-.04Zm11.896 3.895c-1.555.426-1.612 2.71.525 2.68 1.737-.333 1.357-2.878-.525-2.68Z" fill="#2D3F59"/><path d="m41.824 68.136-2.83-.016-3.241-.313c-5.73-.713-10.515-2.252-15.482-5.365-1.586-.994-1.566-.945-.806-2.718l.977-2.24c1.722-3.557 4.038-6.448 7.719-8.026.795-.342 1.627-.584 2.449-.851l1.623-.568c-.126-.073-.3-.104-.44-.148l-.639-.236c-2.14-.904-3.872-2.89-4.378-5.169-.199-.89-.252-2.289.62-2.856.2-.13.423-.221.614-.366 1.136-.856 1.034-2.635 1.032-3.891l.004-2.673c.04-2.12.524-4.3 1.155-6.312 1.688-5.377 4.817-8.467 10.494-8.823 2.826-.113 5.684.794 7.906 2.54 2.931 2.305 4.225 4.918 4.494 8.686.081 1.132.085 2.294-.059 3.421l-.264 1.764c-.274 1.585-.701 4.19.872 5.278.263.182.565.283.821.483 1.723 1.34.258 4.529-.784 5.829-.866 1.08-2.487 2.276-3.926 2.436.13.102.343.167.5.225l1.338.457c.94.315 1.89.625 2.793 1.04 4.265 1.955 6.206 5.515 8.027 9.657l.399.91c.544 1.248.156 1.37-.82 1.992l-1.82 1.098c-5.335 2.96-12.187 4.758-18.348 4.755Zm-1.257-48.91c-2.404.157-4.817 1.116-6.434 2.948-2.109 2.387-3.392 7.422-3.438 10.72l.006 2.534c.018 2.258-.024 4.252-2.265 5.498-.224.124-.1.455-.085.673.172 2.563 2.666 5.03 5.3 4.84 1.578-.114 2.258-1.424 2.259-2.884-.222-.317-.495-.6-.74-.897-1.676-2.034-2.996-4.61-3.445-7.224-.638-3.702.858-4.449 3.002-6.74a8.75 8.75 0 0 0 1.079-1.428l.448-.798c.194-.38.41-1.052.765-1.292.75-.51 1.378.346 1.873.78.368.323.765.618 1.156.913 2.036 1.512 5.581 3.398 8.147 3.714.37.045.885-.063 1.224.086.89.391.732 1.475.724 2.267-.033 3.496-1.35 7.443-3.709 10.017-.377.413-.563.361-.483.933.208 1.49.896 2.483 2.459 2.58 2.931.183 5.163-2.606 5.165-5.37l-.035-.013c-2.251-.916-2.863-3.443-2.658-5.643.061-.653.199-1.322.305-1.97l.26-2.002c.069-.762.075-1.988.014-2.765-.31-4.002-2.576-7.17-6.239-8.713-1.48-.624-3.06-.833-4.655-.765Zm-2.784 7.863c-.687 1.496-1.747 2.608-2.884 3.762-.437.443-.95.897-1.252 1.445-1.278 2.322.66 6.31 2.04 8.298.962 1.387 2.114 2.587 3.678 3.298 1.444.656 2.572.453 3.871-.315 3.793-2.435 5.226-7.028 5.234-11.323-3.564-.425-8.254-2.65-10.687-5.165Zm-.402 17.509c-.081.814-.322 1.53-.825 2.184l-.255.31c-.059.066-.086.054-.055.139l1.136 3.212c.109.325.147.87.505.984l.512.153c1.575.45 3.118.523 4.723.112l1.162-.379.179-.49 1.142-3.505c-.337-.564-.656-1.114-.894-1.73l-.2-.592c-.02-.063-.04-.187-.084-.234-2.234 1.603-4.93 1.628-7.046-.164Zm-2.544 3.662-1.06.776c-2.042 1.593-2.114 3.2-1.86 5.665 1.08.344 1.898 1.018 2.418 2.029.864 1.68 1.415 4.873-.683 5.923-.425.213-1.11.434-1.584.284a.827.827 0 0 1-.54-1.064c.318-.882 1.699-.099 1.908-1.906l.006-.053c.164-1.446-.832-3.561-2.44-3.727-1.753-.181-2.904 1.304-3.023 2.925-.245 3.36 1.31 1.935 1.85 2.796.452.724-.2 1.445-1.01 1.371-2.291-.21-2.698-2.48-2.483-4.376l.022-.134c.456-2.182 1.34-3.793 3.787-4.22-.031-1.373.035-3.05.627-4.313-4.64 1.643-6.743 3.53-8.9 8.041l-1.094 2.541 3.796 2.17c3.967 1.91 8.379 2.979 12.76 3.347l2.859.108c-.47-3.638-1.422-6.359-2.563-9.837l-2.397-7.402c-.114-.312-.253-.622-.344-.942l-.052-.002Zm12.231.018-1.682 5.027-2.608 8.42-.877 4.122c-.025.18-.021.43-.09.595l2.628-.108c5.923-.485 11.82-2.224 16.79-5.537l-1.72-3.752c-1.34-2.472-3.185-4.53-5.742-5.775-.833-.406-1.718-.685-2.552-1.084l-.018.001c.332.906.398 1.893.398 2.85l-.078 2.574c.739.287 1.437.95 1.754 1.68 1.084 2.491-1.463 5.077-3.92 4.05-2.808-1.175-2.362-5.264.444-5.82.06-.28.057-.608.086-.897.322-3.226.014-4.682-2.813-6.346Zm-8.788 4.99 2.747 8.61.677-2.348 1.13-3.647c.262-.86.489-1.753.85-2.576-1.628.414-3.792.445-5.404-.04Zm11.896 3.895c-1.555.426-1.612 2.71.525 2.68 1.737-.333 1.357-2.878-.525-2.68Z" stroke="#2D3F59" mask="url(#path-2-outside-1_90_1154)"/><rect width="36" height="36" rx="18" fill="#F70"/><path d="M18 24.16c-.819 0-1.546-.141-2.182-.421-.633-.28-1.133-.67-1.5-1.17a3.034 3.034 0 0 1-.586-1.734h2.137c.018.315.123.59.312.824.19.231.441.411.756.54.314.129.666.193 1.057.193.416 0 .786-.072 1.108-.216a1.82 1.82 0 0 0 .755-.613c.182-.262.271-.563.267-.904a1.57 1.57 0 0 0-.272-.932c-.186-.269-.455-.479-.807-.63-.349-.152-.77-.228-1.262-.228h-1.028v-1.625h1.028c.406 0 .76-.07 1.063-.21.307-.14.547-.337.721-.59a1.52 1.52 0 0 0 .256-.893c.004-.33-.07-.615-.221-.858a1.497 1.497 0 0 0-.631-.574 2.074 2.074 0 0 0-.949-.204 2.5 2.5 0 0 0-.989.193 1.799 1.799 0 0 0-.733.551 1.396 1.396 0 0 0-.295.841h-2.028c.015-.652.202-1.223.562-1.716a3.63 3.63 0 0 1 1.455-1.159c.606-.28 1.286-.42 2.04-.42.776 0 1.45.145 2.022.437.576.288 1.02.676 1.335 1.165.315.489.472 1.028.472 1.62.004.654-.19 1.204-.58 1.647-.386.443-.894.733-1.522.87v.09c.818.114 1.445.417 1.88.91.44.488.658 1.096.654 1.823a2.92 2.92 0 0 1-.557 1.75c-.367.511-.875.913-1.523 1.205-.644.291-1.382.437-2.216.437Z" fill="#fff"/></svg><svg id="step-4" width="82" height="84" viewBox="0 0 82 84" fill="none"><rect y="2" width="82" height="82" rx="41" fill="#fff"/><g clip-path="url(#clip0_90_1196)"><path d="M67.583 56.168c-.164-.179-3.624-3.902-8.513-5.779a17.296 17.296 0 0 0 2.496-8.971v-3.164c0-.874-.708-1.582-1.582-1.582H56.82c-2.99 0-5.859.744-8.422 2.168-1.541-6.358-6.046-10.962-6.275-11.193a1.582 1.582 0 0 0-2.246 0c-.23.231-4.734 4.835-6.275 11.193a17.247 17.247 0 0 0-8.422-2.168h-3.164c-.874 0-1.582.708-1.582 1.582v3.164c0 3.28.912 6.35 2.496 8.972-4.889 1.876-8.349 5.6-8.513 5.778a1.582 1.582 0 0 0-.004 2.136c.255.28 6.33 6.844 13.93 6.844 2.397 0 4.63-.652 6.575-1.554 2.052 2.673 5.159 4.433 5.31 4.517a1.582 1.582 0 0 0 1.545 0c.15-.084 3.257-1.844 5.31-4.517 1.943.902 4.177 1.554 6.573 1.554 7.601 0 13.676-6.564 13.93-6.844a1.582 1.582 0 0 0-.003-2.136Zm-26.58-24.992c1.704 2.136 4.743 6.668 4.743 11.824 0 5.136-3.045 9.682-4.748 11.824-1.705-2.136-4.744-6.668-4.744-11.824 0-5.136 3.045-9.682 4.748-11.824Zm-12.66 30.808c-4.516 0-8.586-3.065-10.477-4.743 1.398-1.238 3.98-3.228 7.038-4.19a17.367 17.367 0 0 0 11.93 5.74c-2.469 1.8-5.436 3.193-8.49 3.193Zm-4.745-20.566v-1.582h1.582c2.859 0 5.582.833 7.927 2.412-.011.25-.017.5-.017.752 0 5.302 2.581 9.903 4.563 12.654-7.767-.099-14.055-6.446-14.055-14.236ZM41 64.866c-.847-.563-2.223-1.578-3.285-2.837A25.913 25.913 0 0 0 41 59.465a25.95 25.95 0 0 0 3.284 2.564c-1.061 1.26-2.438 2.274-3.284 2.837ZM48.91 43c0-.252-.006-.503-.017-.752a14.097 14.097 0 0 1 7.927-2.412h1.582v1.582c0 7.79-6.288 14.137-14.055 14.236C46.33 52.903 48.91 48.302 48.91 43Zm4.746 18.984c-3.315 0-6.36-1.653-8.48-3.194a17.367 17.367 0 0 0 11.92-5.74c3.06.964 5.644 2.956 7.04 4.193-1.884 1.68-5.943 4.741-10.48 4.741ZM41 17.688c-.874 0-1.582.708-1.582 1.582v3.164a1.582 1.582 0 0 0 3.164 0v-3.165c0-.873-.708-1.581-1.582-1.581ZM30.581 27.18l-2.237-2.238a1.582 1.582 0 0 0-2.238 2.237l2.238 2.238a1.582 1.582 0 1 0 2.237-2.238Zm25.313-2.238a1.582 1.582 0 0 0-2.238 0l-2.237 2.237a1.582 1.582 0 0 0 2.237 2.238l2.238-2.238a1.582 1.582 0 0 0 0-2.237Z" fill="#2D3F59"/></g><rect width="36" height="36" rx="18" fill="#F70"/><path d="M13.496 21.84v-1.675l4.937-7.801h1.398v2.386h-.852l-3.324 5.267v.091h6.892v1.733h-9.051Zm5.55 2.16v-2.67l.024-.75v-8.216h1.988V24h-2.011Z" fill="#fff"/></svg><svg id="svg" width="24" height="24" viewBox="0 0 24 24" fill="none"><g clip-path="url(#clip0_540_11550)"><path d="M3.67 2.832a.855.855 0 0 0-.854.859V16.57c0 .472.385.858.86.859 1.998.005 5.348.421 7.658 2.839V6.79c0-.16-.04-.31-.118-.435C9.319 3.3 5.675 2.837 3.671 2.832ZM21.184 16.57V3.69a.855.855 0 0 0-.854-.859h-.002c-2.003.005-5.648.469-7.544 3.523a.823.823 0 0 0-.118.435v13.477c2.31-2.418 5.66-2.835 7.659-2.84a.862.862 0 0 0 .86-.858Z" fill="#71C011"/><path d="M23.142 5.802h-.623V16.57a2.197 2.197 0 0 1-2.19 2.192c-1.696.004-4.492.336-6.472 2.21 3.425-.839 7.035-.294 9.092.175A.857.857 0 0 0 24 20.31V6.661a.86.86 0 0 0-.858-.859ZM1.481 16.57V5.801H.86a.86.86 0 0 0-.86.86v13.648a.857.857 0 0 0 1.05.837c2.058-.47 5.668-1.014 9.093-.176-1.98-1.873-4.776-2.205-6.472-2.209a2.197 2.197 0 0 1-2.19-2.192Z" fill="#71C011"/></g></svg><svg id="tg" viewBox="0 0 24 24"><path d="M19.035 5.349 3.09 11.458c-1.088.434-1.081 1.037-.2 1.306l4.094 1.27 9.472-5.939c.448-.27.857-.125.52.172L9.304 15.15H9.3h.002l-.283 4.193c.414 0 .597-.188.829-.411l1.988-1.921 4.136 3.035c.762.418 1.31.203 1.5-.701L20.188 6.63c.278-1.107-.425-1.608-1.153-1.281Z"/></svg><svg id="time" width="24" height="24" viewBox="0 0 24 24" fill="none"><path d="M13.249 21.083a9.26 9.26 0 0 1-1.249.084c-5.054 0-9.167-4.112-9.167-9.167 0-5.054 4.113-9.167 9.167-9.167 2.872 0 4.565.731 5.95 1.834h-1.366a.916.916 0 1 0 0 1.833h3.666c.506 0 .917-.41.917-.917V1.917a.917.917 0 0 0-1.833 0V3.43C17.676 2.04 15.567 1 12 1 5.934 1 1 5.934 1 12c0 6.065 4.934 11 11 11 .502 0 1.006-.034 1.497-.101a.915.915 0 0 0 .784-1.033.915.915 0 0 0-1.032-.783Zm8.318-5.761a.917.917 0 0 0-1.214.457 9.16 9.16 0 0 1-1.006 1.703.916.916 0 1 0 1.468 1.098 11.05 11.05 0 0 0 1.21-2.044.917.917 0 0 0-.458-1.214Zm-4.082 4.024a9.221 9.221 0 0 1-1.704 1.008.916.916 0 1 0 .758 1.669 11.03 11.03 0 0 0 2.043-1.208.916.916 0 1 0-1.097-1.469Zm4.598-8.263a.917.917 0 0 0-.916.917c0 .42-.029.84-.085 1.248a.916.916 0 0 0 .91 1.042.918.918 0 0 0 .907-.793c.067-.492.101-.995.101-1.497a.916.916 0 0 0-.917-.917Z" fill="#71C011"/><path d="M12 5.583A6.424 6.424 0 0 0 5.583 12 6.424 6.424 0 0 0 12 18.416 6.424 6.424 0 0 0 18.417 12 6.424 6.424 0 0 0 12 5.583ZM12.916 12a.925.925 0 0 1-.268.648l-1.833 1.833a.914.914 0 0 1-1.297 0 .916.916 0 0 1 0-1.296l1.565-1.565v-1.454a.917.917 0 0 1 1.833 0V12Z" fill="#71C011"/></svg><svg id="vk" viewBox="0 0 24 24"><path d="M12.938 19.104C5.763 19.104 1.67 14.184 1.5 6h3.594c.118 6.008 2.768 8.552 4.866 9.077V6h3.384v5.181c2.073-.223 4.25-2.584 4.985-5.181h3.384c-.564 3.2-2.925 5.562-4.604 6.532 1.679.787 4.368 2.847 5.391 6.572h-3.725c-.8-2.492-2.794-4.42-5.43-4.683v4.683h-.407Z"/></svg><svg id="wallet" viewBox="0 0 32 32"><path fill-rule="evenodd" clip-rule="evenodd" d="M2.667 9.334a6.667 6.667 0 0 1 6.666-6.667h13.334a6.667 6.667 0 0 1 6.666 6.667v13.333a6.667 6.667 0 0 1-6.666 6.667H9.333a6.667 6.667 0 0 1-6.666-6.667V9.334Zm6.666-4a4 4 0 0 0-4 4v13.333a4 4 0 0 0 4 4h13.334a4 4 0 0 0 4-4V9.334a4 4 0 0 0-4-4H9.333Z"/><path fill-rule="evenodd" clip-rule="evenodd" d="M14.667 16A5.333 5.333 0 0 1 20 10.667h6.667a2.667 2.667 0 0 1 2.666 2.667v5.333a2.667 2.667 0 0 1-2.666 2.667H20A5.333 5.333 0 0 1 14.667 16ZM20 13.334a2.667 2.667 0 1 0 0 5.333h6.667v-5.333H20Z"/><path fill-rule="evenodd" clip-rule="evenodd" d="M18.667 16c0-.736.597-1.333 1.333-1.333h.133a1.333 1.333 0 1 1 0 2.667H20A1.333 1.333 0 0 1 18.667 16Z"/></svg></svg>