<svg width="20" height="20" fill="none" xmlns="http://www.w3.org/2000/svg"><g clip-path="url(#a)"><path d="M10.014 1.414a.86.86 0 0 1 .124.222l2.096 5.128.229.558.6.059 5.75.56a.212.212 0 0 1 .105.045.24.24 0 0 1 .076.094.078.078 0 0 1 .006.022v.003a.294.294 0 0 1-.043.065l-.057.056-4.232 3.574-.461.39.13.59v.001l.003.009.007.031.026.123.1.452.33 1.502.771 3.5c-.001.004-.003.012-.007.02a.392.392 0 0 1-.108.14.216.216 0 0 1-.094.05.105.105 0 0 1-.02-.01L12.4 16.773c-.49-.305-.932-.58-1.252-.777-.16-.099-.288-.18-.377-.234l-.102-.064-.027-.015-.007-.005-.001-.001h-.001l-.513-.319-.52.306-4.96 2.91h-.02a.39.39 0 0 1-.225-.11l-.02-.027c0-.004 0-.01.003-.022l1.32-5.384.143-.586-.45-.4L1.07 8.21a.214.214 0 0 1-.06-.099.242.242 0 0 1-.006-.12.077.077 0 0 1 .008-.021c0-.002.001-.003.002-.003 0 0 .007-.006.026-.014a.434.434 0 0 1 .122-.023l5.524-.402.603-.044.242-.553 2.312-5.3a.548.548 0 0 1 .146-.201c.008-.007.017-.011.024-.016Z" stroke="#F6B756" stroke-width="2"/><path d="m10 16.588-4.88 2.864c-.695.407-1.963-.251-1.713-1.275l1.32-5.384-4.32-3.835c-.682-.605-.54-1.936.683-2.025l5.525-.403 2.313-5.3v.002C9.139.748 9.564.416 10 .396v16.192Z" fill="#F6B756"/></g><defs><clipPath id="a"><path fill="#fff" d="M0 0h20v20H0z"/></clipPath></defs></svg>