<svg width="82" height="84" fill="none" xmlns="http://www.w3.org/2000/svg"><rect y="2" width="82" height="82" rx="41" fill="#fff"/><g clip-path="url(#a)" fill="#2D3F59"><path d="M67.583 56.168c-.164-.179-3.624-3.902-8.513-5.779a17.296 17.296 0 0 0 2.496-8.971v-3.164c0-.874-.708-1.582-1.582-1.582H56.82c-2.99 0-5.859.744-8.422 2.168-1.541-6.358-6.046-10.962-6.275-11.193a1.582 1.582 0 0 0-2.246 0c-.23.231-4.734 4.835-6.275 11.193a17.247 17.247 0 0 0-8.422-2.168h-3.164c-.874 0-1.582.708-1.582 1.582v3.164c0 3.28.912 6.35 2.496 8.972-4.889 1.876-8.349 5.6-8.513 5.778a1.582 1.582 0 0 0-.004 2.136c.255.28 6.33 6.844 13.93 6.844 2.397 0 4.63-.652 6.575-1.554 2.052 2.673 5.159 4.433 5.31 4.517a1.582 1.582 0 0 0 1.545 0c.15-.084 3.257-1.844 5.31-4.517 1.943.902 4.177 1.554 6.573 1.554 7.601 0 13.676-6.564 13.93-6.844a1.582 1.582 0 0 0-.003-2.136Zm-26.58-24.992c1.704 2.136 4.743 6.668 4.743 11.824 0 5.136-3.045 9.682-4.748 11.824-1.705-2.136-4.744-6.668-4.744-11.824 0-5.136 3.045-9.682 4.748-11.824Zm-12.66 30.808c-4.516 0-8.586-3.065-10.477-4.743 1.398-1.238 3.98-3.228 7.038-4.19a17.367 17.367 0 0 0 11.93 5.74c-2.469 1.8-5.436 3.193-8.49 3.193Zm-4.745-20.566v-1.582h1.582c2.859 0 5.582.833 7.927 2.412-.011.25-.017.5-.017.752 0 5.302 2.581 9.903 4.563 12.654-7.767-.099-14.055-6.446-14.055-14.236ZM41 64.866c-.847-.563-2.223-1.578-3.285-2.837A25.913 25.913 0 0 0 41 59.465a25.95 25.95 0 0 0 3.284 2.564c-1.061 1.26-2.438 2.274-3.284 2.837ZM48.91 43c0-.252-.006-.503-.017-.752a14.097 14.097 0 0 1 7.927-2.412h1.582v1.582c0 7.79-6.288 14.137-14.055 14.236C46.33 52.903 48.91 48.302 48.91 43Zm4.746 18.984c-3.315 0-6.36-1.653-8.48-3.194a17.367 17.367 0 0 0 11.92-5.74c3.06.964 5.644 2.956 7.04 4.193-1.884 1.68-5.943 4.741-10.48 4.741ZM41 17.688c-.874 0-1.582.708-1.582 1.582v3.164a1.582 1.582 0 0 0 3.164 0v-3.165c0-.873-.708-1.581-1.582-1.581ZM30.581 27.18l-2.237-2.238a1.582 1.582 0 0 0-2.238 2.237l2.238 2.238a1.582 1.582 0 1 0 2.237-2.238Zm25.313-2.238a1.582 1.582 0 0 0-2.238 0l-2.237 2.237a1.582 1.582 0 0 0 2.237 2.238l2.238-2.238a1.582 1.582 0 0 0 0-2.237Z"/></g><rect width="36" height="36" rx="18" fill="#F70"/><path d="M13.496 21.84v-1.675l4.937-7.801h1.398v2.386h-.852l-3.324 5.267v.091h6.892v1.733h-9.051Zm5.55 2.16v-2.67l.024-.75v-8.216h1.988V24h-2.011Z" fill="#fff"/><defs><clipPath id="a"><path fill="#fff" transform="translate(14 16)" d="M0 0h54v54H0z"/></clipPath></defs></svg>