<svg width="82" height="84" fill="none" xmlns="http://www.w3.org/2000/svg"><rect y="2" width="82" height="82" rx="41" fill="#fff"/><mask id="a" maskUnits="userSpaceOnUse" x="17.963" y="16.556" width="46" height="53" fill="#000"><path fill="#fff" d="M17.963 16.556h46v53h-46z"/><path d="m41.824 68.136-2.83-.016-3.241-.313c-5.73-.713-10.515-2.252-15.482-5.365-1.586-.994-1.566-.945-.806-2.718l.977-2.24c1.722-3.557 4.038-6.448 7.719-8.026.795-.342 1.627-.584 2.449-.851l1.623-.568c-.126-.073-.3-.104-.44-.148l-.639-.236c-2.14-.904-3.872-2.89-4.378-5.169-.199-.89-.252-2.289.62-2.856.2-.13.423-.221.614-.366 1.136-.856 1.034-2.635 1.032-3.891l.004-2.673c.04-2.12.524-4.3 1.155-6.312 1.688-5.377 4.817-8.467 10.494-8.823 2.826-.113 5.684.794 7.906 2.54 2.931 2.305 4.225 4.918 4.494 8.686.081 1.132.085 2.294-.059 3.421l-.264 1.764c-.274 1.585-.701 4.19.872 5.278.263.182.565.283.821.483 1.723 1.34.258 4.529-.784 5.829-.866 1.08-2.487 2.276-3.926 2.436.13.102.343.167.5.225l1.338.457c.94.315 1.89.625 2.793 1.04 4.265 1.955 6.206 5.515 8.027 9.657l.399.91c.544 1.248.156 1.37-.82 1.992l-1.82 1.098c-5.335 2.96-12.187 4.758-18.348 4.755Zm-1.257-48.91c-2.404.157-4.817 1.116-6.434 2.948-2.109 2.387-3.392 7.422-3.438 10.72l.006 2.534c.018 2.258-.024 4.252-2.265 5.498-.224.124-.1.455-.085.673.172 2.563 2.666 5.03 5.3 4.84 1.578-.114 2.258-1.424 2.259-2.884-.222-.317-.495-.6-.74-.897-1.676-2.034-2.996-4.61-3.445-7.224-.638-3.702.858-4.449 3.002-6.74a8.75 8.75 0 0 0 1.079-1.428l.448-.798c.194-.38.41-1.052.765-1.292.75-.51 1.378.346 1.873.78.368.323.765.618 1.156.913 2.036 1.512 5.581 3.398 8.147 3.714.37.045.885-.063 1.224.086.89.391.732 1.475.724 2.267-.033 3.496-1.35 7.443-3.709 10.017-.377.413-.563.361-.483.933.208 1.49.896 2.483 2.459 2.58 2.931.183 5.163-2.606 5.165-5.37l-.035-.013c-2.251-.916-2.863-3.443-2.658-5.643.061-.653.199-1.322.305-1.97l.26-2.002c.069-.762.075-1.988.014-2.765-.31-4.002-2.576-7.17-6.239-8.713-1.48-.624-3.06-.833-4.655-.765Zm-2.784 7.863c-.687 1.496-1.747 2.608-2.884 3.762-.437.443-.95.897-1.252 1.445-1.278 2.322.66 6.31 2.04 8.298.962 1.387 2.114 2.587 3.678 3.298 1.444.656 2.572.453 3.871-.315 3.793-2.435 5.226-7.028 5.234-11.323-3.564-.425-8.254-2.65-10.687-5.165Zm-.402 17.509c-.081.814-.322 1.53-.825 2.184l-.255.31c-.059.066-.086.054-.055.139l1.136 3.212c.109.325.147.87.505.984l.512.153c1.575.45 3.118.523 4.723.112l1.162-.379.179-.49 1.142-3.505c-.337-.564-.656-1.114-.894-1.73l-.2-.592c-.02-.063-.04-.187-.084-.234-2.234 1.603-4.93 1.628-7.046-.164Zm-2.544 3.662-1.06.776c-2.042 1.593-2.114 3.2-1.86 5.665 1.08.344 1.898 1.018 2.418 2.029.864 1.68 1.415 4.873-.683 5.923-.425.213-1.11.434-1.584.284a.827.827 0 0 1-.54-1.064c.318-.882 1.699-.099 1.908-1.906l.006-.053c.164-1.446-.832-3.561-2.44-3.727-1.753-.181-2.904 1.304-3.023 2.925-.245 3.36 1.31 1.935 1.85 2.796.452.724-.2 1.445-1.01 1.371-2.291-.21-2.698-2.48-2.483-4.376l.022-.134c.456-2.182 1.34-3.793 3.787-4.22-.031-1.373.035-3.05.627-4.313-4.64 1.643-6.743 3.53-8.9 8.041l-1.094 2.541 3.796 2.17c3.967 1.91 8.379 2.979 12.76 3.347l2.859.108c-.47-3.638-1.422-6.359-2.563-9.837l-2.397-7.402c-.114-.312-.253-.622-.344-.942l-.052-.002Zm12.231.018-1.682 5.027-2.608 8.42-.877 4.122c-.025.18-.021.43-.09.595l2.628-.108c5.923-.485 11.82-2.224 16.79-5.537l-1.72-3.752c-1.34-2.472-3.185-4.53-5.742-5.775-.833-.406-1.718-.685-2.552-1.084l-.018.001c.332.906.398 1.893.398 2.85l-.078 2.574c.739.287 1.437.95 1.754 1.68 1.084 2.491-1.463 5.077-3.92 4.05-2.808-1.175-2.362-5.264.444-5.82.06-.28.057-.608.086-.897.322-3.226.014-4.682-2.813-6.346Zm-8.788 4.99 2.747 8.61.677-2.348 1.13-3.647c.262-.86.489-1.753.85-2.576-1.628.414-3.792.445-5.404-.04Zm11.896 3.895c-1.555.426-1.612 2.71.525 2.68 1.737-.333 1.357-2.878-.525-2.68Z"/></mask><path d="m41.824 68.136-2.83-.016-3.241-.313c-5.73-.713-10.515-2.252-15.482-5.365-1.586-.994-1.566-.945-.806-2.718l.977-2.24c1.722-3.557 4.038-6.448 7.719-8.026.795-.342 1.627-.584 2.449-.851l1.623-.568c-.126-.073-.3-.104-.44-.148l-.639-.236c-2.14-.904-3.872-2.89-4.378-5.169-.199-.89-.252-2.289.62-2.856.2-.13.423-.221.614-.366 1.136-.856 1.034-2.635 1.032-3.891l.004-2.673c.04-2.12.524-4.3 1.155-6.312 1.688-5.377 4.817-8.467 10.494-8.823 2.826-.113 5.684.794 7.906 2.54 2.931 2.305 4.225 4.918 4.494 8.686.081 1.132.085 2.294-.059 3.421l-.264 1.764c-.274 1.585-.701 4.19.872 5.278.263.182.565.283.821.483 1.723 1.34.258 4.529-.784 5.829-.866 1.08-2.487 2.276-3.926 2.436.13.102.343.167.5.225l1.338.457c.94.315 1.89.625 2.793 1.04 4.265 1.955 6.206 5.515 8.027 9.657l.399.91c.544 1.248.156 1.37-.82 1.992l-1.82 1.098c-5.335 2.96-12.187 4.758-18.348 4.755Zm-1.257-48.91c-2.404.157-4.817 1.116-6.434 2.948-2.109 2.387-3.392 7.422-3.438 10.72l.006 2.534c.018 2.258-.024 4.252-2.265 5.498-.224.124-.1.455-.085.673.172 2.563 2.666 5.03 5.3 4.84 1.578-.114 2.258-1.424 2.259-2.884-.222-.317-.495-.6-.74-.897-1.676-2.034-2.996-4.61-3.445-7.224-.638-3.702.858-4.449 3.002-6.74a8.75 8.75 0 0 0 1.079-1.428l.448-.798c.194-.38.41-1.052.765-1.292.75-.51 1.378.346 1.873.78.368.323.765.618 1.156.913 2.036 1.512 5.581 3.398 8.147 3.714.37.045.885-.063 1.224.086.89.391.732 1.475.724 2.267-.033 3.496-1.35 7.443-3.709 10.017-.377.413-.563.361-.483.933.208 1.49.896 2.483 2.459 2.58 2.931.183 5.163-2.606 5.165-5.37l-.035-.013c-2.251-.916-2.863-3.443-2.658-5.643.061-.653.199-1.322.305-1.97l.26-2.002c.069-.762.075-1.988.014-2.765-.31-4.002-2.576-7.17-6.239-8.713-1.48-.624-3.06-.833-4.655-.765Zm-2.784 7.863c-.687 1.496-1.747 2.608-2.884 3.762-.437.443-.95.897-1.252 1.445-1.278 2.322.66 6.31 2.04 8.298.962 1.387 2.114 2.587 3.678 3.298 1.444.656 2.572.453 3.871-.315 3.793-2.435 5.226-7.028 5.234-11.323-3.564-.425-8.254-2.65-10.687-5.165Zm-.402 17.509c-.081.814-.322 1.53-.825 2.184l-.255.31c-.059.066-.086.054-.055.139l1.136 3.212c.109.325.147.87.505.984l.512.153c1.575.45 3.118.523 4.723.112l1.162-.379.179-.49 1.142-3.505c-.337-.564-.656-1.114-.894-1.73l-.2-.592c-.02-.063-.04-.187-.084-.234-2.234 1.603-4.93 1.628-7.046-.164Zm-2.544 3.662-1.06.776c-2.042 1.593-2.114 3.2-1.86 5.665 1.08.344 1.898 1.018 2.418 2.029.864 1.68 1.415 4.873-.683 5.923-.425.213-1.11.434-1.584.284a.827.827 0 0 1-.54-1.064c.318-.882 1.699-.099 1.908-1.906l.006-.053c.164-1.446-.832-3.561-2.44-3.727-1.753-.181-2.904 1.304-3.023 2.925-.245 3.36 1.31 1.935 1.85 2.796.452.724-.2 1.445-1.01 1.371-2.291-.21-2.698-2.48-2.483-4.376l.022-.134c.456-2.182 1.34-3.793 3.787-4.22-.031-1.373.035-3.05.627-4.313-4.64 1.643-6.743 3.53-8.9 8.041l-1.094 2.541 3.796 2.17c3.967 1.91 8.379 2.979 12.76 3.347l2.859.108c-.47-3.638-1.422-6.359-2.563-9.837l-2.397-7.402c-.114-.312-.253-.622-.344-.942l-.052-.002Zm12.231.018-1.682 5.027-2.608 8.42-.877 4.122c-.025.18-.021.43-.09.595l2.628-.108c5.923-.485 11.82-2.224 16.79-5.537l-1.72-3.752c-1.34-2.472-3.185-4.53-5.742-5.775-.833-.406-1.718-.685-2.552-1.084l-.018.001c.332.906.398 1.893.398 2.85l-.078 2.574c.739.287 1.437.95 1.754 1.68 1.084 2.491-1.463 5.077-3.92 4.05-2.808-1.175-2.362-5.264.444-5.82.06-.28.057-.608.086-.897.322-3.226.014-4.682-2.813-6.346Zm-8.788 4.99 2.747 8.61.677-2.348 1.13-3.647c.262-.86.489-1.753.85-2.576-1.628.414-3.792.445-5.404-.04Zm11.896 3.895c-1.555.426-1.612 2.71.525 2.68 1.737-.333 1.357-2.878-.525-2.68Z" fill="#2D3F59"/><path d="m41.824 68.136-2.83-.016-3.241-.313c-5.73-.713-10.515-2.252-15.482-5.365-1.586-.994-1.566-.945-.806-2.718l.977-2.24c1.722-3.557 4.038-6.448 7.719-8.026.795-.342 1.627-.584 2.449-.851l1.623-.568c-.126-.073-.3-.104-.44-.148l-.639-.236c-2.14-.904-3.872-2.89-4.378-5.169-.199-.89-.252-2.289.62-2.856.2-.13.423-.221.614-.366 1.136-.856 1.034-2.635 1.032-3.891l.004-2.673c.04-2.12.524-4.3 1.155-6.312 1.688-5.377 4.817-8.467 10.494-8.823 2.826-.113 5.684.794 7.906 2.54 2.931 2.305 4.225 4.918 4.494 8.686.081 1.132.085 2.294-.059 3.421l-.264 1.764c-.274 1.585-.701 4.19.872 5.278.263.182.565.283.821.483 1.723 1.34.258 4.529-.784 5.829-.866 1.08-2.487 2.276-3.926 2.436.13.102.343.167.5.225l1.338.457c.94.315 1.89.625 2.793 1.04 4.265 1.955 6.206 5.515 8.027 9.657l.399.91c.544 1.248.156 1.37-.82 1.992l-1.82 1.098c-5.335 2.96-12.187 4.758-18.348 4.755Zm-1.257-48.91c-2.404.157-4.817 1.116-6.434 2.948-2.109 2.387-3.392 7.422-3.438 10.72l.006 2.534c.018 2.258-.024 4.252-2.265 5.498-.224.124-.1.455-.085.673.172 2.563 2.666 5.03 5.3 4.84 1.578-.114 2.258-1.424 2.259-2.884-.222-.317-.495-.6-.74-.897-1.676-2.034-2.996-4.61-3.445-7.224-.638-3.702.858-4.449 3.002-6.74a8.75 8.75 0 0 0 1.079-1.428l.448-.798c.194-.38.41-1.052.765-1.292.75-.51 1.378.346 1.873.78.368.323.765.618 1.156.913 2.036 1.512 5.581 3.398 8.147 3.714.37.045.885-.063 1.224.086.89.391.732 1.475.724 2.267-.033 3.496-1.35 7.443-3.709 10.017-.377.413-.563.361-.483.933.208 1.49.896 2.483 2.459 2.58 2.931.183 5.163-2.606 5.165-5.37l-.035-.013c-2.251-.916-2.863-3.443-2.658-5.643.061-.653.199-1.322.305-1.97l.26-2.002c.069-.762.075-1.988.014-2.765-.31-4.002-2.576-7.17-6.239-8.713-1.48-.624-3.06-.833-4.655-.765Zm-2.784 7.863c-.687 1.496-1.747 2.608-2.884 3.762-.437.443-.95.897-1.252 1.445-1.278 2.322.66 6.31 2.04 8.298.962 1.387 2.114 2.587 3.678 3.298 1.444.656 2.572.453 3.871-.315 3.793-2.435 5.226-7.028 5.234-11.323-3.564-.425-8.254-2.65-10.687-5.165Zm-.402 17.509c-.081.814-.322 1.53-.825 2.184l-.255.31c-.059.066-.086.054-.055.139l1.136 3.212c.109.325.147.87.505.984l.512.153c1.575.45 3.118.523 4.723.112l1.162-.379.179-.49 1.142-3.505c-.337-.564-.656-1.114-.894-1.73l-.2-.592c-.02-.063-.04-.187-.084-.234-2.234 1.603-4.93 1.628-7.046-.164Zm-2.544 3.662-1.06.776c-2.042 1.593-2.114 3.2-1.86 5.665 1.08.344 1.898 1.018 2.418 2.029.864 1.68 1.415 4.873-.683 5.923-.425.213-1.11.434-1.584.284a.827.827 0 0 1-.54-1.064c.318-.882 1.699-.099 1.908-1.906l.006-.053c.164-1.446-.832-3.561-2.44-3.727-1.753-.181-2.904 1.304-3.023 2.925-.245 3.36 1.31 1.935 1.85 2.796.452.724-.2 1.445-1.01 1.371-2.291-.21-2.698-2.48-2.483-4.376l.022-.134c.456-2.182 1.34-3.793 3.787-4.22-.031-1.373.035-3.05.627-4.313-4.64 1.643-6.743 3.53-8.9 8.041l-1.094 2.541 3.796 2.17c3.967 1.91 8.379 2.979 12.76 3.347l2.859.108c-.47-3.638-1.422-6.359-2.563-9.837l-2.397-7.402c-.114-.312-.253-.622-.344-.942l-.052-.002Zm12.231.018-1.682 5.027-2.608 8.42-.877 4.122c-.025.18-.021.43-.09.595l2.628-.108c5.923-.485 11.82-2.224 16.79-5.537l-1.72-3.752c-1.34-2.472-3.185-4.53-5.742-5.775-.833-.406-1.718-.685-2.552-1.084l-.018.001c.332.906.398 1.893.398 2.85l-.078 2.574c.739.287 1.437.95 1.754 1.68 1.084 2.491-1.463 5.077-3.92 4.05-2.808-1.175-2.362-5.264.444-5.82.06-.28.057-.608.086-.897.322-3.226.014-4.682-2.813-6.346Zm-8.788 4.99 2.747 8.61.677-2.348 1.13-3.647c.262-.86.489-1.753.85-2.576-1.628.414-3.792.445-5.404-.04Zm11.896 3.895c-1.555.426-1.612 2.71.525 2.68 1.737-.333 1.357-2.878-.525-2.68Z" stroke="#2D3F59" mask="url(#a)"/><rect width="36" height="36" rx="18" fill="#F70"/><path d="M18 24.16c-.819 0-1.546-.141-2.182-.421-.633-.28-1.133-.67-1.5-1.17a3.034 3.034 0 0 1-.586-1.734h2.137c.018.315.123.59.312.824.19.231.441.411.756.54.314.129.666.193 1.057.193.416 0 .786-.072 1.108-.216a1.82 1.82 0 0 0 .755-.613c.182-.262.271-.563.267-.904a1.57 1.57 0 0 0-.272-.932c-.186-.269-.455-.479-.807-.63-.349-.152-.77-.228-1.262-.228h-1.028v-1.625h1.028c.406 0 .76-.07 1.063-.21.307-.14.547-.337.721-.59a1.52 1.52 0 0 0 .256-.893c.004-.33-.07-.615-.221-.858a1.497 1.497 0 0 0-.631-.574 2.074 2.074 0 0 0-.949-.204 2.5 2.5 0 0 0-.989.193 1.799 1.799 0 0 0-.733.551 1.396 1.396 0 0 0-.295.841h-2.028c.015-.652.202-1.223.562-1.716a3.63 3.63 0 0 1 1.455-1.159c.606-.28 1.286-.42 2.04-.42.776 0 1.45.145 2.022.437.576.288 1.02.676 1.335 1.165.315.489.472 1.028.472 1.62.004.654-.19 1.204-.58 1.647-.386.443-.894.733-1.522.87v.09c.818.114 1.445.417 1.88.91.44.488.658 1.096.654 1.823a2.92 2.92 0 0 1-.557 1.75c-.367.511-.875.913-1.523 1.205-.644.291-1.382.437-2.216.437Z" fill="#fff"/></svg>