<svg width="82" height="84" fill="none" xmlns="http://www.w3.org/2000/svg"><rect y="2" width="82" height="82" rx="41" fill="#fff"/><g clip-path="url(#a)"><path d="M41 16c-14.71 0-27 12.248-27 27 0 14.71 12.248 27 27 27 14.712 0 27-12.25 27-27 0-14.712-12.25-27-27-27Zm0 50.837c-6.037 0-12.076-2.353-16.78-7.057-9.033-9.033-9.393-22.979-1.082-32.405l4.27 4.27a9.442 9.442 0 0 0-.646 3.445v15.82c0 5.234 4.258 9.492 9.492 9.492 2.382 0 4.61-.865 6.334-2.418a9.453 9.453 0 0 0 6.322 2.418 9.44 9.44 0 0 0 5.497-1.758l2.218 2.218c-4.517 3.983-10.07 5.976-15.625 5.975Zm11.122-10.478a6.288 6.288 0 0 1-3.212.88 6.335 6.335 0 0 1-6.328-6.329c0-1.172.321-2.27.879-3.212l8.661 8.661Zm-6.424-10.898a6.288 6.288 0 0 1 3.212-.879 6.335 6.335 0 0 1 6.328 6.328c0 1.172-.321 2.27-.879 3.212l-8.66-8.661Zm-3.116-3.116-11.24-11.24a6.318 6.318 0 0 1 4.912-2.343 6.335 6.335 0 0 1 6.328 6.328v7.255Zm-5.401-.927h-7.255V35.09c0-.294.022-.583.06-.866l7.195 7.194Zm3.164 3.164.83.831a9.44 9.44 0 0 0-1.757 5.497c0 1.666.432 3.232 1.189 4.595a6.27 6.27 0 0 1-4.353 1.733 6.335 6.335 0 0 1-6.328-6.328v-6.328h10.419Zm18.517 14.043-2.217-2.218a9.44 9.44 0 0 0 1.757-5.497c0-5.234-4.258-9.492-9.492-9.492a9.45 9.45 0 0 0-3.164.543V35.09c0-5.234-4.258-9.492-9.492-9.492a9.473 9.473 0 0 0-7.156 3.262l-3.723-3.722c4.517-3.982 10.07-5.975 15.625-5.975 6.038 0 12.075 2.352 16.78 7.057 9.033 9.033 9.393 22.979 1.082 32.405Z" fill="#2D3F59"/></g><rect width="36" height="36" rx="18" fill="#F70"/><path d="M14.065 24v-1.523l4.04-3.96c.386-.39.708-.737.966-1.04.258-.303.45-.596.58-.88.128-.285.193-.588.193-.91 0-.367-.084-.681-.25-.943a1.663 1.663 0 0 0-.688-.613 2.216 2.216 0 0 0-.994-.216c-.383 0-.718.08-1.006.238a1.643 1.643 0 0 0-.67.665c-.155.288-.233.63-.233 1.029h-2.006c0-.739.169-1.381.506-1.926a3.413 3.413 0 0 1 1.392-1.268c.595-.299 1.276-.449 2.045-.449.78 0 1.466.146 2.057.438.591.292 1.05.691 1.375 1.199.33.508.494 1.087.494 1.739 0 .435-.083.863-.25 1.284-.166.42-.46.886-.88 1.397-.417.512-1.002 1.131-1.756 1.858l-2.006 2.04v.08h5.069V24h-7.978Z" fill="#fff"/><defs><clipPath id="a"><path fill="#fff" transform="translate(14 16)" d="M0 0h54v54H0z"/></clipPath></defs></svg>