<svg width="82" height="84" fill="none" xmlns="http://www.w3.org/2000/svg"><rect y="2" width="82" height="82" rx="41" fill="#fff"/><path d="M56.188 24.438c-2.296-1.941-2.506-4.599-2.532-5.063H28.344c-.026.464-.236 3.122-2.532 5.063-2.117 1.797-4.539 1.712-5.062 1.687v19.963c0 4.354 1.4 8.632 4.151 12.015.026.025.05.06.068.084C27.28 61.014 31.778 64.22 41 66.626c9.222-2.405 13.72-5.61 16.031-8.438a.588.588 0 0 0 .068-.084c2.742-3.383 4.151-7.653 4.151-12.015V26.125c-.523.025-2.945.11-5.063-1.688Zm1.687 21.65c0 3.679-1.207 7.189-3.392 9.889l-.067.076C52.045 58.955 47.53 61.335 41 63.132c-6.53-1.797-11.045-4.177-13.424-7.08l-.068-.084c-2.176-2.691-3.383-6.201-3.383-9.88v-17.01a10.404 10.404 0 0 0 3.864-2.067 10.375 10.375 0 0 0 3.021-4.261h19.972a10.375 10.375 0 0 0 3.02 4.26 10.532 10.532 0 0 0 3.865 2.068v17.01h.008Z" fill="#2D3F59"/><path d="M41 30.344c-6.522 0-11.813 5.29-11.813 11.812 0 6.522 5.29 11.813 11.813 11.813 6.522 0 11.813-5.29 11.813-11.813 0-6.522-5.29-11.812-11.813-11.812Zm5.906 14.343h-3.375v3.376H38.47v-3.376h-3.375v-5.062h3.375V36.25h5.062v3.375h3.375v5.063Z" fill="#2D3F59"/><rect width="36" height="36" rx="18" fill="#F70"/><path d="M19.923 12.364V24h-2.108v-9.585h-.068l-2.721 1.738v-1.931l2.892-1.858h2.005Z" fill="#fff"/></svg>