<svg width="24" height="24" fill="none" xmlns="http://www.w3.org/2000/svg"><path d="M13.249 21.083a9.26 9.26 0 0 1-1.249.084c-5.054 0-9.167-4.112-9.167-9.167 0-5.054 4.113-9.167 9.167-9.167 2.872 0 4.565.731 5.95 1.834h-1.366a.916.916 0 1 0 0 1.833h3.666c.506 0 .917-.41.917-.917V1.917a.917.917 0 0 0-1.833 0V3.43C17.676 2.04 15.567 1 12 1 5.934 1 1 5.934 1 12c0 6.065 4.934 11 11 11 .502 0 1.006-.034 1.497-.101a.915.915 0 0 0 .784-1.033.915.915 0 0 0-1.032-.783Zm8.318-5.761a.917.917 0 0 0-1.214.457 9.16 9.16 0 0 1-1.006 1.703.916.916 0 1 0 1.468 1.098 11.05 11.05 0 0 0 1.21-2.044.917.917 0 0 0-.458-1.214Zm-4.082 4.024a9.221 9.221 0 0 1-1.704 1.008.916.916 0 1 0 .758 1.669 11.03 11.03 0 0 0 2.043-1.208.916.916 0 1 0-1.097-1.469Zm4.598-8.263a.917.917 0 0 0-.916.917c0 .42-.029.84-.085 1.248a.916.916 0 0 0 .91 1.042.918.918 0 0 0 .907-.793c.067-.492.101-.995.101-1.497a.916.916 0 0 0-.917-.917Z" fill="#71C011"/><path d="M12 5.583A6.424 6.424 0 0 0 5.583 12 6.424 6.424 0 0 0 12 18.416 6.424 6.424 0 0 0 18.417 12 6.424 6.424 0 0 0 12 5.583ZM12.916 12a.925.925 0 0 1-.268.648l-1.833 1.833a.914.914 0 0 1-1.297 0 .916.916 0 0 1 0-1.296l1.565-1.565v-1.454a.917.917 0 0 1 1.833 0V12Z" fill="#71C011"/></svg>