<svg width="32" height="32" fill="none" xmlns="http://www.w3.org/2000/svg"><path fill-rule="evenodd" clip-rule="evenodd" d="M2.667 9.334a6.667 6.667 0 0 1 6.666-6.667h13.334a6.667 6.667 0 0 1 6.666 6.667v13.333a6.667 6.667 0 0 1-6.666 6.667H9.333a6.667 6.667 0 0 1-6.666-6.667V9.334Zm6.666-4a4 4 0 0 0-4 4v13.333a4 4 0 0 0 4 4h13.334a4 4 0 0 0 4-4V9.334a4 4 0 0 0-4-4H9.333Z" fill="#fff"/><path fill-rule="evenodd" clip-rule="evenodd" d="M14.667 16A5.333 5.333 0 0 1 20 10.667h6.667a2.667 2.667 0 0 1 2.666 2.667v5.333a2.667 2.667 0 0 1-2.666 2.667H20A5.333 5.333 0 0 1 14.667 16ZM20 13.334a2.667 2.667 0 1 0 0 5.333h6.667v-5.333H20Z" fill="#fff"/><path fill-rule="evenodd" clip-rule="evenodd" d="M18.667 16c0-.736.597-1.333 1.333-1.333h.133a1.333 1.333 0 1 1 0 2.667H20A1.333 1.333 0 0 1 18.667 16Z" fill="#fff"/></svg>